<svg width="520" height="115" viewBox="0 0 520 115" fill="none" xmlns="http://www.w3.org/2000/svg">
<g clip-path="url(#clip0_1637_13788)">
<path d="M326.286 18.0693C322.029 18.0693 318.664 18.955 316.449 21.1692L313.877 23.7389H310.675C308.267 19.9572 304.033 18.0693 297.916 18.0693C293.659 18.0693 290.294 18.955 288.078 21.1692L285.507 23.7389H282.935L281.699 18.955H272.829V65.547H284.801V37.0242C284.801 31.5353 287.641 28.6976 293.309 28.6976C298.628 28.6976 301.112 31.2672 301.112 37.0242V65.547H313.078V36.8494L313.171 36.9543C313.195 31.5061 316.029 28.6976 321.679 28.6976C326.998 28.6976 329.482 31.2672 329.482 37.0242V65.547H341.448V33.8369C341.448 23.296 336.485 18.0693 326.292 18.0693M403.022 55.4489H415.881V28.9656H404.533V18.955H424.476L425.631 23.7389H428.29L430.862 21.1692C432.99 18.955 436.361 18.0693 440.699 18.0693H448.24V28.785H436.448C430.774 28.785 427.847 31.5294 427.847 36.5814V55.4489H442.74V65.547H403.028V55.4489H403.022ZM369.935 57.4884C376.052 57.4884 379.51 54.301 379.51 48.7188V45.7937H370.378C365.328 45.7937 362.756 47.9206 362.756 51.8188C362.756 55.2741 364.797 57.4884 369.941 57.4884M350.615 52.9725C350.615 43.7601 356.732 38.8888 367.369 38.8888H379.516V35.4335C379.516 29.6765 376.944 27.2816 371.626 27.2816C367.106 27.2816 363.911 29.053 363.561 33.3941H352.744C353.099 23.7389 359.835 18.0693 372.6 18.0693C385.365 18.0693 391.482 23.5582 391.482 34.8974V65.547H382.262L381.108 60.7631H378.536L375.964 63.3327C373.836 65.4596 370.471 66.4327 365.946 66.4327C355.928 66.4327 350.609 61.6488 350.609 52.9667M235.834 45.9685H230.604V65.5411H218.637V0H230.604V35.3402H236.009L248.244 18.955H261.895L246.028 40.6602L262.426 65.547H248.331L235.829 45.9744L235.834 45.9685ZM163.262 42.2451C163.262 25.854 170.884 18.0634 185.421 18.0634C198.717 18.0634 205.721 24.6187 206.076 36.7504H194.46C193.93 30.8186 190.915 28.1615 185.416 28.1615C178.587 28.1615 175.578 32.2403 175.578 42.2451C175.578 52.25 178.593 56.3288 185.416 56.3288C191.002 56.3288 194.104 53.6717 194.548 47.2038H206.339C205.983 59.7783 198.799 66.4268 185.416 66.4268C170.878 66.4268 163.256 58.543 163.256 42.2451M141.557 36.7504C141.376 30.3757 138.274 26.9204 132.069 26.9204C125.865 26.9204 122.85 30.0203 121.789 36.7504H141.557ZM109.729 42.2451C109.729 25.854 117.444 18.0634 132.069 18.0634C146.695 18.0634 154.235 26.2153 152.549 44.2846H121.52C121.963 53.4969 125.247 57.3951 132.157 57.3951C137.207 57.3951 140.578 55.3557 141.376 51.1953H152.369C151.307 60.8505 143.948 66.4327 131.801 66.4327C117.351 66.4327 109.729 58.5488 109.729 42.251M57.5142 0H69.4803V15.4996L68.419 23.1154L70.9032 23.733L73.4749 21.1634C75.6908 18.9491 78.7932 18.0634 82.9568 18.0634C92.9753 18.0634 97.7629 23.2902 97.7629 33.8311V65.5411H85.7968V37.0184C85.7968 31.2614 83.3126 28.6917 77.9943 28.6917C72.3203 28.6917 69.4803 31.5294 69.4803 37.0184V65.5411H57.5142V0ZM0.5 34.9906C0.5 12.7551 7.67853 3.01252 24.0824 3.01252C38.801 3.01252 45.8863 10.9837 46.5102 27.6371H34.3633C33.9201 18.4247 30.7303 14.1711 24.0824 14.1711C16.2799 14.1711 13.1776 19.9281 13.1776 34.9848C13.1776 50.0416 16.0992 55.7985 24.0824 55.7985C30.9111 55.7985 34.0134 51.9877 34.5441 42.1577H46.8659C46.1545 58.9859 38.801 66.9629 24.0824 66.9629C7.67853 66.9687 0.5 57.2261 0.5 34.9906Z" fill="#2B347B"/>
<path d="M509.336 6.13575L482.686 34.944C482.138 35.4918 481.135 35.4976 480.622 35.0023L466.93 19.1414L466.86 19.0657C465.682 17.8828 464.055 17.2535 462.387 17.3293C460.713 17.405 459.133 18.1916 458.06 19.491C457.098 20.6506 456.637 22.1365 456.76 23.6689C456.876 25.149 457.518 26.5416 458.614 27.6312L474.353 41.1788C474.627 41.4585 474.779 41.8314 474.779 42.2218C474.779 42.6122 474.627 42.9852 474.4 43.2241L458.661 56.7658L458.591 56.8357C457.454 57.972 456.795 59.5453 456.771 61.1651C456.748 62.8608 457.401 64.4166 458.602 65.5353C459.162 66.0539 459.804 66.456 460.515 66.7298C461.915 67.2659 463.507 67.2543 464.895 66.6949C465.635 66.3977 466.294 65.9549 466.901 65.3489L480.587 49.4938C481.147 48.9519 482.121 48.9519 482.634 49.4472L496.332 65.3139L496.402 65.3838C496.968 65.949 497.632 66.3919 498.373 66.6891C499.084 66.9804 499.837 67.1261 500.612 67.1261C501.388 67.1261 502.07 66.9921 502.758 66.7298C503.47 66.456 504.111 66.0539 504.665 65.5353C505.872 64.4166 506.519 62.8608 506.496 61.1651C506.473 59.5511 505.808 57.972 504.636 56.8008L488.914 43.2707C488.64 42.991 488.489 42.6181 488.489 42.2277C488.489 41.8373 488.64 41.4527 488.879 41.2138L517.681 14.6197C518.736 13.5651 519.378 12.1724 519.494 10.6924C519.617 9.1541 519.156 7.67406 518.194 6.50868C517.121 5.20927 515.541 4.42264 513.867 4.34689C513.774 4.34689 513.686 4.34106 513.593 4.34106C512.03 4.34106 510.497 4.9762 509.342 6.12993" fill="#4096D2"/>
<path d="M519.483 10.6982C519.605 9.1599 519.145 7.67986 518.182 6.51448C517.109 5.21507 515.529 4.42844 513.855 4.35269C513.762 4.35269 513.675 4.34686 513.581 4.34686C512.018 4.34686 510.485 4.982 509.33 6.13573L482.68 34.944C482.132 35.4917 481.129 35.4976 480.616 35.0023L466.924 19.1414L466.854 19.0657C465.676 17.8828 464.049 17.2535 462.381 17.3292C460.707 17.405 459.127 18.1916 458.054 19.491C457.092 20.6506 456.631 22.1364 456.754 23.6689C456.87 25.149 457.512 26.5416 458.608 27.6312L470.633 37.9798L475.199 41.9072C479.001 45.1819 484.663 45.0828 488.349 41.6799L491.882 38.4227L517.663 14.6197C518.719 13.565 519.36 12.1724 519.477 10.6924" fill="#F05680"/>
<path d="M2.15039 94.7689H6.5823L12.4954 109.196H12.7228L18.6534 94.7689H23.1378V114.691H19.5923V100.998H19.429L13.8891 114.621H11.2941L5.81838 100.969H5.63177V114.691H2.15039V94.7689Z" fill="#2B347B"/>
<path d="M43.3672 114.691H39.501L46.5395 94.7689H50.9831L58.01 114.691H54.1554L48.8313 98.8594H48.668L43.3672 114.691ZM43.5014 106.883H54.0097V109.773H43.5014V106.883Z" fill="#2B347B"/>
<path d="M74.373 114.691V94.7689H77.9885V103.929H78.2276L86.0184 94.7689H90.4212L82.712 103.713L90.4853 114.691H86.1351L80.1928 106.161L77.9827 108.771V114.697H74.3672L74.373 114.691Z" fill="#2B347B"/>
<path d="M106.674 114.691V94.7689H119.655V97.7931H110.289V103.142H118.961V106.126H110.289V111.673H119.713V114.697H106.68L106.674 114.691Z" fill="#2B347B"/>
<path d="M164.661 115C163.11 115 161.763 114.761 160.62 114.277C159.477 113.794 158.585 113.095 157.943 112.168C157.302 111.247 156.952 110.123 156.899 108.806H160.457C160.509 109.499 160.725 110.076 161.098 110.537C161.471 110.997 161.967 111.341 162.579 111.574C163.192 111.807 163.868 111.923 164.62 111.923C165.373 111.923 166.096 111.801 166.696 111.562C167.291 111.323 167.763 110.985 168.102 110.56C168.44 110.135 168.609 109.633 168.609 109.062C168.609 108.544 168.457 108.118 168.154 107.786C167.851 107.454 167.431 107.169 166.895 106.936C166.358 106.702 165.728 106.499 165.005 106.318L162.743 105.729C161.104 105.31 159.809 104.669 158.865 103.812C157.92 102.95 157.448 101.802 157.448 100.369C157.448 99.1916 157.762 98.1661 158.398 97.2862C159.034 96.4063 159.897 95.7246 160.999 95.2351C162.101 94.7457 163.349 94.5009 164.737 94.5009C166.125 94.5009 167.402 94.7457 168.469 95.2351C169.542 95.7246 170.376 96.4005 170.982 97.2687C171.589 98.1311 171.904 99.1275 171.933 100.252H168.44C168.352 99.3955 167.973 98.7371 167.309 98.2651C166.644 97.799 165.769 97.56 164.69 97.56C163.938 97.56 163.297 97.6708 162.754 97.8922C162.212 98.1136 161.804 98.4224 161.518 98.8128C161.232 99.2032 161.092 99.6519 161.092 100.147C161.092 100.701 161.261 101.149 161.594 101.505C161.926 101.854 162.358 102.14 162.877 102.356C163.401 102.571 163.932 102.746 164.474 102.892L166.335 103.358C167.087 103.538 167.804 103.772 168.504 104.075C169.204 104.378 169.828 104.75 170.382 105.199C170.942 105.648 171.379 106.196 171.705 106.837C172.032 107.477 172.195 108.229 172.195 109.097C172.195 110.257 171.898 111.282 171.297 112.168C170.702 113.054 169.839 113.747 168.714 114.248C167.588 114.749 166.236 115 164.644 115H164.661Z" fill="#2B347B"/>
<path d="M189.147 114.691V94.7689H192.763V103.206H201.994V94.7689H205.61V114.691H201.994V106.242H192.763V114.691H189.147Z" fill="#2B347B"/>
<path d="M226.883 94.7689V114.691H223.268V94.7689H226.883Z" fill="#2B347B"/>
<path d="M244.547 114.691V94.7689H257.341V97.7931H248.162V103.772H256.449V106.755H248.162V114.697H244.547V114.691Z" fill="#2B347B"/>
<path d="M273.482 97.7873V94.7631H289.379V97.7873H283.221V114.691H279.646V97.7873H273.477H273.482Z" fill="#2B347B"/>
<path d="M326.729 114.691V94.7689H330.345V103.206H339.576V94.7689H343.192V114.691H339.576V106.242H330.345V114.691H326.729Z" fill="#2B347B"/>
<path d="M363.421 114.691H359.555L366.593 94.7689H371.037L378.064 114.691H374.209L368.885 98.8594H368.722L363.421 114.691ZM363.555 106.883H374.058V109.773H363.555V106.883Z" fill="#2B347B"/>
<path d="M394.427 114.691V94.7689H401.908C403.442 94.7689 404.731 95.0544 405.769 95.6255C406.807 96.1965 407.594 96.9831 408.131 97.9795C408.667 98.976 408.935 100.112 408.935 101.377C408.935 102.641 408.667 103.783 408.125 104.78C407.583 105.776 406.789 106.551 405.734 107.122C404.678 107.687 403.39 107.973 401.85 107.973H396.899V105.001H401.355C402.253 105.001 402.993 104.849 403.57 104.541C404.148 104.232 404.568 103.806 404.842 103.259C405.116 102.711 405.25 102.082 405.25 101.382C405.25 100.683 405.116 100.042 404.842 99.5062C404.568 98.9701 404.148 98.5506 403.57 98.2476C402.993 97.9504 402.253 97.7989 401.343 97.7989H398.036V114.703H394.421L394.427 114.691Z" fill="#2B347B"/>
<path d="M425.806 114.691V94.7689H433.287C434.821 94.7689 436.11 95.0544 437.148 95.6255C438.186 96.1965 438.973 96.9831 439.51 97.9795C440.046 98.976 440.314 100.112 440.314 101.377C440.314 102.641 440.046 103.783 439.504 104.78C438.961 105.776 438.168 106.551 437.113 107.122C436.057 107.687 434.769 107.973 433.229 107.973H428.278V105.001H432.733C433.631 105.001 434.372 104.849 434.949 104.541C435.527 104.232 435.947 103.806 436.221 103.259C436.495 102.711 436.629 102.082 436.629 101.382C436.629 100.683 436.495 100.042 436.221 99.5062C435.947 98.9701 435.527 98.5506 434.949 98.2476C434.372 97.9504 433.631 97.7989 432.722 97.7989H429.415V114.703H425.8L425.806 114.691Z" fill="#2B347B"/>
<path d="M457.19 114.691V94.7689H470.171V97.7931H460.806V103.142H469.477V106.126H460.806V111.673H470.23V114.697H457.196L457.19 114.691Z" fill="#2B347B"/>
<path d="M503.988 94.7689V114.691H500.751L491.369 101.12H491.194V114.691H487.578V94.7689H490.815L500.197 108.34H500.372V94.7689H503.988Z" fill="#2B347B"/>
</g>
<defs>
<clipPath id="clip0_1637_13788">
<rect width="519" height="115" fill="white" transform="translate(0.5)"/>
</clipPath>
</defs>
</svg>
