<?xml version="1.0" encoding="UTF-8" standalone="no"?>
<svg
   xmlns:dc="http://purl.org/dc/elements/1.1/"
   xmlns:cc="http://creativecommons.org/ns#"
   xmlns:rdf="http://www.w3.org/1999/02/22-rdf-syntax-ns#"
   xmlns:svg="http://www.w3.org/2000/svg"
   xmlns="http://www.w3.org/2000/svg"
   id="svg40"
   xml:space="preserve"
   viewBox="0 0 1024 768"
   y="0px"
   x="0px"
   version="1.1"><metadata
     id="metadata44"><rdf:RDF><cc:Work
         rdf:about=""><dc:format>image/svg+xml</dc:format><dc:type
           rdf:resource="http://purl.org/dc/dcmitype/StillImage" /></cc:Work></rdf:RDF></metadata><rect
     id="rect2"
     height="768"
     width="1024"
     fill="#00b5f9" /><defs
     id="defs554161" /><g
     id="logo-group"><path
       style="fill:#f2f2f2;stroke-width:0.75"
       d="m 505.82585,245.04521 c -0.26063,-0.0104 -0.52083,0.005 -0.69389,0.0409 -0.15262,0.0321 -0.3924,0.10467 -0.53292,0.16138 -0.14095,0.0571 -0.35987,0.16638 -0.48706,0.24353 -0.12718,0.0767 -0.3336,0.2306 -0.45828,0.34194 -0.1251,0.11092 -0.309,0.31733 -0.40908,0.4587 -0.10008,0.14094 -0.2306,0.35403 -0.29065,0.47287 -0.0596,0.11927 -0.15012,0.36321 -0.20141,0.5421 -0.0721,0.25437 -0.0922,0.43077 -0.0909,0.80523 0.001,0.31067 0.0263,0.56754 0.0705,0.72975 l 0.0688,0.2502 -4.54447,4.5453 c -2.49949,2.49992 -4.54446,4.56407 -4.54446,4.587 0,0.0229 2.36897,2.41068 5.26462,5.30633 l 5.26463,5.26462 h 5.05028 5.05029 l 0.15512,0.25145 c 0.0851,0.13803 0.25855,0.36321 0.3849,0.49957 0.12677,0.13677 0.35653,0.33276 0.51082,0.43535 0.15429,0.10258 0.37322,0.22601 0.48623,0.27438 0.11259,0.0488 0.35528,0.12427 0.53876,0.16847 0.18765,0.045 0.48289,0.0801 0.67471,0.0801 0.18806,4.2e-4 0.47621,-0.0279 0.64093,-0.0625 0.16471,-0.0346 0.42825,-0.11717 0.58505,-0.18306 0.1572,-0.0659 0.40615,-0.206 0.55336,-0.31066 0.14678,-0.10509 0.38321,-0.31734 0.525,-0.47246 0.16888,-0.1839 0.32192,-0.41117 0.44286,-0.65803 0.10174,-0.20725 0.21683,-0.49915 0.25603,-0.64802 0.0476,-0.18056 0.0709,-0.43118 0.0705,-0.7506 -4.1e-4,-0.32442 -0.0242,-0.56503 -0.073,-0.74351 -0.0401,-0.14512 -0.11717,-0.36571 -0.17221,-0.48956 -0.055,-0.12426 -0.16805,-0.32859 -0.25145,-0.45411 -0.083,-0.12552 -0.25521,-0.3336 -0.38239,-0.46287 -0.12677,-0.12885 -0.35529,-0.314 -0.50749,-0.41116 -0.15221,-0.0967 -0.37405,-0.21684 -0.4929,-0.26688 -0.11884,-0.05 -0.34319,-0.1201 -0.49872,-0.15638 -0.16055,-0.0371 -0.46371,-0.065 -0.70141,-0.0642 -0.27688,8.2e-4 -0.52625,0.0292 -0.73725,0.0834 -0.17513,0.045 -0.44703,0.14803 -0.60465,0.22893 -0.15721,0.0805 -0.34236,0.18473 -0.41116,0.23144 -0.0688,0.0467 -0.24395,0.20266 -0.38906,0.34611 -0.14512,0.14386 -0.34235,0.38781 -0.43785,0.54251 l -0.17389,0.28106 -4.4619,4.2e-4 -4.4619,4.1e-4 -3.93023,-3.93022 -3.93022,-3.93023 3.59829,-3.59829 3.59788,-3.59787 0.26979,0.0713 c 0.17348,0.0459 0.42493,0.0709 0.70724,0.07 0.26187,-4.1e-4 0.5521,-0.0283 0.72224,-0.0696 0.15638,-0.0379 0.41909,-0.13178 0.5838,-0.20892 0.16472,-0.0767 0.41575,-0.22602 0.55753,-0.33152 0.14178,-0.1055 0.36112,-0.31692 0.48747,-0.46996 0.12635,-0.15262 0.29482,-0.4024 0.37489,-0.55502 0.0801,-0.15221 0.18473,-0.41742 0.23268,-0.58922 0.048,-0.17139 0.0976,-0.47163 0.11009,-0.66637 0.0154,-0.22935 0.002,-0.47329 -0.0375,-0.69097 -0.0338,-0.18515 -0.108,-0.45286 -0.16555,-0.59547 -0.0575,-0.1422 -0.16763,-0.36613 -0.24478,-0.49707 -0.0767,-0.13094 -0.29315,-0.39156 -0.48038,-0.57921 -0.27772,-0.27772 -0.41283,-0.37614 -0.72975,-0.53168 -0.21392,-0.10508 -0.50165,-0.22059 -0.63926,-0.25645 -0.13761,-0.0363 -0.43785,-0.0734 -0.6672,-0.0826 z m -0.12218,1.86024 c 0.0934,-0.002 0.26479,0.0254 0.38155,0.06 0.13386,0.0396 0.28857,0.13178 0.41992,0.24979 0.11426,0.10258 0.25062,0.27605 0.30358,0.3853 0.0738,0.15263 0.0959,0.27064 0.0963,0.51125 4.1e-4,0.25645 -0.0192,0.35028 -0.10842,0.52125 -0.0596,0.11467 -0.17097,0.26854 -0.2477,0.34194 -0.0767,0.0734 -0.2331,0.17514 -0.34778,0.22601 -0.13803,0.0613 -0.29315,0.093 -0.4587,0.0938 -0.1668,8.2e-4 -0.36946,-0.0384 -0.6084,-0.1176 l -0.35862,-0.11926 -0.11885,-0.35862 c -0.078,-0.23435 -0.11926,-0.44452 -0.11926,-0.6084 0,-0.17139 0.0308,-0.31984 0.0976,-0.47038 0.0596,-0.1351 0.17722,-0.2919 0.30482,-0.40657 0.11927,-0.10717 0.2894,-0.21184 0.40074,-0.24603 0.10634,-0.0329 0.2698,-0.0609 0.36321,-0.0625 z m 11.40412,19.34922 c 0.25896,-0.003 0.35319,0.0158 0.53,0.10383 0.11801,0.0588 0.2748,0.17514 0.34778,0.25854 0.073,0.083 0.17222,0.23686 0.21976,0.3411 0.0622,0.13553 0.0867,0.27314 0.0863,0.48164 -4.2e-4,0.21726 -0.025,0.34194 -0.0955,0.48747 -0.0521,0.10801 -0.17013,0.27105 -0.26229,0.36321 -0.0967,0.0967 -0.26312,0.20308 -0.3949,0.2527 -0.12551,0.0467 -0.32025,0.0851 -0.43326,0.0851 -0.11301,0 -0.30733,-0.0379 -0.43202,-0.0846 -0.15387,-0.0575 -0.2873,-0.15012 -0.41741,-0.28898 -0.10467,-0.11218 -0.25937,-0.34319 -0.34361,-0.51291 l -0.15262,-0.30858 0.19808,-0.38364 c 0.1351,-0.26188 0.2527,-0.42826 0.37071,-0.52417 0.0947,-0.0776 0.23811,-0.1693 0.31817,-0.20391 0.0842,-0.0367 0.27897,-0.0646 0.46079,-0.0667 z m 4.10536,-21.20696 c -0.22935,-0.01 -0.50457,-0.002 -0.61174,0.0179 -0.10717,0.02 -0.30316,0.0675 -0.43576,0.10591 -0.13261,0.0384 -0.34528,0.1226 -0.47247,0.18724 -0.1276,0.0642 -0.35153,0.20683 -0.49789,0.31692 -0.14637,0.11009 -0.3753,0.33735 -0.50874,0.50498 -0.13303,0.16764 -0.30024,0.42618 -0.37072,0.57421 -0.0705,0.14804 -0.16597,0.41534 -0.21225,0.59381 -0.0571,0.22268 -0.0834,0.45954 -0.0834,0.75102 4.1e-4,0.23769 0.0292,0.55044 0.0655,0.70723 l 0.0655,0.28189 -2.01494,2.01495 -2.01494,2.01494 -0.2698,-0.0705 c -0.16847,-0.0438 -0.43368,-0.0705 -0.70723,-0.0709 -0.28106,-4.2e-4 -0.54252,0.0254 -0.72975,0.0726 -0.16055,0.04 -0.44203,0.14636 -0.6255,0.2356 -0.18349,0.0892 -0.44453,0.25395 -0.57964,0.36529 -0.13552,0.11176 -0.33735,0.31359 -0.4491,0.44911 -0.11134,0.13511 -0.27648,0.39615 -0.36655,0.57963 -0.0901,0.18348 -0.19599,0.45537 -0.2356,0.60465 -0.048,0.18056 -0.0721,0.43076 -0.073,0.7506 -4.1e-4,0.37197 0.0204,0.55419 0.093,0.81107 0.0513,0.18264 0.15888,0.45703 0.23936,0.60965 0.0801,0.15262 0.23436,0.38781 0.34278,0.52208 0.108,0.13428 0.30691,0.33319 0.44118,0.44119 0.13428,0.10842 0.36863,0.26188 0.52,0.34111 0.15179,0.0796 0.417,0.18848 0.5888,0.24186 0.26271,0.0817 0.39949,0.0972 0.85486,0.0955 l 0.5421,-0.002 0.37738,-0.12927 c 0.20767,-0.0713 0.49831,-0.19974 0.64635,-0.28564 0.14803,-0.0859 0.42117,-0.30941 0.60757,-0.49665 0.27438,-0.27605 0.3753,-0.41491 0.53167,-0.7335 0.10592,-0.21642 0.2256,-0.51541 0.26522,-0.66428 0.0492,-0.18515 0.0713,-0.42326 0.0701,-0.7506 -0.002,-0.314 -0.0259,-0.56587 -0.0713,-0.72975 l -0.0692,-0.2502 2.01286,-2.01328 2.01244,-2.01369 0.2698,0.0713 c 0.17598,0.0467 0.42826,0.0717 0.72808,0.0717 0.3482,0 0.53835,-0.0221 0.7898,-0.093 0.18223,-0.0513 0.47788,-0.1693 0.65677,-0.26229 0.18516,-0.0963 0.45078,-0.28523 0.61592,-0.43827 0.1597,-0.14803 0.37654,-0.39865 0.48204,-0.55711 0.10551,-0.15888 0.23561,-0.39699 0.28899,-0.52917 0.0534,-0.13261 0.1301,-0.38948 0.16971,-0.57046 0.0546,-0.24645 0.0676,-0.4416 0.0521,-0.77187 -0.0167,-0.34527 -0.0488,-0.5225 -0.14678,-0.80731 -0.0692,-0.20058 -0.1889,-0.47121 -0.26605,-0.60131 -0.0776,-0.13011 -0.2602,-0.36446 -0.40658,-0.52125 -0.14636,-0.1568 -0.39072,-0.3678 -0.54293,-0.46871 -0.1522,-0.10133 -0.37989,-0.2256 -0.5054,-0.27605 -0.12552,-0.05 -0.32234,-0.1176 -0.43702,-0.15013 -0.11467,-0.0321 -0.39615,-0.0663 -0.6255,-0.0763 z m -0.058,1.87317 c 0.12886,0.008 0.31942,0.0521 0.42367,0.0984 0.10425,0.0459 0.26563,0.1618 0.35821,0.25771 0.0951,0.0976 0.20641,0.27355 0.25437,0.40157 0.0467,0.12551 0.0851,0.32025 0.0851,0.43326 0,0.11301 -0.038,0.30733 -0.0847,0.43201 -0.0575,0.15346 -0.15012,0.28731 -0.28773,0.41617 -0.11133,0.10425 -0.27522,0.22142 -0.36362,0.26062 -0.10133,0.0446 -0.26813,0.0709 -0.45245,0.0709 -0.21683,-4.1e-4 -0.37738,-0.0313 -0.62466,-0.12093 l -0.33277,-0.12051 -0.11467,-0.3336 c -0.0826,-0.24019 -0.11468,-0.41533 -0.11468,-0.6255 0,-0.19349 0.0259,-0.3482 0.0763,-0.4587 0.0417,-0.0917 0.12761,-0.2281 0.19099,-0.30316 0.0634,-0.0751 0.19933,-0.18556 0.30191,-0.24561 0.10258,-0.0605 0.24603,-0.12469 0.31859,-0.14345 0.0725,-0.0188 0.23769,-0.0275 0.36612,-0.0192 z m -7.92842,7.92675 c 0.10258,0.0113 0.34152,0.0709 0.53085,0.13261 l 0.34443,0.11217 0.11426,0.33568 c 0.0826,0.24228 0.11426,0.41701 0.11384,0.62759 -4.1e-4,0.21767 -0.0251,0.34194 -0.0963,0.48914 -0.0526,0.10842 -0.18974,0.28189 -0.30483,0.38531 -0.13261,0.11926 -0.2869,0.211 -0.42117,0.25103 -0.11676,0.0346 -0.28148,0.063 -0.36654,0.063 -0.0847,0 -0.25104,-0.0313 -0.36988,-0.0696 -0.11843,-0.0384 -0.29941,-0.14387 -0.40241,-0.23436 -0.103,-0.0905 -0.22434,-0.23685 -0.26938,-0.32526 -0.0446,-0.088 -0.10175,-0.25437 -0.12635,-0.36904 -0.0325,-0.15179 -0.0317,-0.27147 0.003,-0.43869 0.0263,-0.12677 0.10759,-0.319 0.18057,-0.42742 0.073,-0.10842 0.211,-0.25187 0.30649,-0.31859 0.0959,-0.0671 0.26479,-0.1472 0.3753,-0.17806 0.11092,-0.0309 0.28523,-0.0467 0.38823,-0.0354 z m -29.77295,-2.75428 c -0.24103,-0.009 -0.52667,4.1e-4 -0.63551,0.02 -0.10842,0.02 -0.29607,0.0684 -0.417,0.10759 -0.12051,0.0392 -0.36946,0.14803 -0.55294,0.24144 -0.25354,0.12927 -0.42034,0.25729 -0.69472,0.53251 -0.29774,0.29941 -0.39407,0.43076 -0.55211,0.75269 -0.10508,0.21433 -0.22018,0.50248 -0.25562,0.64009 -0.035,0.13761 -0.0751,0.39073 -0.0884,0.56295 -0.0138,0.17181 -0.003,0.45286 0.0238,0.62467 0.0267,0.17138 0.0934,0.43993 0.14762,0.59631 0.0546,0.15679 0.17472,0.41199 0.26688,0.56712 0.0922,0.15512 0.27689,0.39573 0.41033,0.53417 0.13344,0.13845 0.37863,0.33986 0.5446,0.44703 l 0.30191,0.19557 v 3.49029 3.49029 l 8.10022,8.10022 8.10023,8.10023 h 6.56775 6.56775 l 0.11968,0.21309 c 0.0655,0.11676 0.24144,0.34235 0.39114,0.5004 0.14929,0.15846 0.3999,0.37363 0.55712,0.47788 0.15679,0.10425 0.43118,0.24311 0.60965,0.30816 0.17806,0.0651 0.47413,0.14095 0.65761,0.16889 0.19265,0.0292 0.45995,0.0392 0.63259,0.0238 0.16471,-0.015 0.40866,-0.0546 0.5421,-0.0884 0.13386,-0.0338 0.42117,-0.14887 0.63926,-0.25562 0.33152,-0.16263 0.4537,-0.2527 0.7506,-0.55294 0.19474,-0.19724 0.41742,-0.46579 0.49498,-0.59715 0.0771,-0.13135 0.19849,-0.40324 0.27021,-0.60423 l 0.12969,-0.36529 -0.001,-0.60465 c -10e-4,-0.5421 -0.0129,-0.63926 -0.113,-0.93825 -0.0613,-0.18348 -0.18223,-0.45453 -0.26855,-0.60257 -0.0867,-0.14803 -0.27814,-0.3974 -0.42576,-0.55502 -0.1472,-0.15721 -0.40574,-0.37655 -0.57421,-0.48706 -0.18306,-0.12051 -0.46329,-0.25312 -0.69681,-0.33068 -0.24102,-0.0797 -0.52333,-0.13928 -0.73892,-0.15596 -0.20308,-0.0154 -0.47955,-0.006 -0.66094,0.0221 -0.17139,0.0267 -0.44035,0.0934 -0.59757,0.14804 -0.1572,0.055 -0.39239,0.16179 -0.52208,0.23811 -0.1301,0.0763 -0.40574,0.30732 -0.61215,0.51374 -0.20684,0.20641 -0.42243,0.46454 -0.47955,0.57337 l -0.10359,0.19808 h -6.02565 -6.02565 l -7.26623,-7.26623 -7.26622,-7.26622 v -2.94694 -2.94694 l 0.15637,-0.0947 c 0.0859,-0.0517 0.26689,-0.18014 0.40199,-0.28481 0.13469,-0.10466 0.34653,-0.31942 0.47038,-0.47746 0.12343,-0.15805 0.28856,-0.42076 0.36654,-0.5838 0.078,-0.16305 0.17056,-0.41033 0.20642,-0.54961 0.0354,-0.13928 0.0759,-0.41116 0.0896,-0.60465 0.0163,-0.23102 0.004,-0.46662 -0.0363,-0.68805 -0.0338,-0.18515 -0.108,-0.45286 -0.16554,-0.59547 -0.0575,-0.1422 -0.16764,-0.36613 -0.24478,-0.49707 -0.0767,-0.13094 -0.29024,-0.38906 -0.47413,-0.57296 -0.24311,-0.24311 -0.42576,-0.38197 -0.6672,-0.50707 -0.18307,-0.0947 -0.46412,-0.21267 -0.62467,-0.26229 -0.19432,-0.0605 -0.43827,-0.0959 -0.72975,-0.10675 z m -0.14303,1.8594 c 0.0934,-0.002 0.26396,0.025 0.37947,0.0596 0.12426,0.0367 0.29023,0.13261 0.40574,0.23436 0.10759,0.0947 0.2452,0.26854 0.30566,0.38614 0.0863,0.16805 0.11051,0.27563 0.11259,0.5054 0.002,0.23853 -0.0183,0.33527 -0.11342,0.52876 -0.0638,0.13052 -0.18223,0.29482 -0.26271,0.36571 -0.0805,0.0705 -0.29566,0.20349 -0.47789,0.29523 l -0.33151,0.16638 -0.33152,-0.16638 c -0.18222,-0.0917 -0.39906,-0.22643 -0.48205,-0.29941 -0.083,-0.0726 -0.1964,-0.22184 -0.25187,-0.33109 -0.0555,-0.10967 -0.11259,-0.30066 -0.12718,-0.42451 -0.0183,-0.15679 -0.005,-0.29899 0.0438,-0.46787 0.0567,-0.19391 0.11885,-0.29065 0.3115,-0.48331 0.17389,-0.17389 0.29732,-0.25812 0.44494,-0.30316 0.11259,-0.0346 0.28106,-0.0642 0.37447,-0.0659 z m 30.79712,24.57339 c 0.12885,0.01 0.31817,0.055 0.42075,0.1005 0.10258,0.045 0.2552,0.15095 0.33902,0.23477 0.0838,0.0838 0.19474,0.23143 0.24603,0.3286 0.0759,0.14261 0.0938,0.24311 0.0938,0.53042 0,0.28231 -0.0184,0.38823 -0.0892,0.52125 -0.0492,0.0917 -0.15971,0.23686 -0.24562,0.32234 -0.0859,0.0859 -0.24269,0.19766 -0.34819,0.24895 -0.14261,0.0692 -0.26688,0.0934 -0.48539,0.0934 -0.23644,0 -0.33902,-0.0221 -0.53084,-0.11593 -0.13052,-0.0638 -0.2944,-0.18556 -0.36404,-0.2698 -0.0696,-0.0847 -0.20183,-0.29857 -0.29398,-0.47538 l -0.16723,-0.32192 0.13178,-0.26188 c 0.0725,-0.14428 0.18599,-0.34069 0.25187,-0.4366 0.0655,-0.0959 0.18015,-0.21767 0.25395,-0.27021 0.0743,-0.053 0.22893,-0.12969 0.34403,-0.17097 0.14178,-0.0509 0.28481,-0.0692 0.44327,-0.0575 z m 15.75801,-26.43279 c -0.24061,-0.009 -0.52667,4.1e-4 -0.6355,0.02 -0.10842,0.02 -0.29608,0.0684 -0.417,0.10759 -0.12052,0.0392 -0.34362,0.13552 -0.4954,0.21434 -0.15137,0.0784 -0.38573,0.23143 -0.52,0.33985 -0.13428,0.10801 -0.33527,0.309 -0.44619,0.44578 -0.11051,0.13719 -0.27522,0.39948 -0.36572,0.58296 -0.0901,0.18348 -0.19598,0.45537 -0.23518,0.60465 -0.0476,0.18098 -0.0709,0.43035 -0.0705,0.7506 4.1e-4,0.32568 0.0241,0.56629 0.0738,0.7506 0.0404,0.14887 0.13719,0.40449 0.21517,0.56754 0.078,0.16305 0.24394,0.42659 0.36821,0.58588 0.12469,0.1593 0.32693,0.36613 0.44953,0.45954 0.12259,0.0934 0.30274,0.21934 0.40032,0.2798 l 0.17722,0.11009 v 12.1543 12.1543 l -4.36765,4.21212 -4.36766,4.21253 h -9.04928 -9.04932 l -8.24617,8.24617 -8.24618,8.24618 v 18.85757 18.85758 l -0.23977,0.1522 c -0.13178,0.0838 -0.33861,0.23602 -0.45912,0.33861 -0.12093,0.10258 -0.30149,0.30191 -0.40157,0.44327 -0.1005,0.14136 -0.23436,0.35987 -0.29816,0.48622 -0.0634,0.12593 -0.15137,0.34194 -0.19515,0.47955 -0.048,0.15012 -0.0892,0.43493 -0.10342,0.71307 -0.0179,0.35237 -0.007,0.54168 0.0475,0.7923 0.0392,0.1814 0.15346,0.49831 0.25354,0.70473 0.0997,0.20641 0.27564,0.48998 0.39031,0.6305 0.11468,0.14053 0.32693,0.34486 0.47163,0.45453 0.1447,0.10967 0.41325,0.2698 0.59673,0.3557 0.18348,0.0855 0.4687,0.18599 0.63384,0.22268 0.16513,0.0371 0.46537,0.0671 0.6672,0.0668 0.22267,0 0.50415,-0.0329 0.71599,-0.0838 0.19765,-0.0476 0.51207,-0.16806 0.72641,-0.27856 0.28106,-0.14553 0.45953,-0.27605 0.69639,-0.51041 0.17514,-0.17347 0.39615,-0.44661 0.49081,-0.60715 0.0947,-0.16055 0.22435,-0.44202 0.28856,-0.6255 l 0.11635,-0.3336 -8.3e-4,-0.6255 -8.2e-4,-0.6255 -0.10926,-0.32443 c -0.06,-0.17848 -0.1864,-0.45453 -0.28106,-0.61382 -0.0947,-0.15929 -0.27814,-0.40407 -0.4074,-0.54377 -0.12928,-0.13969 -0.38198,-0.34986 -0.5617,-0.46662 l -0.32653,-0.2127 V 326.55328 308.2645 l 7.45387,-7.45388 7.45346,-7.45429 9.04932,-8.3e-4 9.0489,-8.2e-4 5.17997,-4.99274 5.17956,-4.99274 0.002,-12.72309 10e-4,-12.72309 0.28148,-0.18056 c 0.15471,-0.0988 0.39949,-0.30107 0.54335,-0.44869 0.14428,-0.14803 0.33777,-0.39657 0.43076,-0.55294 0.093,-0.15638 0.21308,-0.412 0.26729,-0.56795 0.0542,-0.15638 0.11844,-0.40616 0.1422,-0.55503 0.0242,-0.14929 0.0442,-0.3678 0.0442,-0.48622 4.2e-4,-0.11843 -0.0267,-0.35696 -0.0596,-0.53001 -0.0334,-0.17306 -0.10633,-0.42868 -0.16263,-0.56795 -0.0563,-0.13928 -0.16513,-0.36029 -0.24227,-0.49123 -0.0767,-0.13094 -0.29024,-0.38906 -0.47413,-0.57296 -0.24312,-0.24311 -0.42576,-0.38197 -0.6672,-0.50707 -0.18307,-0.0947 -0.46413,-0.21267 -0.62467,-0.26229 -0.19433,-0.0605 -0.43827,-0.0959 -0.72975,-0.10676 z m -0.14303,1.8594 c 0.0934,-0.002 0.26479,0.0254 0.38155,0.06 0.13386,0.0396 0.28856,0.13178 0.41992,0.24979 0.11426,0.10258 0.25062,0.27605 0.30316,0.3853 0.0696,0.14512 0.0959,0.27689 0.0984,0.4904 0.003,0.23935 -0.0175,0.33443 -0.113,0.52875 -0.0638,0.13052 -0.18224,0.29482 -0.26271,0.36571 -0.0805,0.0705 -0.29566,0.2035 -0.47789,0.29524 l -0.33151,0.16638 -0.33152,-0.16638 c -0.18222,-0.0917 -0.3974,-0.22477 -0.47788,-0.29524 -0.0805,-0.0709 -0.19891,-0.23519 -0.26271,-0.36571 -0.0955,-0.19432 -0.11592,-0.2894 -0.113,-0.52875 0.002,-0.21351 0.0288,-0.34528 0.0984,-0.4904 0.0526,-0.10925 0.18933,-0.28272 0.304,-0.38572 0.1201,-0.108 0.29023,-0.21267 0.40157,-0.24686 0.10634,-0.0329 0.2698,-0.0609 0.36321,-0.0625 z m -42.97686,92.50853 c 0.19599,0.0993 0.42576,0.25229 0.51083,0.34027 0.0847,0.088 0.19224,0.24436 0.23852,0.34778 0.0592,0.13052 0.0851,0.27647 0.0855,0.47955 4.2e-4,0.21934 -0.0238,0.34402 -0.0976,0.50206 -0.0546,0.1176 -0.1839,0.28607 -0.29357,0.3824 -0.108,0.0951 -0.28272,0.20224 -0.38864,0.2381 -0.10634,0.0363 -0.2894,0.0659 -0.40741,0.0659 -0.11801,0 -0.30358,-0.0304 -0.41283,-0.0676 -0.1251,-0.0425 -0.27939,-0.14678 -0.417,-0.28147 -0.14845,-0.14512 -0.24144,-0.28023 -0.28856,-0.41951 -0.0388,-0.113 -0.0701,-0.3019 -0.0701,-0.41992 0,-0.11801 0.03,-0.30232 0.0667,-0.40991 0.0367,-0.10759 0.14428,-0.28064 0.23977,-0.38447 0.10759,-0.11759 0.3065,-0.25771 0.52542,-0.37113 l 0.35237,-0.18223 z m -15.5345,-88.23053 c -0.18181,-0.0117 -0.43326,-0.007 -0.55961,0.0113 -0.12593,0.0175 -0.34194,0.0646 -0.47955,0.10467 -0.13761,0.04 -0.40032,0.15012 -0.5838,0.24436 -0.25354,0.13052 -0.42409,0.26229 -0.71057,0.54877 -0.28898,0.28898 -0.41825,0.45703 -0.55377,0.71933 -0.0972,0.18848 -0.21393,0.48705 -0.25896,0.66344 -0.0567,0.22143 -0.0822,0.45829 -0.0817,0.7627 4.1e-4,0.24352 0.0288,0.56003 0.063,0.70556 0.0342,0.14512 0.103,0.36112 0.15304,0.47955 0.05,0.11843 0.15512,0.31775 0.23352,0.44244 0.0788,0.12468 0.21141,0.30858 0.29481,0.40866 0.0834,0.0997 0.25521,0.26229 0.38114,0.3607 0.12635,0.0988 0.309,0.22435 0.40616,0.27981 l 0.17681,0.10008 4.2e-4,6.5886 4.1e-4,6.58902 3.06495,3.06453 3.06495,3.06453 v 13.68427 13.68428 l -0.23977,0.13427 c -0.13177,0.0743 -0.3899,0.28773 -0.57338,0.47455 -0.18348,0.18723 -0.39656,0.44743 -0.47413,0.57796 -0.0771,0.13094 -0.19849,0.4024 -0.27021,0.6034 l -0.12969,0.36529 v 0.60465 0.60465 l 0.12969,0.36529 c 0.0717,0.201 0.19307,0.47288 0.27021,0.60423 0.0776,0.13136 0.30024,0.3999 0.49498,0.59715 0.29691,0.30024 0.41909,0.39031 0.7506,0.55294 0.21809,0.10675 0.50749,0.22227 0.64343,0.25687 0.13595,0.0342 0.38906,0.0738 0.56295,0.088 0.20975,0.0171 0.44244,0.004 0.69389,-0.0401 0.20809,-0.0363 0.50832,-0.11885 0.6672,-0.18348 0.15888,-0.0647 0.40157,-0.19432 0.53918,-0.28814 0.13761,-0.0938 0.35946,-0.28231 0.4929,-0.41867 0.13344,-0.13678 0.2798,-0.30316 0.32526,-0.36988 0.0455,-0.0671 0.14887,-0.25062 0.22935,-0.40783 0.0809,-0.15762 0.18306,-0.42784 0.22726,-0.60089 0.055,-0.21476 0.0805,-0.45662 0.0805,-0.7602 0,-0.30649 -0.0254,-0.54543 -0.0822,-0.76644 -0.045,-0.1764 -0.16221,-0.47496 -0.25979,-0.66345 -0.12218,-0.23519 -0.27814,-0.4466 -0.49873,-0.67595 -0.17639,-0.18349 -0.44327,-0.40866 -0.59339,-0.50041 l -0.27272,-0.16679 -0.001,-14.26141 -0.002,-14.26181 -3.06495,-3.06454 -3.06495,-3.06453 10e-4,-6.00522 8.3e-4,-6.0048 0.29565,-0.18765 c 0.16221,-0.10341 0.41992,-0.32025 0.57212,-0.48205 0.15221,-0.16179 0.33986,-0.40115 0.41742,-0.53126 0.0772,-0.1301 0.19641,-0.40032 0.26521,-0.60006 0.0951,-0.27564 0.13052,-0.46537 0.1472,-0.7873 0.0129,-0.26062 8.3e-4,-0.53501 -0.0317,-0.71098 -0.0288,-0.15804 -0.0972,-0.40658 -0.15137,-0.55253 -0.0546,-0.14595 -0.16597,-0.37571 -0.2477,-0.51082 -0.0817,-0.13469 -0.24436,-0.34945 -0.36112,-0.47705 -0.11634,-0.1276 -0.3261,-0.31317 -0.46621,-0.41199 -0.13969,-0.0992 -0.35445,-0.23061 -0.47705,-0.29232 -0.12259,-0.0613 -0.35862,-0.14637 -0.52458,-0.1889 -0.16597,-0.0425 -0.45036,-0.0867 -0.63176,-0.0984 z m -0.0817,1.87483 c 0.11384,0.0117 0.29607,0.0592 0.40491,0.10634 0.10925,0.0467 0.28064,0.17347 0.38155,0.28106 0.11301,0.12093 0.21101,0.28022 0.25688,0.41825 0.0525,0.15804 0.068,0.29815 0.053,0.48288 -0.0142,0.17723 -0.0588,0.33027 -0.13844,0.47705 -0.0651,0.11885 -0.18473,0.26897 -0.26605,0.3336 -0.0813,0.0646 -0.28939,0.18723 -0.46245,0.27272 l -0.31442,0.15554 -0.34027,-0.17097 c -0.18723,-0.0938 -0.40532,-0.22851 -0.48539,-0.29857 -0.0801,-0.0701 -0.19348,-0.22435 -0.25228,-0.34236 -0.083,-0.16596 -0.10717,-0.27814 -0.10717,-0.49248 0,-0.15262 0.0217,-0.3411 0.0484,-0.41908 0.0267,-0.078 0.10091,-0.21893 0.16513,-0.31358 0.0642,-0.0942 0.20725,-0.22977 0.31817,-0.30108 0.11092,-0.0713 0.27605,-0.14762 0.36696,-0.17013 0.0905,-0.0225 0.2577,-0.0309 0.37155,-0.0192 z m 6.0415,52.0587 c 0.0192,-7.5e-4 0.20266,0.0851 0.40741,0.19099 0.23518,0.12176 0.4245,0.25353 0.51499,0.35945 0.0788,0.0917 0.17222,0.2527 0.20808,0.35695 0.0355,0.10467 0.0646,0.29732 0.0646,0.42784 0,0.13094 -0.0284,0.31818 -0.063,0.41658 -0.035,0.0984 -0.12885,0.25896 -0.20892,0.35696 -0.0863,0.10467 -0.24436,0.22601 -0.38531,0.29524 -0.19515,0.0959 -0.29356,0.11717 -0.53125,0.11592 -0.21476,-0.001 -0.34278,-0.0263 -0.48497,-0.0951 -0.10592,-0.0513 -0.26105,-0.15972 -0.34445,-0.24061 -0.083,-0.0809 -0.19307,-0.2256 -0.24436,-0.32193 -0.0751,-0.14136 -0.093,-0.24269 -0.093,-0.52917 0,-0.28731 0.0179,-0.38781 0.0938,-0.53042 0.0513,-0.0972 0.15595,-0.23853 0.23185,-0.31484 0.0763,-0.0759 0.28731,-0.21684 0.46912,-0.31234 0.1814,-0.0959 0.34611,-0.17471 0.3653,-0.17555 z m 71.70982,-51.76596 c -0.1718,-0.0104 -0.36904,-0.0113 -0.43785,-0.002 -0.0688,0.009 -0.2281,0.0375 -0.35445,0.063 -0.12593,0.025 -0.35111,0.0938 -0.5004,0.15262 -0.14887,0.0584 -0.38614,0.17889 -0.52667,0.2673 -0.14053,0.0884 -0.39407,0.30607 -0.56378,0.4833 -0.20517,0.21559 -0.36697,0.4366 -0.48581,0.66511 -0.0976,0.18849 -0.21601,0.48873 -0.26229,0.6672 -0.0554,0.21309 -0.0859,0.46913 -0.0888,0.74393 -0.002,0.27439 0.0221,0.52459 0.0709,0.72433 l 0.0746,0.30441 -2.73678,2.73719 -2.73718,2.7376 v 6.1295 6.1299 l -3.88852,3.88769 -3.88853,3.88769 -0.2502,-0.0696 c -0.16597,-0.0463 -0.41116,-0.0701 -0.72975,-0.0705 -0.37363,-4.1e-4 -0.55294,0.0204 -0.81106,0.0938 -0.18265,0.0517 -0.45704,0.15971 -0.60966,0.24019 -0.15262,0.0801 -0.38781,0.23436 -0.52208,0.34278 -0.13428,0.108 -0.33319,0.30691 -0.44119,0.44118 -0.10842,0.13428 -0.26271,0.36946 -0.34277,0.52209 -0.0805,0.15262 -0.18849,0.427 -0.24061,0.60965 -0.0743,0.26062 -0.0938,0.4341 -0.0922,0.81106 0.002,0.31692 0.0263,0.57171 0.0738,0.7506 0.0396,0.14887 0.1447,0.42117 0.2331,0.60465 0.0888,0.18348 0.26355,0.45704 0.38823,0.60757 0.1251,0.15054 0.34695,0.36446 0.4929,0.47538 0.14637,0.11093 0.3974,0.26271 0.55794,0.33736 0.16055,0.0751 0.41409,0.1693 0.56295,0.21016 0.18515,0.0505 0.42284,0.0742 0.7506,0.0746 0.37405,8.3e-4 0.55253,-0.02 0.81107,-0.0934 0.18265,-0.0517 0.45703,-0.15971 0.60965,-0.2402 0.15263,-0.0801 0.38781,-0.23435 0.52208,-0.34277 0.13428,-0.108 0.33319,-0.30691 0.44119,-0.44119 0.10842,-0.13427 0.26271,-0.36946 0.34277,-0.52208 0.0805,-0.15262 0.18849,-0.42701 0.2402,-0.60965 0.0734,-0.25813 0.0942,-0.43744 0.0938,-0.81107 -4.2e-4,-0.31859 -0.0242,-0.56378 -0.0705,-0.72975 l -0.0697,-0.2502 4.27341,-4.27425 4.27342,-4.27425 v -6.15117 -6.15075 l 2.34563,-2.34312 2.34562,-2.34312 0.22935,0.0626 c 0.12636,0.0342 0.39907,0.0734 0.60632,0.0867 0.2723,0.0175 0.47371,0.005 0.72683,-0.0467 0.19307,-0.0392 0.46329,-0.11718 0.6009,-0.17305 0.13761,-0.0559 0.36404,-0.17598 0.5029,-0.26647 0.13886,-0.0905 0.3678,-0.28272 0.50833,-0.427 0.14052,-0.14429 0.32358,-0.36571 0.40698,-0.49165 0.0838,-0.12635 0.20601,-0.37029 0.27231,-0.5421 0.0659,-0.17222 0.14345,-0.45911 0.17222,-0.63801 0.0304,-0.1914 0.0417,-0.47454 0.0275,-0.68805 -0.0134,-0.19932 -0.065,-0.49414 -0.11426,-0.65469 -0.0496,-0.16054 -0.15512,-0.41616 -0.23435,-0.56795 -0.0792,-0.15137 -0.23269,-0.38573 -0.34111,-0.52 -0.108,-0.13427 -0.30899,-0.33527 -0.44577,-0.44661 -0.1372,-0.11092 -0.39949,-0.2748 -0.58297,-0.36404 -0.18348,-0.0892 -0.45536,-0.19015 -0.60465,-0.22434 -0.14886,-0.0342 -0.41157,-0.0705 -0.5838,-0.0813 z m -0.0417,1.87858 c 0.10342,0.0125 0.27731,0.0605 0.38698,0.10675 0.11926,0.0505 0.27397,0.16722 0.3853,0.29107 0.11718,0.13052 0.20933,0.28523 0.24895,0.41909 0.0346,0.11676 0.063,0.29231 0.063,0.39031 0,0.0984 -0.0371,0.27772 -0.0826,0.39907 -0.0454,0.12134 -0.13719,0.28689 -0.20391,0.36779 -0.0671,0.0813 -0.21976,0.20099 -0.33944,0.26605 -0.14804,0.0805 -0.2994,0.12468 -0.47329,0.13802 -0.20808,0.0163 -0.33068,-0.004 -0.65386,-0.10842 l -0.3974,-0.12843 -0.11884,-0.36404 c -0.0701,-0.21518 -0.11759,-0.4512 -0.11635,-0.57755 7.5e-4,-0.11759 0.0217,-0.28773 0.0459,-0.3778 0.0246,-0.0905 0.10175,-0.24228 0.17181,-0.33777 0.0701,-0.0955 0.21392,-0.2306 0.31984,-0.30066 0.1055,-0.07 0.25979,-0.13844 0.34235,-0.1522 0.083,-0.0138 0.1693,-0.0317 0.19224,-0.0396 0.023,-0.008 0.12635,-0.005 0.22935,0.008 z m -17.28465,29.41352 c 0.0688,-0.002 0.31609,0.0555 0.54961,0.12843 l 0.4245,0.13177 0.1176,0.35904 c 0.0834,0.25437 0.11634,0.43743 0.11384,0.62967 -0.002,0.20433 -0.03,0.32318 -0.11135,0.48205 -0.0593,0.11635 -0.18389,0.28023 -0.27688,0.36404 -0.093,0.0842 -0.23978,0.18432 -0.32651,0.22268 -0.0997,0.0442 -0.27147,0.0705 -0.46996,0.0717 -0.25812,0.001 -0.34903,-0.0171 -0.52125,-0.10717 -0.11468,-0.0596 -0.26855,-0.17097 -0.34194,-0.24769 -0.0734,-0.0767 -0.17597,-0.23311 -0.22768,-0.34778 -0.0676,-0.14804 -0.0947,-0.2869 -0.0947,-0.47955 0,-0.19266 0.0271,-0.33152 0.0947,-0.47955 0.0517,-0.11468 0.15428,-0.27105 0.22768,-0.34778 0.0734,-0.0763 0.18974,-0.16847 0.25854,-0.20475 0.0688,-0.0363 0.20016,-0.0901 0.2919,-0.11884 0.0917,-0.0292 0.2231,-0.0546 0.2919,-0.0563 z m -72.8424,-24.26482 c -0.073,0.004 -0.1985,0.0142 -0.27856,0.0234 -0.0801,0.009 -0.26271,0.0434 -0.40574,0.0759 -0.14303,0.0325 -0.38406,0.11551 -0.53585,0.18431 -0.15178,0.0688 -0.39114,0.20767 -0.53251,0.30858 -0.14094,0.1005 -0.34485,0.27731 -0.45244,0.39282 -0.108,0.11551 -0.26104,0.31108 -0.34027,0.43493 -0.0788,0.12385 -0.19099,0.33735 -0.24895,0.47496 -0.058,0.13761 -0.13761,0.40825 -0.17639,0.6009 -0.0513,0.25354 -0.0651,0.46704 -0.0496,0.77145 0.0163,0.31859 0.0517,0.50916 0.14678,0.78396 0.0688,0.19974 0.18807,0.47038 0.26521,0.60131 0.0776,0.13052 0.29065,0.39073 0.47413,0.57797 0.18348,0.18681 0.44161,0.40032 0.57338,0.47454 l 0.23977,0.13428 v 1.96615 1.96616 l 2.73844,2.73885 2.73844,2.73886 -0.0696,0.31692 c -0.0384,0.1743 -0.0696,0.48664 -0.0696,0.69347 0,0.20683 0.0296,0.51124 0.0659,0.67637 0.0367,0.16513 0.15096,0.47705 0.25479,0.69306 0.16138,0.33652 0.24269,0.4466 0.56962,0.77145 0.20975,0.20808 0.48789,0.44077 0.618,0.51708 0.12968,0.0763 0.37154,0.18556 0.53751,0.24311 0.16555,0.058 0.46621,0.12593 0.66762,0.15137 0.27063,0.0342 0.4587,0.0338 0.72182,-0.002 0.19558,-0.0258 0.48914,-0.0938 0.65303,-0.15096 0.16346,-0.0567 0.40365,-0.16554 0.53334,-0.24185 0.1301,-0.0763 0.40699,-0.30775 0.61549,-0.515 0.30858,-0.30608 0.41158,-0.44244 0.55294,-0.72975 0.0955,-0.19432 0.211,-0.50165 0.25687,-0.68305 0.0546,-0.21684 0.083,-0.46829 0.083,-0.7335 0,-0.26438 -0.0288,-0.5175 -0.083,-0.7335 -0.0455,-0.1814 -0.16137,-0.48664 -0.2577,-0.67846 -0.12093,-0.24103 -0.27022,-0.44994 -0.48372,-0.67721 -0.17806,-0.18932 -0.43535,-0.40616 -0.60757,-0.51249 -0.1643,-0.10092 -0.43034,-0.23102 -0.59172,-0.28815 -0.16097,-0.0571 -0.44244,-0.12677 -0.6255,-0.15471 -0.19182,-0.0292 -0.4587,-0.0392 -0.63134,-0.0238 -0.16472,0.015 -0.40783,0.0555 -0.54043,0.0901 l -0.24103,0.0626 -2.32686,-2.32644 -2.32645,-2.32605 v -1.42239 -1.4228 l 0.25896,-0.15971 c 0.14219,-0.088 0.37238,-0.27356 0.51082,-0.41242 0.13845,-0.13886 0.32651,-0.36529 0.41784,-0.5029 0.0909,-0.13761 0.22684,-0.41241 0.30107,-0.61049 0.0838,-0.22226 0.15179,-0.5029 0.17806,-0.73434 0.0275,-0.24352 0.0288,-0.48121 0.002,-0.68221 -0.0217,-0.1693 -0.0705,-0.41158 -0.108,-0.53751 -0.0375,-0.12635 -0.14595,-0.37947 -0.24061,-0.56295 -0.11467,-0.22143 -0.27689,-0.44285 -0.48247,-0.65803 -0.17013,-0.17847 -0.44243,-0.40657 -0.60506,-0.50665 -0.16263,-0.10008 -0.4291,-0.22977 -0.59214,-0.28773 -0.16305,-0.058 -0.44119,-0.12552 -0.618,-0.15012 -0.17681,-0.0246 -0.38114,-0.0417 -0.45411,-0.038 z m 0.15929,1.89443 c 0.11468,0.0113 0.30691,0.068 0.42701,0.12594 0.12385,0.0596 0.28147,0.18223 0.36446,0.28314 0.0801,0.098 0.17555,0.26104 0.21225,0.36237 0.0363,0.10092 0.0663,0.30274 0.0659,0.44828 0,0.20016 -0.0267,0.31817 -0.10926,0.48705 -0.0596,0.1226 -0.17472,0.28064 -0.2552,0.35154 -0.0805,0.0705 -0.30024,0.20558 -0.48831,0.30023 l -0.34194,0.17181 -0.34861,-0.17848 c -0.19182,-0.0984 -0.41241,-0.24227 -0.48998,-0.31942 -0.0776,-0.0776 -0.18097,-0.21976 -0.23018,-0.31609 -0.0492,-0.0963 -0.0984,-0.28939 -0.10967,-0.43076 -0.0142,-0.17639 10e-4,-0.32192 0.0496,-0.46704 0.0384,-0.11634 0.14637,-0.29773 0.23977,-0.40365 0.093,-0.10592 0.24186,-0.22977 0.33069,-0.27481 0.0884,-0.0455 0.23143,-0.10007 0.31775,-0.12134 0.0867,-0.0213 0.25103,-0.03 0.36571,-0.0188 z m 7.01894,13.1747 c 0.12218,0.0117 0.28815,0.0488 0.36863,0.0822 0.0805,0.0338 0.21642,0.11634 0.30149,0.1839 0.0851,0.0675 0.2085,0.22142 0.27397,0.34194 0.0901,0.16555 0.12427,0.29273 0.13886,0.51958 0.0163,0.25645 0.004,0.33318 -0.0838,0.52417 -0.0563,0.12301 -0.15346,0.28356 -0.21559,0.35695 -0.0617,0.0734 -0.21142,0.18181 -0.33235,0.24061 -0.12052,0.0592 -0.31359,0.11884 -0.42868,0.13219 -0.13803,0.0167 -0.2894,0.002 -0.44327,-0.0429 -0.12844,-0.0371 -0.31442,-0.12969 -0.41325,-0.20475 -0.11425,-0.0876 -0.22893,-0.23269 -0.31525,-0.39949 -0.11134,-0.21517 -0.13552,-0.30899 -0.13427,-0.51958 10e-4,-0.16221 0.0442,-0.38698 0.11634,-0.61049 l 0.11468,-0.35403 0.20683,-0.0767 c 0.11384,-0.0425 0.30065,-0.10341 0.41533,-0.13594 0.1226,-0.0346 0.30024,-0.05 0.43034,-0.0375 z m 94.68736,-7.52143 c -0.11467,0.002 -0.32026,0.0196 -0.45704,0.0396 -0.13677,0.02 -0.34318,0.0671 -0.45869,0.10466 -0.11551,0.0371 -0.36029,0.1447 -0.54377,0.23853 -0.25228,0.12885 -0.42034,0.25729 -0.68805,0.52709 -0.19474,0.19599 -0.41742,0.4637 -0.49498,0.59505 -0.0771,0.13136 -0.19849,0.40324 -0.27021,0.60424 l -0.12969,0.36529 0.002,0.60465 c 10e-4,0.42951 0.0208,0.66053 0.0667,0.79772 l 0.0642,0.19349 -11.18037,11.18019 -11.1806,11.1806 h -14.595 -14.595 l -6.30713,6.30712 -6.30712,6.30713 v 25.00582 25.00541 l -0.18765,0.10967 c -0.103,0.0604 -0.30149,0.20516 -0.44077,0.32108 -0.13928,0.11593 -0.3386,0.32652 -0.44244,0.46747 -0.10425,0.14094 -0.24144,0.35945 -0.30482,0.4858 -0.0638,0.12593 -0.1568,0.3607 -0.20642,0.52125 -0.05,0.16221 -0.10091,0.46829 -0.11467,0.68888 -0.0179,0.2919 -0.005,0.49081 0.0471,0.7506 0.0396,0.19433 0.11176,0.44744 0.16054,0.56212 0.0488,0.11468 0.15304,0.32109 0.23227,0.4587 0.0792,0.13761 0.29566,0.40074 0.48122,0.58463 0.24395,0.24145 0.43076,0.38281 0.67137,0.50666 0.18348,0.0947 0.46496,0.21225 0.62508,0.26146 0.16055,0.0492 0.46079,0.10049 0.6672,0.11384 0.25854,0.0163 0.48247,0.004 0.71683,-0.0409 0.18765,-0.0355 0.45536,-0.11091 0.59547,-0.16763 0.1397,-0.0563 0.35987,-0.16555 0.48914,-0.24269 0.12927,-0.0767 0.36947,-0.27105 0.53293,-0.4316 0.16388,-0.16054 0.37822,-0.427 0.47621,-0.59172 0.098,-0.16513 0.22268,-0.43201 0.27731,-0.59339 0.0546,-0.16138 0.12051,-0.45328 0.14637,-0.64886 0.0354,-0.26562 0.0354,-0.44576 -4.2e-4,-0.71473 -0.0263,-0.19724 -0.10133,-0.5054 -0.1668,-0.68471 -0.0651,-0.1789 -0.20225,-0.45495 -0.30441,-0.61258 -0.10217,-0.15804 -0.28565,-0.38739 -0.40824,-0.50957 -0.12218,-0.1226 -0.35028,-0.30524 -0.50624,-0.40616 l -0.28398,-0.18389 v -24.44454 -24.44454 l 5.51483,-5.51483 5.51482,-5.51482 h 14.57415 14.57415 l 11.573,-11.573 11.57342,-11.57342 0.2698,0.0726 c 0.18306,0.0492 0.42325,0.0721 0.74893,0.0717 0.32568,-4.2e-4 0.56629,-0.0242 0.7506,-0.0738 0.14929,-0.0404 0.40615,-0.13803 0.57129,-0.21726 0.16513,-0.0788 0.41866,-0.23769 0.56295,-0.35236 0.1447,-0.11509 0.35278,-0.3165 0.46287,-0.44786 0.10967,-0.13135 0.28189,-0.40157 0.38197,-0.6009 0.1005,-0.19932 0.21476,-0.50665 0.25396,-0.68304 0.055,-0.24687 0.0663,-0.43744 0.0492,-0.82608 -0.0158,-0.36279 -0.0479,-0.58213 -0.11342,-0.77645 -0.0505,-0.14887 -0.15888,-0.39991 -0.24102,-0.55711 -0.0855,-0.16347 -0.28148,-0.42618 -0.45704,-0.61258 -0.16889,-0.17973 -0.43034,-0.40449 -0.58088,-0.49956 -0.15053,-0.0951 -0.39865,-0.22018 -0.55044,-0.27814 -0.15221,-0.0575 -0.41741,-0.13052 -0.58964,-0.16138 -0.1718,-0.0313 -0.40657,-0.055 -0.52125,-0.053 z m 0.0967,1.89193 c 0.12218,0.0117 0.28815,0.0488 0.36863,0.0822 0.0805,0.0338 0.21893,0.11843 0.30733,0.18848 0.0934,0.0738 0.21392,0.23436 0.28814,0.38281 0.10092,0.20183 0.12761,0.309 0.12761,0.51208 0,0.14136 -0.0292,0.34277 -0.0647,0.44744 -0.0358,0.10425 -0.1301,0.26604 -0.20975,0.35903 -0.0797,0.093 -0.24645,0.21893 -0.37071,0.27981 -0.13512,0.0659 -0.32318,0.11801 -0.46788,0.12927 -0.19724,0.015 -0.31567,-0.007 -0.63759,-0.11843 l -0.39488,-0.13719 -0.11635,-0.35445 c -0.0938,-0.28523 -0.11343,-0.41158 -0.10175,-0.64635 0.01,-0.19474 0.0446,-0.34736 0.10425,-0.4587 0.0488,-0.0917 0.12218,-0.20475 0.16305,-0.25145 0.0404,-0.0463 0.14553,-0.13845 0.2331,-0.20517 0.0876,-0.0663 0.24729,-0.14553 0.35445,-0.17555 0.1101,-0.0309 0.2919,-0.0454 0.417,-0.0338 z m -65.80468,88.59248 c 0.006,-0.001 0.16013,0.0725 0.34194,0.1643 0.18181,0.0913 0.39657,0.22394 0.47705,0.29441 0.0805,0.0709 0.19807,0.23393 0.26104,0.36279 0.0897,0.1839 0.11426,0.29273 0.11342,0.5079 -8.2e-4,0.19182 -0.0288,0.33652 -0.0942,0.48247 -0.0513,0.11468 -0.15304,0.27105 -0.22643,0.34777 -0.0734,0.0767 -0.22143,0.18433 -0.3286,0.23895 -0.10758,0.0551 -0.2969,0.11176 -0.42075,0.12635 -0.15679,0.0184 -0.29899,0.005 -0.46787,-0.0438 -0.19391,-0.0567 -0.29065,-0.11884 -0.48247,-0.31066 -0.1839,-0.1839 -0.25604,-0.29274 -0.3065,-0.4633 -0.0363,-0.12301 -0.0663,-0.29147 -0.0663,-0.37487 0,-0.0834 0.0279,-0.24603 0.0625,-0.36154 0.0367,-0.12427 0.13261,-0.29024 0.23477,-0.40616 0.1176,-0.13344 0.28732,-0.25479 0.5321,-0.37947 0.19724,-0.1005 0.36404,-0.1839 0.37029,-0.18515 z m -9.39376,-89.69586 c -0.27355,0.001 -0.52292,0.0292 -0.72516,0.0822 -0.1693,0.0446 -0.407,0.12635 -0.52834,0.18181 -0.12093,0.0555 -0.3311,0.17597 -0.46704,0.26855 -0.13594,0.0922 -0.36988,0.30024 -0.52,0.46245 -0.15679,0.16972 -0.34528,0.43368 -0.44244,0.6205 -0.093,0.17889 -0.211,0.47454 -0.26146,0.65677 -0.0696,0.24937 -0.0922,0.44411 -0.0922,0.7898 0,0.34569 0.0225,0.54043 0.0922,0.7898 0.0505,0.18223 0.17014,0.48247 0.26563,0.6672 0.13011,0.25187 0.26313,0.42492 0.52959,0.69055 0.19599,0.19516 0.4783,0.42534 0.62717,0.51208 0.14929,0.0863 0.42117,0.20599 0.60465,0.26563 0.23978,0.078 0.45703,0.11425 0.77312,0.12926 0.32109,0.015 0.53918,8.3e-4 0.80731,-0.0525 l 0.36779,-0.073 0.80857,0.80773 0.80856,0.80773 v 2.48199 2.48198 l -0.82358,0.82232 -0.82357,0.82191 -0.2502,-0.0692 c -0.16722,-0.0467 -0.40949,-0.0696 -0.72975,-0.0696 -0.32985,0 -0.5642,0.0234 -0.7506,0.0742 -0.14887,0.0409 -0.40241,0.1351 -0.56295,0.21016 -0.16055,0.0747 -0.40824,0.22393 -0.55086,0.33194 -0.14219,0.108 -0.35194,0.30774 -0.46579,0.4441 -0.11425,0.13636 -0.26563,0.35028 -0.33735,0.47497 -0.0713,0.12468 -0.17556,0.36195 -0.23185,0.5275 -0.0563,0.16513 -0.12177,0.45703 -0.14553,0.64885 -0.03,0.2427 -0.03,0.45578 8.2e-4,0.7039 0.0246,0.19557 0.0926,0.49122 0.15137,0.65677 0.0588,0.16555 0.15513,0.38531 0.21392,0.48873 0.0588,0.103 0.19307,0.29815 0.29816,0.43326 0.1055,0.13469 0.32067,0.34653 0.47871,0.47038 0.15805,0.12343 0.42076,0.28856 0.5838,0.36654 0.16305,0.078 0.41867,0.17472 0.56754,0.21517 0.18431,0.0496 0.42492,0.0734 0.7506,0.0738 0.31942,4.2e-4 0.57004,-0.0229 0.7506,-0.0705 0.14929,-0.0392 0.44911,-0.15846 0.6672,-0.26563 0.3286,-0.16138 0.45703,-0.2552 0.75435,-0.55294 0.30733,-0.30733 0.38907,-0.42076 0.57254,-0.79564 0.14512,-0.29607 0.23686,-0.55127 0.28315,-0.79021 0.0492,-0.25187 0.0626,-0.46704 0.0455,-0.7506 -0.0129,-0.21893 -0.0525,-0.49165 -0.088,-0.60632 l -0.065,-0.2085 1.20888,-1.20972 1.20846,-1.2093 v -3.64875 -3.64875 l -1.20221,-1.20179 -1.20262,-1.2018 0.0621,-0.216 c 0.0384,-0.13469 0.063,-0.41158 0.065,-0.73684 0.002,-0.37322 -0.0171,-0.5984 -0.0688,-0.7923 -0.04,-0.14887 -0.14679,-0.42117 -0.23728,-0.60465 -0.0905,-0.18348 -0.26146,-0.45078 -0.37988,-0.59423 -0.11843,-0.14344 -0.33068,-0.34819 -0.47121,-0.45453 -0.14053,-0.10633 -0.40575,-0.26563 -0.58923,-0.35445 -0.18347,-0.0884 -0.46495,-0.18848 -0.6255,-0.22226 -0.16054,-0.0342 -0.47955,-0.0613 -0.7089,-0.0605 z m 0.003,1.874 c 0.13928,-4.2e-4 0.33903,0.0288 0.44369,0.0642 0.10425,0.0359 0.26313,0.1276 0.35278,0.20433 0.0892,0.0763 0.21393,0.23394 0.27689,0.34986 0.0776,0.14178 0.12177,0.29607 0.13595,0.47372 0.0179,0.22309 4.1e-4,0.32192 -0.11593,0.65635 l -0.1372,0.39324 -0.35445,0.12009 c -0.29315,0.0997 -0.40491,0.11718 -0.64635,0.10342 -0.18848,-0.0113 -0.35403,-0.0492 -0.46662,-0.10675 -0.0963,-0.0496 -0.2402,-0.15721 -0.32026,-0.23936 -0.0801,-0.0822 -0.18682,-0.23727 -0.23769,-0.34444 -0.0684,-0.14345 -0.0926,-0.27147 -0.0926,-0.48664 0,-0.21934 0.0242,-0.34277 0.0967,-0.49581 0.0534,-0.11259 0.16221,-0.26939 0.24186,-0.34903 0.0792,-0.0797 0.24019,-0.18932 0.35737,-0.24353 0.1497,-0.0701 0.28731,-0.0992 0.46579,-0.0997 z m 0.0926,14.06958 c 0.12135,0.0104 0.36988,0.0684 0.55169,0.12927 l 0.33068,0.11009 0.12635,0.39364 c 0.0692,0.21643 0.12594,0.46496 0.12594,0.55211 0,0.0872 -0.0284,0.25395 -0.063,0.37071 -0.04,0.13428 -0.13178,0.28857 -0.25104,0.42117 -0.10341,0.1151 -0.26771,0.2477 -0.36446,0.29399 -0.0972,0.0463 -0.2723,0.0972 -0.38947,0.11217 -0.14637,0.0188 -0.28648,0.006 -0.44578,-0.04 -0.1276,-0.0371 -0.31275,-0.12886 -0.41116,-0.20392 -0.0984,-0.0751 -0.23102,-0.22059 -0.29398,-0.32275 -0.0634,-0.10259 -0.13344,-0.28482 -0.15638,-0.40533 -0.0271,-0.1447 -0.0271,-0.29315 0,-0.43785 0.0229,-0.12051 0.0926,-0.30149 0.15554,-0.4024 0.0625,-0.10092 0.18348,-0.23978 0.26813,-0.30817 0.0851,-0.0684 0.25396,-0.16012 0.3753,-0.20349 0.15221,-0.0542 0.28982,-0.0726 0.44161,-0.0592 z m -30.6616,-9.79783 c -0.29524,-0.0109 -0.55753,0.004 -0.73559,0.0413 -0.15262,0.0321 -0.40741,0.11259 -0.56628,0.17973 -0.15846,0.0667 -0.39449,0.19141 -0.52417,0.27731 -0.12927,0.0859 -0.37655,0.30649 -0.54878,0.48955 -0.22059,0.23478 -0.3632,0.43452 -0.48121,0.67471 -0.0926,0.18765 -0.20767,0.49998 -0.25646,0.69431 -0.073,0.29315 -0.0847,0.43534 -0.0675,0.834 0.0159,0.37196 0.0463,0.55627 0.13302,0.8144 0.0617,0.18348 0.18598,0.4587 0.27606,0.61132 0.0901,0.15262 0.26104,0.38364 0.37947,0.51333 0.11842,0.12968 0.33235,0.31942 0.47579,0.42158 0.14345,0.10217 0.38448,0.24228 0.53627,0.31108 0.15178,0.0688 0.4024,0.15513 0.55669,0.19182 0.16221,0.0388 0.45662,0.0667 0.69764,0.0663 0.23769,-4.2e-4 0.54168,-0.0305 0.70723,-0.0692 l 0.29065,-0.0684 5.32843,5.32842 5.32884,5.32884 v 9.2157 9.2157 l 4.94145,4.94145 4.94145,4.94145 v 16.76966 16.77007 l -0.23977,0.13428 c -0.13178,0.0738 -0.39365,0.29064 -0.58172,0.48246 -0.27313,0.27856 -0.37947,0.42618 -0.53126,0.73517 -0.10466,0.21267 -0.22184,0.50833 -0.26104,0.65761 -0.0475,0.18056 -0.0709,0.43118 -0.0705,0.7506 4.2e-4,0.32443 0.0242,0.56712 0.0738,0.7506 0.04,0.14887 0.14595,0.42117 0.23477,0.60465 0.0888,0.18348 0.25645,0.44786 0.37196,0.58755 0.11551,0.1397 0.31818,0.33819 0.45036,0.44161 0.13261,0.103 0.32526,0.23561 0.42826,0.2944 0.10342,0.0588 0.32318,0.15513 0.48873,0.21392 0.16555,0.0588 0.46162,0.12677 0.65719,0.15137 0.24353,0.03 0.46162,0.0308 0.68888,0.002 0.18265,-0.0229 0.4758,-0.0901 0.65136,-0.14887 0.17597,-0.0588 0.40574,-0.15679 0.51166,-0.21725 0.10591,-0.0605 0.31024,-0.20434 0.45453,-0.31984 0.14428,-0.1151 0.35653,-0.33194 0.47204,-0.48122 0.11509,-0.14929 0.27314,-0.40407 0.35111,-0.56587 0.078,-0.1618 0.17389,-0.42492 0.21309,-0.58505 0.045,-0.18306 0.0717,-0.46037 0.0726,-0.74935 8.2e-4,-0.35028 -0.0208,-0.53585 -0.0913,-0.78438 -0.0509,-0.17889 -0.14136,-0.42284 -0.20099,-0.5421 -0.06,-0.11885 -0.19057,-0.33193 -0.29065,-0.47288 -0.10008,-0.14136 -0.29023,-0.35403 -0.42242,-0.47329 -0.13219,-0.11885 -0.33902,-0.27272 -0.45954,-0.34152 l -0.21892,-0.1251 V 343.0685 325.7359 l -4.9623,-4.9623 -4.9623,-4.9623 v -9.21544 -9.2157 l -5.71749,-5.71749 -5.71748,-5.7179 0.0671,-0.29524 c 0.0371,-0.1643 0.0671,-0.47871 0.0671,-0.70806 0,-0.27105 -0.0275,-0.52042 -0.0805,-0.72725 -0.0442,-0.17306 -0.14553,-0.44327 -0.22476,-0.6009 -0.0792,-0.15721 -0.23311,-0.40449 -0.34194,-0.54919 -0.10842,-0.1447 -0.31234,-0.3557 -0.45203,-0.46912 -0.14011,-0.11343 -0.37697,-0.2698 -0.52667,-0.34778 -0.14929,-0.078 -0.40282,-0.18265 -0.56337,-0.23227 -0.19891,-0.0617 -0.43827,-0.0959 -0.7506,-0.10758 z m -0.0625,1.87149 c 0.18515,0.0109 0.33819,0.0496 0.4833,0.12343 0.11676,0.0592 0.27105,0.17473 0.34319,0.25688 0.0722,0.0821 0.16263,0.20975 0.20141,0.28397 0.0409,0.0788 0.0772,0.26605 0.0872,0.44786 0.0138,0.26354 -0.002,0.36821 -0.10383,0.66428 l -0.12052,0.35153 -0.35153,0.12051 c -0.22977,0.0792 -0.4391,0.12135 -0.60465,0.12302 -0.17305,10e-4 -0.31859,-0.0267 -0.4587,-0.0884 -0.11301,-0.05 -0.27772,-0.16013 -0.36529,-0.2452 -0.088,-0.0847 -0.19891,-0.22935 -0.24603,-0.32109 -0.0509,-0.098 -0.0947,-0.28064 -0.10592,-0.44244 -0.0113,-0.15387 0.001,-0.33985 0.0279,-0.42117 0.0267,-0.0796 0.103,-0.23185 0.16972,-0.33735 0.0671,-0.1055 0.19724,-0.24144 0.28898,-0.30233 0.0917,-0.0609 0.23811,-0.13719 0.32526,-0.16971 0.0984,-0.0367 0.26146,-0.053 0.42951,-0.0438 z m 22.84201,78.04989 c 0.0296,-7.5e-4 0.18473,0.065 0.34528,0.14595 0.16054,0.0805 0.36779,0.21559 0.46078,0.29941 0.093,0.0842 0.21809,0.2477 0.27814,0.36403 0.0863,0.16806 0.10884,0.27022 0.10884,0.50291 0,0.20516 -0.025,0.34819 -0.0851,0.48164 -0.0471,0.10425 -0.14595,0.25853 -0.21934,0.34236 -0.0738,0.0838 -0.23728,0.20307 -0.36321,0.26479 -0.17931,0.0876 -0.28982,0.11175 -0.50874,0.11175 -0.18974,0 -0.34111,-0.0267 -0.46871,-0.0834 -0.10383,-0.0459 -0.25979,-0.14553 -0.34611,-0.22142 -0.0859,-0.0755 -0.20224,-0.22727 -0.25771,-0.33652 -0.0555,-0.10967 -0.11259,-0.30066 -0.12718,-0.42451 -0.0183,-0.15637 -0.005,-0.29898 0.0434,-0.46579 0.0496,-0.17055 0.12469,-0.29899 0.25729,-0.44118 0.10967,-0.11718 0.32109,-0.27064 0.50874,-0.36947 0.17639,-0.093 0.34445,-0.16971 0.37364,-0.17055 z m 91.77336,-75.95655 c -0.23269,-0.0121 -0.49039,0.002 -0.67012,0.0367 -0.16055,0.0313 -0.41658,0.10425 -0.56879,0.16221 -0.15179,0.058 -0.3999,0.18306 -0.55043,0.27814 -0.15054,0.0951 -0.41242,0.32067 -0.58214,0.50082 -0.1985,0.211 -0.3703,0.44702 -0.48289,0.66303 -0.0959,0.18473 -0.21141,0.47996 -0.25645,0.65636 -0.0567,0.22101 -0.0822,0.45995 -0.0822,0.76644 0,0.30358 0.0254,0.54544 0.0805,0.76019 0.0442,0.17306 0.14636,0.44327 0.22727,0.6009 0.0805,0.15721 0.18473,0.34236 0.23143,0.41116 0.0467,0.0688 0.20266,0.24395 0.34611,0.38906 0.14387,0.14512 0.38781,0.34236 0.54252,0.43785 l 0.28106,0.17389 4.1e-4,4.4619 4.2e-4,4.4619 -3.88852,3.88769 -3.88853,3.88769 -0.2502,-0.0697 c -0.16638,-0.0463 -0.41074,-0.0696 -0.72975,-0.07 -0.31984,-4.2e-4 -0.56962,0.0229 -0.7506,0.0705 -0.14887,0.0392 -0.42117,0.14512 -0.60465,0.23518 -0.18348,0.0905 -0.44577,0.25522 -0.58297,0.36572 -0.13677,0.11092 -0.33985,0.314 -0.45077,0.45077 -0.11051,0.1372 -0.27522,0.39949 -0.36571,0.58297 -0.0901,0.18348 -0.19641,0.45536 -0.23602,0.60465 -0.0479,0.18181 -0.0717,0.42868 -0.0717,0.7506 0,0.32192 0.0238,0.56879 0.0717,0.7506 0.0396,0.14887 0.14595,0.42117 0.23602,0.60465 0.0905,0.18348 0.2552,0.44577 0.36571,0.58297 0.11092,0.13677 0.31191,0.33777 0.44619,0.44577 0.13427,0.10842 0.36946,0.26271 0.52208,0.34277 0.15262,0.0805 0.42701,0.18807 0.60966,0.23936 0.25687,0.0725 0.4391,0.0934 0.81106,0.093 0.32484,-7.5e-4 0.56712,-0.0246 0.7506,-0.0743 0.14929,-0.0404 0.40241,-0.13469 0.56295,-0.20933 0.16055,-0.0751 0.40824,-0.22268 0.55002,-0.32818 0.14178,-0.1055 0.36363,-0.31942 0.4929,-0.47496 0.12927,-0.15596 0.30774,-0.43368 0.39698,-0.61716 0.0892,-0.18348 0.19432,-0.46496 0.23394,-0.6255 0.0463,-0.18807 0.0717,-0.45495 0.0709,-0.7506 -4.1e-4,-0.29357 -0.0254,-0.54878 -0.0692,-0.7089 l -0.0684,-0.2502 4.27341,-4.27425 4.27342,-4.27425 0.002,-5.0457 7.5e-4,-5.0457 0.29565,-0.18765 c 0.16222,-0.10342 0.41993,-0.32026 0.57213,-0.48205 0.15221,-0.1618 0.33986,-0.40116 0.41741,-0.53126 0.0771,-0.13011 0.1985,-0.40116 0.27022,-0.60215 l 0.12969,-0.36529 v -0.60465 -0.60465 l -0.12969,-0.36529 c -0.0717,-0.201 -0.19307,-0.47288 -0.27022,-0.60424 -0.0775,-0.13135 -0.30024,-0.3999 -0.49497,-0.59714 -0.29691,-0.30024 -0.41909,-0.39031 -0.7506,-0.55294 -0.2181,-0.10675 -0.50749,-0.22226 -0.64344,-0.25687 -0.13593,-0.0342 -0.41741,-0.0713 -0.6255,-0.0826 z m -0.0401,1.87692 c 0.11717,0.01 0.28272,0.0475 0.36779,0.083 0.0851,0.0359 0.23935,0.14303 0.34277,0.23852 0.10383,0.0955 0.22893,0.24937 0.27814,0.34236 0.0717,0.13428 0.0901,0.24061 0.0905,0.52292 4.2e-4,0.31483 -0.0134,0.37905 -0.1226,0.57629 -0.0676,0.12219 -0.18973,0.27481 -0.27105,0.33944 -0.0813,0.0646 -0.29023,0.18765 -0.46412,0.27355 l -0.31609,0.15638 -0.38322,-0.19766 c -0.24478,-0.12677 -0.43451,-0.25812 -0.52584,-0.36529 -0.0788,-0.0917 -0.17221,-0.2527 -0.20808,-0.35695 -0.0355,-0.10467 -0.0646,-0.29691 -0.0646,-0.42701 0,-0.13011 0.0217,-0.30024 0.0484,-0.37822 0.0267,-0.078 0.10091,-0.21893 0.16512,-0.31358 0.0642,-0.0943 0.20725,-0.22977 0.31818,-0.30108 0.11092,-0.0713 0.27605,-0.14803 0.36696,-0.17055 0.0905,-0.0225 0.26062,-0.0325 0.3778,-0.0221 z m -10.1256,22.3904 c 0.12135,0.009 0.36654,0.0647 0.54418,0.12384 l 0.3236,0.10759 0.12093,0.36446 c 0.0792,0.23811 0.12093,0.45036 0.12135,0.61424 0,0.17097 -0.0296,0.31609 -0.0938,0.4587 -0.0517,0.11467 -0.1618,0.27772 -0.24394,0.36237 -0.0826,0.0847 -0.24562,0.19641 -0.36279,0.24895 -0.15805,0.0701 -0.28857,0.0947 -0.50499,0.0934 -0.23061,-0.001 -0.33569,-0.0241 -0.5004,-0.10967 -0.11468,-0.0593 -0.26855,-0.17055 -0.34194,-0.24729 -0.0734,-0.0767 -0.17598,-0.2331 -0.22852,-0.34777 -0.0709,-0.15596 -0.0942,-0.28231 -0.093,-0.5004 0.002,-0.23018 0.0251,-0.33652 0.1105,-0.50291 0.0596,-0.11633 0.18599,-0.28147 0.28064,-0.36696 0.0951,-0.0855 0.2231,-0.17597 0.28482,-0.20057 0.0621,-0.025 0.16888,-0.0609 0.23769,-0.0796 0.0688,-0.0192 0.22434,-0.0275 0.34569,-0.0184 z m -1.36357,-15.94692 c -0.29607,10e-4 -0.54293,0.0288 -0.74976,0.0826 -0.16931,0.0446 -0.407,0.12635 -0.52834,0.18181 -0.12094,0.0555 -0.3311,0.17597 -0.46704,0.26855 -0.13594,0.0922 -0.36988,0.30024 -0.52,0.46245 -0.15929,0.1718 -0.34528,0.43368 -0.44577,0.62717 -0.0951,0.18223 -0.21142,0.47788 -0.25854,0.65636 -0.0588,0.22351 -0.0863,0.46162 -0.088,0.76269 -10e-4,0.2894 0.0225,0.53501 0.0709,0.72475 l 0.0734,0.28689 -6.93722,6.93763 -6.93763,6.93763 h -12.17639 -12.1764 l -0.10342,-0.19808 c -0.0567,-0.10884 -0.27272,-0.36779 -0.47955,-0.57504 -0.28648,-0.28689 -0.4562,-0.41825 -0.71224,-0.55044 -0.18472,-0.0955 -0.48496,-0.21475 -0.6672,-0.26521 -0.24436,-0.0679 -0.44535,-0.0922 -0.76894,-0.0922 -0.26855,0 -0.55086,0.0275 -0.72976,0.0709 -0.16054,0.0388 -0.44201,0.14387 -0.6255,0.23352 -0.18347,0.0897 -0.44035,0.24771 -0.57045,0.35112 -0.13011,0.10341 -0.33485,0.30608 -0.45495,0.45036 -0.12009,0.14428 -0.29899,0.43118 -0.39782,0.63759 -0.10758,0.2256 -0.20683,0.51583 -0.24894,0.72809 -0.0496,0.25186 -0.0634,0.47287 -0.048,0.77353 0.0163,0.31859 0.0517,0.50916 0.14678,0.78396 0.0688,0.19974 0.18807,0.46954 0.26522,0.59964 0.0776,0.13012 0.2602,0.36447 0.40657,0.52125 0.14637,0.1568 0.39448,0.3703 0.55127,0.47455 0.15721,0.10425 0.3949,0.23435 0.52876,0.28856 0.13428,0.0546 0.40158,0.13095 0.59464,0.17014 0.2573,0.0521 0.45704,0.0647 0.7481,0.0467 0.22059,-0.0137 0.52668,-0.0647 0.68889,-0.11468 0.16054,-0.0496 0.39531,-0.14261 0.52167,-0.20641 0.12634,-0.0634 0.34569,-0.20266 0.48747,-0.30942 0.14178,-0.10674 0.33151,-0.2823 0.42159,-0.3903 0.0901,-0.10801 0.23226,-0.30441 0.3165,-0.43619 l 0.15262,-0.23977 h 12.70682 12.70682 l 7.34588,-7.34588 7.34546,-7.34545 0.34819,0.0692 c 0.1914,0.038 0.50373,0.0688 0.69389,0.0688 0.19056,0 0.48121,-0.0296 0.64635,-0.0659 0.16513,-0.0367 0.46912,-0.14803 0.67553,-0.24811 0.20642,-0.0997 0.4879,-0.27481 0.62551,-0.38906 0.13761,-0.11426 0.34736,-0.33569 0.46661,-0.49248 0.11885,-0.15679 0.27273,-0.40699 0.34237,-0.55586 0.0696,-0.14929 0.15971,-0.39323 0.20016,-0.5421 0.0521,-0.19182 0.0738,-0.42326 0.0734,-0.7923 0,-0.42743 -0.0176,-0.57755 -0.0968,-0.834 -0.0534,-0.17222 -0.16054,-0.43493 -0.23894,-0.5838 -0.078,-0.14887 -0.2381,-0.38865 -0.3557,-0.53251 -0.11801,-0.14345 -0.33777,-0.35362 -0.48831,-0.46662 -0.15095,-0.11259 -0.39489,-0.26396 -0.5421,-0.33569 -0.14761,-0.0721 -0.40949,-0.16722 -0.58212,-0.211 -0.21768,-0.0559 -0.44953,-0.0797 -0.75561,-0.078 z m -0.0217,1.87442 c 0.13929,-4.2e-4 0.33903,0.0288 0.4437,0.0642 0.10425,0.0359 0.26312,0.1276 0.35277,0.20433 0.0892,0.0763 0.2181,0.23936 0.28607,0.36238 0.10842,0.19557 0.12385,0.26521 0.12385,0.55711 0,0.29607 -0.0146,0.35945 -0.12927,0.56295 -0.0743,0.13177 -0.2135,0.29357 -0.32693,0.3803 -0.10926,0.083 -0.26896,0.17222 -0.35529,0.19808 -0.0867,0.0258 -0.25812,0.0463 -0.38196,0.0455 -0.12594,-10e-4 -0.37822,-0.0517 -0.57505,-0.11551 l -0.35111,-0.11384 -0.0992,-0.29107 c -0.0546,-0.16013 -0.11759,-0.38364 -0.1397,-0.49706 -0.0304,-0.15638 -0.0246,-0.26605 0.0242,-0.4562 0.0355,-0.13761 0.11342,-0.31734 0.17347,-0.39865 0.0605,-0.0817 0.14887,-0.18265 0.19725,-0.22435 0.0479,-0.0417 0.18097,-0.12093 0.29565,-0.17681 0.15012,-0.0725 0.27938,-0.10091 0.46161,-0.10133 z m -43.74622,16.24882 c 0.11467,0.0121 0.28648,0.0559 0.38156,0.0972 0.0951,0.0412 0.2456,0.14761 0.33443,0.23644 0.0884,0.0884 0.24103,0.31483 0.33902,0.5029 l 0.17764,0.34152 -0.16722,0.33319 c -0.0921,0.18306 -0.22309,0.39615 -0.29064,0.47288 -0.0676,0.0771 -0.22269,0.19515 -0.34445,0.2627 -0.19098,0.10592 -0.26563,0.12302 -0.53459,0.12219 -0.2281,-7.5e-4 -0.36362,-0.0246 -0.5004,-0.088 -0.103,-0.0479 -0.25812,-0.15638 -0.34444,-0.24144 -0.0863,-0.0847 -0.19641,-0.23227 -0.24519,-0.32777 -0.0488,-0.0955 -0.098,-0.28898 -0.10927,-0.42951 -0.0142,-0.17639 10e-4,-0.32192 0.0497,-0.46704 0.0384,-0.11634 0.14636,-0.29773 0.23977,-0.40366 0.093,-0.10591 0.24186,-0.22976 0.33068,-0.2748 0.0884,-0.0454 0.23144,-0.0997 0.31775,-0.12051 0.0867,-0.0213 0.25104,-0.0283 0.36571,-0.0163 z m -59.43584,-15.07664 c -0.0847,0.003 -0.2477,0.0192 -0.36279,0.0363 -0.11551,0.0167 -0.32193,0.063 -0.4587,0.10258 -0.1372,0.0396 -0.39949,0.14971 -0.58297,0.24395 -0.2502,0.12927 -0.422,0.26104 -0.68805,0.52875 -0.19474,0.19599 -0.41742,0.46371 -0.49498,0.59506 -0.0771,0.13136 -0.19682,0.40324 -0.26646,0.60424 -0.103,0.29815 -0.13011,0.45369 -0.14637,0.84609 -0.0167,0.39657 -0.005,0.5421 0.0675,0.834 0.0484,0.19432 0.1668,0.50999 0.26313,0.70181 0.12093,0.24061 0.27105,0.45036 0.48414,0.67721 0.17889,0.18973 0.4391,0.40908 0.61757,0.52041 0.16972,0.10592 0.43577,0.23644 0.59131,0.29065 0.15554,0.0542 0.42326,0.12052 0.59464,0.1472 0.17848,0.0275 0.45495,0.0375 0.64552,0.0225 0.18348,-0.0146 0.43701,-0.0538 0.56295,-0.088 l 0.22935,-0.0613 0.80272,0.80147 0.80273,0.80147 v 2.94778 2.94735 l -0.23394,0.13386 c -0.12843,0.0738 -0.35361,0.24604 -0.5004,0.38322 -0.14637,0.13719 -0.35195,0.37781 -0.45661,0.53543 -0.10467,0.15721 -0.23436,0.39448 -0.28815,0.52709 -0.0538,0.13261 -0.1276,0.38573 -0.1643,0.56212 -0.0363,0.17681 -0.0663,0.46745 -0.0659,0.64635 0,0.17847 0.0363,0.47496 0.0801,0.65844 0.0442,0.18348 0.11968,0.42617 0.16847,0.53876 0.0484,0.11301 0.17222,0.33235 0.27563,0.48789 0.103,0.15512 0.31776,0.40283 0.47747,0.55044 0.19474,0.18015 0.417,0.33194 0.67595,0.46121 0.21226,0.10591 0.49749,0.22101 0.63343,0.25478 0.13594,0.0342 0.38906,0.0738 0.56295,0.088 0.21267,0.0175 0.44327,0.004 0.70765,-0.0425 0.216,-0.0375 0.51624,-0.12009 0.66803,-0.1839 0.15179,-0.0638 0.39198,-0.19473 0.53334,-0.29064 0.14178,-0.0963 0.35487,-0.27356 0.4733,-0.39407 0.11884,-0.12051 0.2673,-0.29398 0.33068,-0.38572 0.063,-0.0917 0.17431,-0.28607 0.24811,-0.43202 0.0734,-0.14553 0.17056,-0.40824 0.21643,-0.5838 0.0571,-0.22101 0.0826,-0.45286 0.0822,-0.75643 0,-0.30275 -0.0263,-0.53793 -0.0842,-0.76269 -0.0463,-0.17848 -0.16013,-0.47038 -0.2527,-0.64844 -0.0926,-0.17806 -0.25729,-0.42867 -0.36612,-0.55669 -0.10884,-0.12803 -0.27898,-0.30024 -0.37822,-0.38323 -0.0993,-0.0826 -0.2819,-0.211 -0.40533,-0.28606 l -0.22476,-0.13594 -10e-4,-3.50239 -0.001,-3.5028 -1.19471,-1.19512 -1.1947,-1.19512 0.0746,-0.3557 c 0.0575,-0.27397 0.0696,-0.46371 0.0517,-0.82733 -0.0158,-0.32276 -0.0517,-0.55795 -0.11384,-0.7431 -0.05,-0.14928 -0.15846,-0.3999 -0.24061,-0.55711 -0.0859,-0.16388 -0.28189,-0.42617 -0.4587,-0.61466 -0.17805,-0.18931 -0.43534,-0.40615 -0.60757,-0.51249 -0.16429,-0.10091 -0.43201,-0.23143 -0.59505,-0.2894 -0.16305,-0.058 -0.44119,-0.12551 -0.618,-0.15012 -0.17681,-0.0246 -0.39073,-0.0421 -0.47496,-0.0396 z m 0.15929,1.89318 c 0.13135,0.0117 0.32693,0.0696 0.45745,0.13595 0.14887,0.0746 0.28106,0.18514 0.3803,0.31608 0.0838,0.11092 0.17348,0.2723 0.19933,0.35862 0.0258,0.0867 0.0471,0.25938 0.0471,0.38364 0,0.13678 -0.0463,0.36571 -0.11718,0.57921 l -0.11759,0.35237 -0.39323,0.13427 c -0.21642,0.0742 -0.46079,0.13511 -0.54252,0.13553 -0.0817,8.2e-4 -0.24311,-0.0267 -0.35862,-0.0609 -0.11509,-0.0342 -0.29273,-0.12593 -0.39406,-0.20308 -0.10175,-0.078 -0.23769,-0.23894 -0.30316,-0.35945 -0.0809,-0.14803 -0.12594,-0.30149 -0.1397,-0.47455 -0.0108,-0.14094 8.3e-4,-0.33276 0.0263,-0.42659 0.025,-0.0942 0.098,-0.24853 0.16179,-0.34319 0.0638,-0.0951 0.19766,-0.23268 0.29774,-0.30649 0.1005,-0.0738 0.26896,-0.15804 0.37447,-0.18807 0.108,-0.0304 0.29315,-0.045 0.42158,-0.0334 z m 3.86726,13.03042 c 0.007,0 0.16138,0.0746 0.34319,0.16638 0.18181,0.0913 0.39657,0.22394 0.47705,0.2944 0.0805,0.0709 0.19557,0.22935 0.25603,0.35279 0.0863,0.17638 0.10968,0.28564 0.10968,0.51457 0,0.19683 -0.0263,0.34945 -0.0813,0.47372 -0.0446,0.10049 -0.14136,0.25186 -0.21475,0.33568 -0.0738,0.0838 -0.24061,0.20517 -0.37113,0.26897 -0.19224,0.0947 -0.29149,0.11592 -0.52876,0.11467 -0.21434,-0.001 -0.34277,-0.0263 -0.48455,-0.0951 -0.10592,-0.0513 -0.27022,-0.17139 -0.36488,-0.2673 -0.0988,-0.0997 -0.20808,-0.26897 -0.25562,-0.39657 -0.0459,-0.12218 -0.0834,-0.31483 -0.0834,-0.42784 0,-0.11301 0.0379,-0.30733 0.0846,-0.43201 0.058,-0.15471 0.15012,-0.28732 0.2919,-0.41992 0.11384,-0.10675 0.34277,-0.25854 0.50832,-0.33818 0.16555,-0.0792 0.30692,-0.14429 0.31359,-0.14429 z"
       id="icon" /><g
       id="title"
       style="font-style:normal;font-weight:300;font-size:72px;line-height:1;font-family:Comfortaa;font-variant-ligatures:none;text-align:center;text-anchor:middle"
       aria-label="digitalwolk"><path
         id="path554165"
         style="font-style:normal;font-weight:300;font-size:72px;line-height:1;font-family:Comfortaa;font-variant-ligatures:none;text-align:center;text-anchor:middle;fill:#f2f2f2"
         d="m 355.63456,-56.232 q 1.008,0 1.584,0.576 0.576,0.576 0.576,1.584 v 34.632 0.144 q -0.072,5.544 -2.736,10.08 -2.664,4.536 -7.272,7.128 -4.536,2.52 -10.08,2.52 -5.688,0 -10.296,-2.592 -4.608,-2.664 -7.272,-7.272 -2.592,-4.608 -2.592,-10.296 0,-5.616 2.592,-10.224 2.664,-4.608 7.272,-7.2 4.608,-2.664 10.296,-2.664 5.112,0 9.216,2.232 4.176,2.16 6.552,5.976 v -22.464 q 0,-1.008 0.576,-1.584 0.648,-0.576 1.584,-0.576 z m -17.928,52.632 q 4.464,0 8.064,-2.088 3.6,-2.16 5.616,-5.832 2.088,-3.672 2.088,-8.208 0,-4.536 -2.088,-8.208 -2.016,-3.672 -5.616,-5.76 -3.6,-2.088 -8.064,-2.088 -4.464,0 -8.064,2.088 -3.6,2.088 -5.688,5.76 -2.088,3.672 -2.088,8.208 0,4.536 2.088,8.208 2.088,3.672 5.688,5.832 3.6,2.088 8.064,2.088 z"
         transform="matrix(1.226966,0,0,1.226966,-134.42473,471.30568)" /><path
         id="path554167"
         style="font-style:normal;font-weight:300;font-size:72px;line-height:1;font-family:Comfortaa;font-variant-ligatures:none;text-align:center;text-anchor:middle;fill:#f2f2f2"
         d="m 374.35344,0 q -0.936,0 -1.584,-0.576 -0.576,-0.648 -0.576,-1.584 v -35.064 q 0,-1.008 0.576,-1.584 0.648,-0.576 1.584,-0.576 1.008,0 1.584,0.576 0.576,0.576 0.576,1.584 V -2.16 q 0,0.936 -0.576,1.584 -0.576,0.576 -1.584,0.576 z m -0.072,-47.664 q -1.44,0 -2.376,-0.936 -0.936,-1.008 -0.936,-2.448 0,-1.584 1.008,-2.448 1.008,-0.864 2.376,-0.864 1.368,0 2.304,0.864 1.008,0.864 1.008,2.448 0,1.44 -1.008,2.448 -0.936,0.936 -2.376,0.936 z"
         transform="matrix(1.226966,0,0,1.226966,-130.74383,471.30568)" /><path
         id="path554169"
         style="font-style:normal;font-weight:300;font-size:72px;line-height:1;font-family:Comfortaa;font-variant-ligatures:none;text-align:center;text-anchor:middle;fill:#f2f2f2"
         d="m 408.86281,-39.816 q 5.832,0 10.368,2.592 4.608,2.592 7.128,7.2 2.592,4.536 2.592,10.368 v 14.112 q 0,5.76 -2.592,10.44 -2.592,4.752 -7.128,7.416 -4.536,2.736 -10.08,2.736 -5.688,0 -10.008,-2.16 -4.248,-2.088 -7.128,-5.76 -0.576,-0.72 -0.576,-1.44 0,-0.864 0.72,-1.368 0.576,-0.432 1.296,-0.432 1.152,0 1.872,0.936 2.376,2.88 5.832,4.536 3.528,1.656 7.992,1.656 4.392,0 7.92,-2.16 3.528,-2.16 5.544,-5.976 2.016,-3.744 2.016,-8.424 v -3.168 q -2.088,4.248 -6.264,6.696 -4.104,2.448 -9.504,2.448 -5.832,0 -10.44,-2.52 -4.536,-2.592 -7.128,-7.128 -2.592,-4.608 -2.592,-10.44 0,-5.76 2.664,-10.368 2.664,-4.608 7.272,-7.2 4.608,-2.592 10.224,-2.592 z m 0,36.216 q 4.536,0 8.136,-2.016 3.6,-2.088 5.616,-5.688 2.016,-3.672 2.016,-8.352 0,-4.68 -2.016,-8.352 -2.016,-3.672 -5.616,-5.688 -3.6,-2.088 -8.136,-2.088 -4.608,0 -8.208,2.088 -3.6,2.016 -5.616,5.688 -2.016,3.672 -2.016,8.352 0,4.68 2.016,8.352 2.016,3.6 5.616,5.688 3.6,2.016 8.208,2.016 z"
         transform="matrix(1.226966,0,0,1.226966,-127.06293,471.30568)" /><path
         id="path554171"
         style="font-style:normal;font-weight:300;font-size:72px;line-height:1;font-family:Comfortaa;font-variant-ligatures:none;text-align:center;text-anchor:middle;fill:#f2f2f2"
         d="m 443.40031,0 q -0.936,0 -1.584,-0.576 -0.576,-0.648 -0.576,-1.584 v -35.064 q 0,-1.008 0.576,-1.584 0.648,-0.576 1.584,-0.576 1.008,0 1.584,0.576 0.576,0.576 0.576,1.584 V -2.16 q 0,0.936 -0.576,1.584 -0.576,0.576 -1.584,0.576 z m -0.072,-47.664 q -1.44,0 -2.376,-0.936 -0.936,-1.008 -0.936,-2.448 0,-1.584 1.008,-2.448 1.008,-0.864 2.376,-0.864 1.368,0 2.304,0.864 1.008,0.864 1.008,2.448 0,1.44 -1.008,2.448 -0.936,0.936 -2.376,0.936 z"
         transform="matrix(1.226966,0,0,1.226966,-123.38203,471.30568)" /><path
         id="path554173"
         style="font-style:normal;font-weight:300;font-size:72px;line-height:1;font-family:Comfortaa;font-variant-ligatures:none;text-align:center;text-anchor:middle;fill:#f2f2f2"
         d="m 477.69369,-4.392 q 1.008,0 1.584,0.648 0.648,0.576 0.648,1.584 0,0.936 -0.648,1.584 -0.576,0.576 -1.584,0.576 h -1.656 q -3.96,0 -7.056,-1.8 -3.096,-1.8 -4.824,-4.896 -1.728,-3.168 -1.728,-7.128 v -20.232 h -5.616 q -0.864,0 -1.44,-0.504 -0.504,-0.576 -0.504,-1.44 0,-0.864 0.504,-1.368 0.576,-0.576 1.44,-0.576 h 5.616 V -49.68 q 0,-1.008 0.576,-1.584 0.648,-0.648 1.584,-0.648 1.008,0 1.584,0.648 0.648,0.576 0.648,1.584 v 11.736 h 9.504 q 0.864,0 1.368,0.576 0.576,0.504 0.576,1.368 0,0.864 -0.576,1.44 -0.504,0.504 -1.368,0.504 h -9.504 v 20.232 q 0,4.176 2.592,6.84 2.592,2.592 6.696,2.592 z"
         transform="matrix(1.226966,0,0,1.226966,-119.70114,471.30568)" /><path
         id="path554175"
         style="font-style:normal;font-weight:300;font-size:72px;line-height:1;font-family:Comfortaa;font-variant-ligatures:none;text-align:center;text-anchor:middle;fill:#f2f2f2"
         d="m 506.87844,-39.816 q 5.616,0 10.224,2.664 4.608,2.592 7.2,7.2 2.664,4.608 2.664,10.296 V -2.16 q 0,0.936 -0.576,1.584 -0.576,0.576 -1.584,0.576 -0.936,0 -1.584,-0.576 -0.576,-0.648 -0.576,-1.584 v -5.616 q -2.376,3.816 -6.552,6.048 -4.104,2.16 -9.216,2.16 -5.688,0 -10.296,-2.592 -4.608,-2.664 -7.272,-7.272 -2.592,-4.608 -2.592,-10.224 0,-5.688 2.592,-10.296 2.664,-4.608 7.272,-7.2 4.608,-2.664 10.296,-2.664 z m 0,36.216 q 4.464,0 8.064,-2.088 3.6,-2.088 5.616,-5.76 2.088,-3.672 2.088,-8.208 0,-4.536 -2.088,-8.208 -2.016,-3.672 -5.616,-5.76 -3.6,-2.16 -8.064,-2.16 -4.464,0 -8.064,2.16 -3.6,2.088 -5.688,5.76 -2.088,3.672 -2.088,8.208 0,4.536 2.088,8.208 2.088,3.672 5.688,5.76 3.6,2.088 8.064,2.088 z"
         transform="matrix(1.226966,0,0,1.226966,-116.02024,471.30568)" /><path
         id="path554177"
         style="font-style:normal;font-weight:300;font-size:72px;line-height:1;font-family:Comfortaa;font-variant-ligatures:none;text-align:center;text-anchor:middle;fill:#f2f2f2"
         d="m 545.73594,0 q -4.104,0 -6.768,-3.312 -2.592,-3.312 -2.592,-8.568 v -42.192 q 0,-1.008 0.576,-1.584 0.648,-0.576 1.584,-0.576 1.008,0 1.584,0.576 0.576,0.576 0.576,1.584 v 42.192 q 0,3.312 1.368,5.472 1.44,2.088 3.672,2.088 h 1.8 q 0.792,0 1.296,0.576 0.504,0.576 0.504,1.584 0,0.936 -0.576,1.584 -0.576,0.576 -1.584,0.576 z"
         transform="matrix(1.226966,0,0,1.226966,-112.33934,471.30568)" /><path
         id="path554179"
         style="font-style:normal;font-weight:300;font-size:72px;line-height:1;font-family:Comfortaa;font-variant-ligatures:none;text-align:center;text-anchor:middle;fill:#f2f2f2"
         d="m 599.17681,-39.384 q 0.936,0 1.44,0.576 0.504,0.576 0.504,1.44 0,0.504 -0.216,1.08 l -11.592,34.92 q -0.216,0.648 -0.792,1.008 -0.504,0.36 -1.296,0.36 -0.72,0 -1.296,-0.36 -0.576,-0.36 -0.72,-1.008 l -9.792,-30.456 -9.504,30.456 q -0.504,1.368 -2.016,1.368 -0.72,0 -1.296,-0.36 -0.504,-0.36 -0.72,-1.008 l -11.664,-34.92 q -0.144,-0.864 -0.144,-1.152 0,-1.944 1.8,-1.944 0.648,0 1.152,0.36 0.576,0.288 0.864,0.936 l 10.152,30.672 9.36,-30.24 q 0.216,-0.792 0.792,-1.224 0.576,-0.504 1.368,-0.504 1.584,0 2.16,1.728 l 9.432,29.664 10.008,-30.096 q 0.576,-1.296 2.016,-1.296 z"
         transform="matrix(1.226966,0,0,1.226966,-108.65844,471.30568)" /><path
         id="path554181"
         style="font-style:normal;font-weight:300;font-size:72px;line-height:1;font-family:Comfortaa;font-variant-ligatures:none;text-align:center;text-anchor:middle;fill:#f2f2f2"
         d="m 625.56594,0.432 q -5.688,0 -10.296,-2.592 -4.608,-2.664 -7.272,-7.272 -2.592,-4.608 -2.592,-10.224 0,-5.688 2.592,-10.296 2.664,-4.608 7.272,-7.2 4.608,-2.664 10.296,-2.664 5.616,0 10.224,2.664 4.608,2.592 7.2,7.2 2.664,4.608 2.664,10.296 0,5.616 -2.664,10.224 -2.592,4.608 -7.2,7.272 -4.608,2.592 -10.224,2.592 z m 0,-4.032 q 4.464,0 8.064,-2.088 3.6,-2.088 5.616,-5.76 2.088,-3.672 2.088,-8.208 0,-4.536 -2.088,-8.208 -2.016,-3.672 -5.616,-5.76 -3.6,-2.16 -8.064,-2.16 -4.464,0 -8.064,2.16 -3.6,2.088 -5.688,5.76 -2.088,3.672 -2.088,8.208 0,4.536 2.088,8.208 2.088,3.672 5.688,5.76 3.6,2.088 8.064,2.088 z"
         transform="matrix(1.226966,0,0,1.226966,-104.97754,471.30568)" /><path
         id="path554183"
         style="font-style:normal;font-weight:300;font-size:72px;line-height:1;font-family:Comfortaa;font-variant-ligatures:none;text-align:center;text-anchor:middle;fill:#f2f2f2"
         d="m 664.42344,0 q -4.104,0 -6.768,-3.312 -2.592,-3.312 -2.592,-8.568 v -42.192 q 0,-1.008 0.576,-1.584 0.648,-0.576 1.584,-0.576 1.008,0 1.584,0.576 0.576,0.576 0.576,1.584 v 42.192 q 0,3.312 1.368,5.472 1.44,2.088 3.672,2.088 h 1.8 q 0.792,0 1.296,0.576 0.504,0.576 0.504,1.584 0,0.936 -0.576,1.584 -0.576,0.576 -1.584,0.576 z"
         transform="matrix(1.226966,0,0,1.226966,-101.29665,471.30568)" /><path
         id="path554185"
         style="font-style:normal;font-weight:300;font-size:72px;line-height:1;font-family:Comfortaa;font-variant-ligatures:none;text-align:center;text-anchor:middle;fill:#f2f2f2"
         d="m 705.64569,-3.168 q 0.504,0.576 0.504,1.296 0,0.792 -0.792,1.512 -0.72,0.576 -1.296,0.576 -0.864,0 -1.512,-0.864 l -15.624,-19.08 -6.696,6.12 V -2.16 q 0,0.936 -0.576,1.584 -0.576,0.576 -1.584,0.576 -0.936,0 -1.584,-0.576 -0.576,-0.648 -0.576,-1.584 v -51.912 q 0,-1.008 0.576,-1.584 0.648,-0.576 1.584,-0.576 1.008,0 1.584,0.576 0.576,0.576 0.576,1.584 v 35.208 l 22.32,-20.304 q 0.72,-0.576 1.368,-0.576 0.72,0 1.368,0.72 0.648,0.648 0.648,1.368 0,0.72 -0.72,1.368 l -15.264,13.896 z"
         transform="matrix(1.226966,0,0,1.226966,-97.615749,471.30568)" /></g><g
       id="subtitle"
       style="font-style:normal;font-weight:300;font-size:32px;line-height:1;font-family:Comfortaa;font-variant-ligatures:none;text-align:center;text-anchor:middle"
       aria-label="business intelligence"><path
         id="path554188"
         style="font-style:normal;font-weight:300;font-size:32px;line-height:1;font-family:Comfortaa;font-variant-ligatures:none;text-align:center;text-anchor:middle;fill:#f2f2f2"
         d="m 351.1205,-17.696 q 2.528,0 4.576,1.184 2.048,1.152 3.2,3.2 1.184,2.048 1.184,4.544 0,2.528 -1.184,4.576 -1.152,2.048 -3.2,3.232 -2.048,1.152 -4.576,1.152 -2.464,0 -4.512,-1.12 -2.016,-1.152 -3.2,-3.168 -1.184,-2.016 -1.216,-4.48 V -8.64 -24.032 q 0,-0.448 0.256,-0.704 0.288,-0.256 0.704,-0.256 0.448,0 0.704,0.256 0.256,0.256 0.256,0.704 v 9.984 q 1.056,-1.696 2.88,-2.656 1.856,-0.992 4.128,-0.992 z m 0,16.096 q 1.984,0 3.584,-0.928 1.6,-0.96 2.528,-2.592 0.928,-1.632 0.928,-3.648 0,-2.016 -0.928,-3.648 -0.928,-1.632 -2.528,-2.56 -1.6,-0.928 -3.584,-0.928 -1.984,0 -3.584,0.928 -1.6,0.928 -2.528,2.56 -0.896,1.632 -0.896,3.648 0,2.016 0.896,3.648 0.928,1.632 2.528,2.592 1.6,0.928 3.584,0.928 z"
         transform="matrix(0.81818182,0,0,0.81818182,92.441273,530.01707)" /><path
         id="path554190"
         style="font-style:normal;font-weight:300;font-size:32px;line-height:1;font-family:Comfortaa;font-variant-ligatures:none;text-align:center;text-anchor:middle;fill:#f2f2f2"
         d="m 379.696,-17.504 q 0.448,0 0.704,0.256 0.256,0.256 0.256,0.704 V -0.96 q 0,0.416 -0.256,0.704 Q 380.144,0 379.696,0 q -0.416,0 -0.704,-0.256 -0.256,-0.288 -0.256,-0.704 v -1.664 q -1.088,1.344 -2.656,2.112 -1.568,0.736 -3.424,0.736 -2.336,0 -4.192,-0.96 -1.824,-0.96 -2.88,-2.784 -1.024,-1.856 -1.024,-4.416 v -8.608 q 0,-0.416 0.256,-0.672 0.288,-0.288 0.704,-0.288 0.416,0 0.672,0.288 0.288,0.256 0.288,0.672 v 8.608 q 0,3.04 1.696,4.64 1.728,1.6 4.48,1.6 1.696,0 3.072,-0.64 1.408,-0.672 2.208,-1.824 0.8,-1.184 0.8,-2.592 v -9.792 q 0,-0.448 0.256,-0.704 0.288,-0.256 0.704,-0.256 z"
         transform="matrix(0.81818182,0,0,0.81818182,92.441273,530.01707)" /><path
         id="path554192"
         style="font-style:normal;font-weight:300;font-size:32px;line-height:1;font-family:Comfortaa;font-variant-ligatures:none;text-align:center;text-anchor:middle;fill:#f2f2f2"
         d="m 392.3945,0.192 q -1.856,0 -3.616,-0.64 -1.76,-0.672 -2.912,-2.016 -0.224,-0.256 -0.224,-0.576 0,-0.448 0.416,-0.736 0.192,-0.16 0.544,-0.16 0.448,0 0.736,0.352 1.6,1.952 5.152,1.952 2.528,0 3.712,-0.896 1.216,-0.896 1.216,-2.304 0,-2.528 -4.896,-3.232 -3.104,-0.448 -4.704,-1.696 -1.568,-1.248 -1.568,-3.008 0,-2.336 1.696,-3.616 1.728,-1.312 4.48,-1.312 4.032,0 6.112,2.88 0.192,0.224 0.192,0.544 0,0.448 -0.512,0.736 -0.32,0.128 -0.48,0.128 -0.48,0 -0.8,-0.416 -1.632,-2.08 -4.576,-2.08 -1.952,0 -3.104,0.864 -1.152,0.832 -1.152,2.08 0,1.28 1.088,2.048 1.12,0.768 3.712,1.152 3.392,0.48 4.864,1.824 1.504,1.312 1.504,3.2 0,1.472 -0.96,2.592 -0.928,1.12 -2.496,1.728 -1.568,0.608 -3.424,0.608 z"
         transform="matrix(0.81818182,0,0,0.81818182,92.441273,530.01707)" /><path
         id="path554194"
         style="font-style:normal;font-weight:300;font-size:32px;line-height:1;font-family:Comfortaa;font-variant-ligatures:none;text-align:center;text-anchor:middle;fill:#f2f2f2"
         d="m 405.1675,0 q -0.416,0 -0.704,-0.256 -0.256,-0.288 -0.256,-0.704 v -15.584 q 0,-0.448 0.256,-0.704 0.288,-0.256 0.704,-0.256 0.448,0 0.704,0.256 0.256,0.256 0.256,0.704 V -0.96 q 0,0.416 -0.256,0.704 Q 405.6155,0 405.1675,0 Z m -0.032,-21.184 q -0.64,0 -1.056,-0.416 -0.416,-0.448 -0.416,-1.088 0,-0.704 0.448,-1.088 0.448,-0.384 1.056,-0.384 0.608,0 1.024,0.384 0.448,0.384 0.448,1.088 0,0.64 -0.448,1.088 -0.416,0.416 -1.056,0.416 z"
         transform="matrix(0.81818182,0,0,0.81818182,92.441273,530.01707)" /><path
         id="path554196"
         style="font-style:normal;font-weight:300;font-size:32px;line-height:1;font-family:Comfortaa;font-variant-ligatures:none;text-align:center;text-anchor:middle;fill:#f2f2f2"
         d="m 420.505,-17.728 q 2.336,0 4.16,0.96 1.856,0.96 2.88,2.816 1.056,1.824 1.056,4.384 v 8.608 q 0,0.416 -0.288,0.704 Q 428.057,0 427.641,0 q -0.416,0 -0.704,-0.256 -0.256,-0.288 -0.256,-0.704 v -8.608 q 0,-3.04 -1.728,-4.64 -1.696,-1.6 -4.448,-1.6 -1.696,0 -3.104,0.672 -1.376,0.64 -2.176,1.824 -0.8,1.152 -0.8,2.56 v 9.792 q 0,0.416 -0.256,0.704 Q 413.913,0 413.465,0 q -0.416,0 -0.704,-0.256 -0.256,-0.288 -0.256,-0.704 v -15.584 q 0,-0.448 0.256,-0.704 0.288,-0.256 0.704,-0.256 0.448,0 0.704,0.256 0.256,0.256 0.256,0.704 v 1.664 q 1.088,-1.344 2.656,-2.08 1.568,-0.768 3.424,-0.768 z"
         transform="matrix(0.81818182,0,0,0.81818182,92.441273,530.01707)" /><path
         id="path554198"
         style="font-style:normal;font-weight:300;font-size:32px;line-height:1;font-family:Comfortaa;font-variant-ligatures:none;text-align:center;text-anchor:middle;fill:#f2f2f2"
         d="m 441.3315,-17.664 q 2.336,0 4.16,1.12 1.856,1.088 2.88,3.04 1.024,1.952 1.024,4.448 0,0.416 -0.256,0.672 -0.256,0.224 -0.672,0.224 h -13.408 q 0.096,1.888 0.992,3.392 0.896,1.472 2.4,2.304 1.504,0.832 3.36,0.832 1.248,0 2.496,-0.416 1.28,-0.448 2.016,-1.152 0.32,-0.256 0.672,-0.256 0.352,0 0.576,0.192 0.352,0.288 0.352,0.672 0,0.32 -0.288,0.608 -1.024,0.928 -2.688,1.536 -1.632,0.608 -3.136,0.608 -2.528,0 -4.512,-1.12 -1.952,-1.152 -3.072,-3.168 -1.12,-2.048 -1.12,-4.608 0,-2.592 1.024,-4.608 1.056,-2.048 2.912,-3.168 1.888,-1.152 4.288,-1.152 z m 0,1.792 q -2.496,0 -4.224,1.664 -1.696,1.664 -2.016,4.384 h 12.448 q -0.224,-2.72 -1.92,-4.384 -1.696,-1.664 -4.288,-1.664 z"
         transform="matrix(0.81818182,0,0,0.81818182,92.441273,530.01707)" /><path
         id="path554200"
         style="font-style:normal;font-weight:300;font-size:32px;line-height:1;font-family:Comfortaa;font-variant-ligatures:none;text-align:center;text-anchor:middle;fill:#f2f2f2"
         d="m 459.5195,0.192 q -1.856,0 -3.616,-0.64 -1.76,-0.672 -2.912,-2.016 -0.224,-0.256 -0.224,-0.576 0,-0.448 0.416,-0.736 0.192,-0.16 0.544,-0.16 0.448,0 0.736,0.352 1.6,1.952 5.152,1.952 2.528,0 3.712,-0.896 1.216,-0.896 1.216,-2.304 0,-2.528 -4.896,-3.232 -3.104,-0.448 -4.704,-1.696 -1.568,-1.248 -1.568,-3.008 0,-2.336 1.696,-3.616 1.728,-1.312 4.48,-1.312 4.032,0 6.112,2.88 0.192,0.224 0.192,0.544 0,0.448 -0.512,0.736 -0.32,0.128 -0.48,0.128 -0.48,0 -0.8,-0.416 -1.632,-2.08 -4.576,-2.08 -1.952,0 -3.104,0.864 -1.152,0.832 -1.152,2.08 0,1.28 1.088,2.048 1.12,0.768 3.712,1.152 3.392,0.48 4.864,1.824 1.504,1.312 1.504,3.2 0,1.472 -0.96,2.592 -0.928,1.12 -2.496,1.728 -1.568,0.608 -3.424,0.608 z"
         transform="matrix(0.81818182,0,0,0.81818182,92.441273,530.01707)" /><path
         id="path554202"
         style="font-style:normal;font-weight:300;font-size:32px;line-height:1;font-family:Comfortaa;font-variant-ligatures:none;text-align:center;text-anchor:middle;fill:#f2f2f2"
         d="m 476.6445,0.192 q -1.856,0 -3.616,-0.64 -1.76,-0.672 -2.912,-2.016 -0.224,-0.256 -0.224,-0.576 0,-0.448 0.416,-0.736 0.192,-0.16 0.544,-0.16 0.448,0 0.736,0.352 1.6,1.952 5.152,1.952 2.528,0 3.712,-0.896 1.216,-0.896 1.216,-2.304 0,-2.528 -4.896,-3.232 -3.104,-0.448 -4.704,-1.696 -1.568,-1.248 -1.568,-3.008 0,-2.336 1.696,-3.616 1.728,-1.312 4.48,-1.312 4.032,0 6.112,2.88 0.192,0.224 0.192,0.544 0,0.448 -0.512,0.736 -0.32,0.128 -0.48,0.128 -0.48,0 -0.8,-0.416 -1.632,-2.08 -4.576,-2.08 -1.952,0 -3.104,0.864 -1.152,0.832 -1.152,2.08 0,1.28 1.088,2.048 1.12,0.768 3.712,1.152 3.392,0.48 4.864,1.824 1.504,1.312 1.504,3.2 0,1.472 -0.96,2.592 -0.928,1.12 -2.496,1.728 -1.568,0.608 -3.424,0.608 z"
         transform="matrix(0.81818182,0,0,0.81818182,92.441273,530.01707)" /><path
         id="path554204"
         style="font-style:normal;font-weight:300;font-size:32px;line-height:1;font-family:Comfortaa;font-variant-ligatures:none;text-align:center;text-anchor:middle;fill:#f2f2f2"
         d="m 498.7925,0 q -0.416,0 -0.704,-0.256 -0.256,-0.288 -0.256,-0.704 v -15.584 q 0,-0.448 0.256,-0.704 0.288,-0.256 0.704,-0.256 0.448,0 0.704,0.256 0.256,0.256 0.256,0.704 V -0.96 q 0,0.416 -0.256,0.704 Q 499.2405,0 498.7925,0 Z m -0.032,-21.184 q -0.64,0 -1.056,-0.416 -0.416,-0.448 -0.416,-1.088 0,-0.704 0.448,-1.088 0.448,-0.384 1.056,-0.384 0.608,0 1.024,0.384 0.448,0.384 0.448,1.088 0,0.64 -0.448,1.088 -0.416,0.416 -1.056,0.416 z"
         transform="matrix(0.81818182,0,0,0.81818182,92.441273,530.01707)" /><path
         id="path554206"
         style="font-style:normal;font-weight:300;font-size:32px;line-height:1;font-family:Comfortaa;font-variant-ligatures:none;text-align:center;text-anchor:middle;fill:#f2f2f2"
         d="m 514.13,-17.728 q 2.336,0 4.16,0.96 1.856,0.96 2.88,2.816 1.056,1.824 1.056,4.384 v 8.608 q 0,0.416 -0.288,0.704 Q 521.682,0 521.266,0 q -0.416,0 -0.704,-0.256 -0.256,-0.288 -0.256,-0.704 v -8.608 q 0,-3.04 -1.728,-4.64 -1.696,-1.6 -4.448,-1.6 -1.696,0 -3.104,0.672 -1.376,0.64 -2.176,1.824 -0.8,1.152 -0.8,2.56 v 9.792 q 0,0.416 -0.256,0.704 Q 507.538,0 507.09,0 506.674,0 506.386,-0.256 506.13,-0.544 506.13,-0.96 v -15.584 q 0,-0.448 0.256,-0.704 0.288,-0.256 0.704,-0.256 0.448,0 0.704,0.256 0.256,0.256 0.256,0.704 v 1.664 q 1.088,-1.344 2.656,-2.08 1.568,-0.768 3.424,-0.768 z"
         transform="matrix(0.81818182,0,0,0.81818182,92.441273,530.01707)" /><path
         id="path554208"
         style="font-style:normal;font-weight:300;font-size:32px;line-height:1;font-family:Comfortaa;font-variant-ligatures:none;text-align:center;text-anchor:middle;fill:#f2f2f2"
         d="m 535.5965,-1.952 q 0.448,0 0.704,0.288 0.288,0.256 0.288,0.704 0,0.416 -0.288,0.704 Q 536.0445,0 535.5965,0 h -0.736 q -1.76,0 -3.136,-0.8 -1.376,-0.8 -2.144,-2.176 -0.768,-1.408 -0.768,-3.168 v -8.992 h -2.496 q -0.384,0 -0.64,-0.224 -0.224,-0.256 -0.224,-0.64 0,-0.384 0.224,-0.608 0.256,-0.256 0.64,-0.256 h 2.496 v -5.216 q 0,-0.448 0.256,-0.704 0.288,-0.288 0.704,-0.288 0.448,0 0.704,0.288 0.288,0.256 0.288,0.704 v 5.216 h 4.224 q 0.384,0 0.608,0.256 0.256,0.224 0.256,0.608 0,0.384 -0.256,0.64 -0.224,0.224 -0.608,0.224 h -4.224 v 8.992 q 0,1.856 1.152,3.04 1.152,1.152 2.976,1.152 z"
         transform="matrix(0.81818182,0,0,0.81818182,92.441273,530.01707)" /><path
         id="path554210"
         style="font-style:normal;font-weight:300;font-size:32px;line-height:1;font-family:Comfortaa;font-variant-ligatures:none;text-align:center;text-anchor:middle;fill:#f2f2f2"
         d="m 547.8315,-17.664 q 2.336,0 4.16,1.12 1.856,1.088 2.88,3.04 1.024,1.952 1.024,4.448 0,0.416 -0.256,0.672 -0.256,0.224 -0.672,0.224 h -13.408 q 0.096,1.888 0.992,3.392 0.896,1.472 2.4,2.304 1.504,0.832 3.36,0.832 1.248,0 2.496,-0.416 1.28,-0.448 2.016,-1.152 0.32,-0.256 0.672,-0.256 0.352,0 0.576,0.192 0.352,0.288 0.352,0.672 0,0.32 -0.288,0.608 -1.024,0.928 -2.688,1.536 -1.632,0.608 -3.136,0.608 -2.528,0 -4.512,-1.12 -1.952,-1.152 -3.072,-3.168 -1.12,-2.048 -1.12,-4.608 0,-2.592 1.024,-4.608 1.056,-2.048 2.912,-3.168 1.888,-1.152 4.288,-1.152 z m 0,1.792 q -2.496,0 -4.224,1.664 -1.696,1.664 -2.016,4.384 h 12.448 q -0.224,-2.72 -1.92,-4.384 -1.696,-1.664 -4.288,-1.664 z"
         transform="matrix(0.81818182,0,0,0.81818182,92.441273,530.01707)" /><path
         id="path554212"
         style="font-style:normal;font-weight:300;font-size:32px;line-height:1;font-family:Comfortaa;font-variant-ligatures:none;text-align:center;text-anchor:middle;fill:#f2f2f2"
         d="m 563.5875,0 q -1.824,0 -3.008,-1.472 -1.152,-1.472 -1.152,-3.808 v -18.752 q 0,-0.448 0.256,-0.704 0.288,-0.256 0.704,-0.256 0.448,0 0.704,0.256 0.256,0.256 0.256,0.704 V -5.28 q 0,1.472 0.608,2.432 0.64,0.928 1.632,0.928 h 0.8 q 0.352,0 0.576,0.256 0.224,0.256 0.224,0.704 0,0.416 -0.256,0.704 Q 564.6755,0 564.2275,0 Z"
         transform="matrix(0.81818182,0,0,0.81818182,92.441273,530.01707)" /><path
         id="path554214"
         style="font-style:normal;font-weight:300;font-size:32px;line-height:1;font-family:Comfortaa;font-variant-ligatures:none;text-align:center;text-anchor:middle;fill:#f2f2f2"
         d="m 572.2125,0 q -1.824,0 -3.008,-1.472 -1.152,-1.472 -1.152,-3.808 v -18.752 q 0,-0.448 0.256,-0.704 0.288,-0.256 0.704,-0.256 0.448,0 0.704,0.256 0.256,0.256 0.256,0.704 V -5.28 q 0,1.472 0.608,2.432 0.64,0.928 1.632,0.928 h 0.8 q 0.352,0 0.576,0.256 0.224,0.256 0.224,0.704 0,0.416 -0.256,0.704 Q 573.3005,0 572.8525,0 Z"
         transform="matrix(0.81818182,0,0,0.81818182,92.441273,530.01707)" /><path
         id="path554216"
         style="font-style:normal;font-weight:300;font-size:32px;line-height:1;font-family:Comfortaa;font-variant-ligatures:none;text-align:center;text-anchor:middle;fill:#f2f2f2"
         d="m 578.9175,0 q -0.416,0 -0.704,-0.256 -0.256,-0.288 -0.256,-0.704 v -15.584 q 0,-0.448 0.256,-0.704 0.288,-0.256 0.704,-0.256 0.448,0 0.704,0.256 0.256,0.256 0.256,0.704 V -0.96 q 0,0.416 -0.256,0.704 Q 579.3655,0 578.9175,0 Z m -0.032,-21.184 q -0.64,0 -1.056,-0.416 -0.416,-0.448 -0.416,-1.088 0,-0.704 0.448,-1.088 0.448,-0.384 1.056,-0.384 0.608,0 1.024,0.384 0.448,0.384 0.448,1.088 0,0.64 -0.448,1.088 -0.416,0.416 -1.056,0.416 z"
         transform="matrix(0.81818182,0,0,0.81818182,92.441273,530.01707)" /><path
         id="path554218"
         style="font-style:normal;font-weight:300;font-size:32px;line-height:1;font-family:Comfortaa;font-variant-ligatures:none;text-align:center;text-anchor:middle;fill:#f2f2f2"
         d="m 594.255,-17.696 q 2.592,0 4.608,1.152 2.048,1.152 3.168,3.2 1.152,2.016 1.152,4.608 v 6.272 q 0,2.56 -1.152,4.64 -1.152,2.112 -3.168,3.296 -2.016,1.216 -4.48,1.216 -2.528,0 -4.448,-0.96 -1.888,-0.928 -3.168,-2.56 -0.256,-0.32 -0.256,-0.64 0,-0.384 0.32,-0.608 0.256,-0.192 0.576,-0.192 0.512,0 0.832,0.416 1.056,1.28 2.592,2.016 1.568,0.736 3.552,0.736 1.952,0 3.52,-0.96 1.568,-0.96 2.464,-2.656 0.896,-1.664 0.896,-3.744 v -1.408 q -0.928,1.888 -2.784,2.976 -1.824,1.088 -4.224,1.088 -2.592,0 -4.64,-1.12 -2.016,-1.152 -3.168,-3.168 -1.152,-2.048 -1.152,-4.64 0,-2.56 1.184,-4.608 1.184,-2.048 3.232,-3.2 2.048,-1.152 4.544,-1.152 z m 0,16.096 q 2.016,0 3.616,-0.896 1.6,-0.928 2.496,-2.528 0.896,-1.632 0.896,-3.712 0,-2.08 -0.896,-3.712 -0.896,-1.632 -2.496,-2.528 -1.6,-0.928 -3.616,-0.928 -2.048,0 -3.648,0.928 -1.6,0.896 -2.496,2.528 -0.896,1.632 -0.896,3.712 0,2.08 0.896,3.712 0.896,1.6 2.496,2.528 1.6,0.896 3.648,0.896 z"
         transform="matrix(0.81818182,0,0,0.81818182,92.441273,530.01707)" /><path
         id="path554220"
         style="font-style:normal;font-weight:300;font-size:32px;line-height:1;font-family:Comfortaa;font-variant-ligatures:none;text-align:center;text-anchor:middle;fill:#f2f2f2"
         d="m 615.269,-17.664 q 2.336,0 4.16,1.12 1.856,1.088 2.88,3.04 1.024,1.952 1.024,4.448 0,0.416 -0.256,0.672 -0.256,0.224 -0.672,0.224 h -13.408 q 0.096,1.888 0.992,3.392 0.896,1.472 2.4,2.304 1.504,0.832 3.36,0.832 1.248,0 2.496,-0.416 1.28,-0.448 2.016,-1.152 0.32,-0.256 0.672,-0.256 0.352,0 0.576,0.192 0.352,0.288 0.352,0.672 0,0.32 -0.288,0.608 -1.024,0.928 -2.688,1.536 -1.632,0.608 -3.136,0.608 -2.528,0 -4.512,-1.12 -1.952,-1.152 -3.072,-3.168 -1.12,-2.048 -1.12,-4.608 0,-2.592 1.024,-4.608 1.056,-2.048 2.912,-3.168 1.888,-1.152 4.288,-1.152 z m 0,1.792 q -2.496,0 -4.224,1.664 -1.696,1.664 -2.016,4.384 h 12.448 q -0.224,-2.72 -1.92,-4.384 -1.696,-1.664 -4.288,-1.664 z"
         transform="matrix(0.81818182,0,0,0.81818182,92.441273,530.01707)" /><path
         id="path554222"
         style="font-style:normal;font-weight:300;font-size:32px;line-height:1;font-family:Comfortaa;font-variant-ligatures:none;text-align:center;text-anchor:middle;fill:#f2f2f2"
         d="m 635.505,-17.728 q 2.336,0 4.16,0.96 1.856,0.96 2.88,2.816 1.056,1.824 1.056,4.384 v 8.608 q 0,0.416 -0.288,0.704 Q 643.057,0 642.641,0 q -0.416,0 -0.704,-0.256 -0.256,-0.288 -0.256,-0.704 v -8.608 q 0,-3.04 -1.728,-4.64 -1.696,-1.6 -4.448,-1.6 -1.696,0 -3.104,0.672 -1.376,0.64 -2.176,1.824 -0.8,1.152 -0.8,2.56 v 9.792 q 0,0.416 -0.256,0.704 Q 628.913,0 628.465,0 q -0.416,0 -0.704,-0.256 -0.256,-0.288 -0.256,-0.704 v -15.584 q 0,-0.448 0.256,-0.704 0.288,-0.256 0.704,-0.256 0.448,0 0.704,0.256 0.256,0.256 0.256,0.704 v 1.664 q 1.088,-1.344 2.656,-2.08 1.568,-0.768 3.424,-0.768 z"
         transform="matrix(0.81818182,0,0,0.81818182,92.441273,530.01707)" /><path
         id="path554224"
         style="font-style:normal;font-weight:300;font-size:32px;line-height:1;font-family:Comfortaa;font-variant-ligatures:none;text-align:center;text-anchor:middle;fill:#f2f2f2"
         d="m 656.8115,0.192 q -2.464,0 -4.448,-1.152 -1.984,-1.184 -3.136,-3.232 -1.12,-2.048 -1.12,-4.544 0,-2.528 1.056,-4.544 1.056,-2.048 2.944,-3.2 1.888,-1.184 4.224,-1.184 2.048,0 3.744,0.8 1.696,0.8 2.944,2.368 0.224,0.32 0.224,0.544 0,0.448 -0.448,0.704 -0.224,0.192 -0.512,0.192 -0.448,0 -0.736,-0.384 -2.048,-2.432 -5.216,-2.432 -1.856,0 -3.296,0.928 -1.44,0.896 -2.24,2.528 -0.768,1.632 -0.768,3.68 0,2.016 0.864,3.648 0.864,1.632 2.4,2.56 1.536,0.928 3.52,0.928 2.816,0 4.512,-1.568 0.288,-0.288 0.672,-0.288 0.352,0 0.576,0.224 0.32,0.288 0.32,0.704 0,0.352 -0.256,0.576 -1.12,1.024 -2.624,1.6 -1.504,0.544 -3.2,0.544 z"
         transform="matrix(0.81818182,0,0,0.81818182,92.441273,530.01707)" /><path
         id="path554226"
         style="font-style:normal;font-weight:300;font-size:32px;line-height:1;font-family:Comfortaa;font-variant-ligatures:none;text-align:center;text-anchor:middle;fill:#f2f2f2"
         d="m 675.3315,-17.664 q 2.336,0 4.16,1.12 1.856,1.088 2.88,3.04 1.024,1.952 1.024,4.448 0,0.416 -0.256,0.672 -0.256,0.224 -0.672,0.224 h -13.408 q 0.096,1.888 0.992,3.392 0.896,1.472 2.4,2.304 1.504,0.832 3.36,0.832 1.248,0 2.496,-0.416 1.28,-0.448 2.016,-1.152 0.32,-0.256 0.672,-0.256 0.352,0 0.576,0.192 0.352,0.288 0.352,0.672 0,0.32 -0.288,0.608 -1.024,0.928 -2.688,1.536 -1.632,0.608 -3.136,0.608 -2.528,0 -4.512,-1.12 -1.952,-1.152 -3.072,-3.168 -1.12,-2.048 -1.12,-4.608 0,-2.592 1.024,-4.608 1.056,-2.048 2.912,-3.168 1.888,-1.152 4.288,-1.152 z m 0,1.792 q -2.496,0 -4.224,1.664 -1.696,1.664 -2.016,4.384 h 12.448 q -0.224,-2.72 -1.92,-4.384 -1.696,-1.664 -4.288,-1.664 z"
         transform="matrix(0.81818182,0,0,0.81818182,92.441273,530.01707)" /></g></g></svg>