<?xml version="1.0" encoding="UTF-8" standalone="no"?>
<svg
   xmlns:dc="http://purl.org/dc/elements/1.1/"
   xmlns:cc="http://creativecommons.org/ns#"
   xmlns:rdf="http://www.w3.org/1999/02/22-rdf-syntax-ns#"
   xmlns:svg="http://www.w3.org/2000/svg"
   xmlns="http://www.w3.org/2000/svg"
   id="svg6"
   xml:space="preserve"
   enable-background="new 0 0 1024 1024"
   viewBox="0 0 1024 1024"
   y="0px"
   x="0px"
   version="1.1"><metadata
     id="metadata12"><rdf:RDF><cc:Work
         rdf:about=""><dc:format>image/svg+xml</dc:format><dc:type
           rdf:resource="http://purl.org/dc/dcmitype/StillImage" /></cc:Work></rdf:RDF></metadata><defs
     id="defs10" /><g
     id="g4"
     transform="translate(0,128)"><path
       style="fill:#ffffff"
       id="path2"
       d="m 437.589,275.06968 c 0.0149,0 0.22729,0.10992 0.48074,0.23292 0.25527,0.13045 0.55341,0.31304 0.67078,0.41551 0.1081,0.095 0.26835,0.32049 0.35592,0.49382 0.11737,0.24037 0.1528,0.39316 0.1528,0.71366 0,0.27761 -0.0354,0.48819 -0.11555,0.66333 -0.0596,0.14535 -0.19749,0.35592 -0.29996,0.47329 -0.10065,0.11555 -0.33357,0.28324 -0.51616,0.37082 -0.27017,0.1379 -0.40806,0.16769 -0.74163,0.16025 -0.29996,0 -0.47329,-0.0372 -0.67823,-0.13227 -0.14535,-0.0727 -0.37827,-0.24037 -0.50871,-0.37082 -0.1379,-0.1379 -0.29069,-0.37827 -0.35774,-0.55341 -0.0652,-0.17332 -0.11555,-0.44349 -0.11555,-0.59629 0,-0.16025 0.0503,-0.43604 0.11555,-0.60374 0.0876,-0.21802 0.21239,-0.40806 0.40806,-0.59066 0.16025,-0.1528 0.48074,-0.36337 0.71366,-0.47329 0.23292,-0.1081 0.42859,-0.20312 0.43604,-0.20312 z m -5.40001,-18.21054 c 0.18259,0.0205 0.45839,0.10065 0.64098,0.19567 0.20312,0.10247 0.39316,0.25527 0.53106,0.43786 0.11555,0.15843 0.24037,0.38571 0.27579,0.50126 0.0372,0.123 0.0652,0.36337 0.0652,0.53851 0,0.19004 -0.0652,0.51053 -0.16588,0.80868 l -0.16025,0.49382 -0.55341,0.18259 c -0.29814,0.10992 -0.64098,0.19004 -0.75653,0.19004 -0.11737,0.006 -0.34284,-0.0372 -0.50308,-0.0801 -0.16025,-0.0521 -0.40806,-0.17514 -0.54596,-0.28506 -0.14535,-0.1081 -0.33539,-0.33357 -0.42859,-0.50126 -0.10992,-0.21239 -0.17514,-0.42296 -0.19004,-0.66333 -0.0149,-0.19567 0,-0.46584 0.0372,-0.59629 0.028,-0.13045 0.13045,-0.35029 0.22547,-0.48074 0.0876,-0.13045 0.27579,-0.32794 0.41369,-0.42859 0.13972,-0.10247 0.37827,-0.21984 0.52543,-0.26272 0.1528,-0.0429 0.40624,-0.0652 0.58884,-0.0503 z m -0.22547,-2.64223 c -0.11737,0.007 -0.34284,0.028 -0.50308,0.0503 -0.16588,0.0224 -0.45094,0.0876 -0.64661,0.14535 -0.19004,0.0503 -0.55341,0.20494 -0.80868,0.33539 -0.35592,0.18077 -0.59629,0.37082 -0.9671,0.74163 -0.27017,0.27761 -0.58321,0.64843 -0.69313,0.83102 -0.10065,0.18077 -0.26835,0.56649 -0.37082,0.8441 -0.14535,0.42114 -0.18077,0.63353 -0.20312,1.18512 -0.0224,0.55341 -0.007,0.75835 0.095,1.16459 0.0652,0.27017 0.23292,0.71366 0.37082,0.98382 0.16769,0.33357 0.37827,0.62608 0.67641,0.94657 0.24782,0.2609 0.61118,0.56649 0.859,0.72673 0.24037,0.14535 0.61118,0.32794 0.8292,0.40061 0.21984,0.0801 0.59066,0.16769 0.83102,0.21057 0.24782,0.0373 0.63353,0.0521 0.90188,0.0298 0.25527,-0.0224 0.61118,-0.0727 0.78633,-0.123 l 0.32049,-0.0876 2.24162,2.24162 v 8.23973 l -0.32794,0.18822 c -0.17514,0.10247 -0.49382,0.34284 -0.69876,0.53106 -0.20312,0.19004 -0.48819,0.53288 -0.64098,0.7509 -0.14535,0.21802 -0.32612,0.55341 -0.39879,0.73418 -0.0727,0.19004 -0.17514,0.53851 -0.22729,0.78633 -0.0503,0.24782 -0.0932,0.65588 -0.0932,0.9037 0,0.246 0.0503,0.66151 0.1081,0.92423 0.0652,0.25345 0.16769,0.58884 0.24037,0.74908 0.0652,0.16025 0.24037,0.46584 0.38571,0.68386 0.1379,0.21802 0.44531,0.56086 0.66333,0.76398 0.27579,0.25527 0.58139,0.46584 0.94657,0.64843 0.29814,0.14535 0.69876,0.30559 0.88698,0.35592 0.19004,0.0447 0.53851,0.10247 0.78633,0.12482 0.29814,0.0224 0.61863,0.007 0.98945,-0.0578 0.29814,-0.0596 0.7211,-0.16769 0.93168,-0.26272 0.21057,-0.0876 0.54596,-0.27017 0.74345,-0.40061 0.20312,-0.1379 0.49382,-0.38571 0.66151,-0.55341 0.16769,-0.1677 0.37082,-0.41369 0.46584,-0.53851 0.0876,-0.13045 0.24037,-0.40061 0.34284,-0.60374 0.10065,-0.20312 0.24037,-0.57576 0.30559,-0.81613 0.0801,-0.31304 0.11555,-0.63171 0.11555,-1.05467 0,-0.42859 -0.0354,-0.75653 -0.123,-1.06957 -0.0578,-0.24782 -0.21802,-0.65588 -0.35029,-0.9037 -0.13045,-0.25345 -0.35592,-0.60374 -0.50871,-0.77888 -0.1528,-0.18077 -0.39316,-0.42114 -0.53106,-0.53851 -0.1379,-0.11555 -0.39316,-0.29069 -0.56831,-0.39879 l -0.31304,-0.19004 v -9.79004 l -1.67331,-1.66586 -1.66768,-1.67513 0.10247,-0.49563 c 0.0801,-0.38571 0.10247,-0.64661 0.0727,-1.15714 -0.0224,-0.45094 -0.0727,-0.77888 -0.16025,-1.03978 -0.0652,-0.20494 -0.21802,-0.55341 -0.33539,-0.77888 -0.11555,-0.22547 -0.39316,-0.59066 -0.63916,-0.859 -0.24782,-0.26272 -0.613,-0.56831 -0.85337,-0.71366 -0.22547,-0.1379 -0.60374,-0.32049 -0.8292,-0.40806 -0.22547,-0.0801 -0.61863,-0.17332 -0.86645,-0.20312 -0.24037,-0.0373 -0.54596,-0.0652 -0.66151,-0.0578 z m 83.06444,21.07079 c 0.16025,0.0149 0.40061,0.0727 0.53106,0.13227 0.13045,0.0578 0.34284,0.21057 0.46584,0.33357 0.12482,0.12482 0.34284,0.43786 0.47329,0.69876 l 0.25527,0.48074 -0.24037,0.46584 c -0.12482,0.25527 -0.30559,0.55341 -0.40061,0.66333 -0.095,0.10065 -0.31304,0.26835 -0.48819,0.36337 -0.2609,0.14535 -0.37082,0.17514 -0.74163,0.17514 -0.32049,-0.007 -0.51053,-0.0373 -0.69876,-0.12482 -0.14535,-0.0727 -0.36337,-0.21802 -0.48074,-0.34102 -0.123,-0.11737 -0.27579,-0.32049 -0.34284,-0.45839 -0.0727,-0.13227 -0.1379,-0.40061 -0.1528,-0.59811 -0.0205,-0.24782 0,-0.45094 0.067,-0.65406 0.0503,-0.16025 0.20312,-0.41551 0.33357,-0.56086 0.13227,-0.1528 0.34284,-0.32049 0.46584,-0.38571 0.12482,-0.0652 0.32049,-0.1379 0.44531,-0.16769 0.11555,-0.0298 0.34847,-0.0429 0.50871,-0.0224 z m 61.13465,-22.70867 c 0.19567,0 0.47329,0.0354 0.61863,0.0876 0.14535,0.0503 0.37082,0.18077 0.49382,0.28324 0.12482,0.10992 0.30559,0.33539 0.40061,0.50871 0.1528,0.27761 0.17514,0.37264 0.17514,0.77888 0,0.41551 -0.0224,0.50308 -0.18259,0.78633 -0.10065,0.18259 -0.29814,0.40806 -0.45839,0.53106 -0.1528,0.11737 -0.37082,0.24037 -0.49563,0.27761 -0.123,0.0354 -0.36337,0.0652 -0.53106,0.0652 -0.18077,0 -0.53106,-0.0727 -0.80686,-0.16025 l -0.48819,-0.16025 -0.1379,-0.40806 c -0.0801,-0.22547 -0.16769,-0.53851 -0.19749,-0.69131 -0.0429,-0.21802 -0.0354,-0.37827 0.0373,-0.63916 0.0429,-0.19004 0.1528,-0.44531 0.24037,-0.56086 0.0801,-0.10992 0.20312,-0.25527 0.27579,-0.31304 0.0652,-0.0578 0.24782,-0.16769 0.41551,-0.24782 0.20312,-0.10247 0.38571,-0.1379 0.64098,-0.1379 z m 0.028,-2.61988 c -0.41369,0 -0.75653,0.0429 -1.04722,0.11555 -0.23292,0.0578 -0.56831,0.17514 -0.736,0.25527 -0.16769,0.0727 -0.46584,0.24782 -0.65406,0.37082 -0.19004,0.13045 -0.51798,0.42296 -0.72855,0.64843 -0.21802,0.24037 -0.48074,0.60374 -0.61863,0.87953 -0.13045,0.25527 -0.29814,0.66333 -0.36337,0.91678 -0.0801,0.30741 -0.11737,0.64098 -0.12482,1.06394 0,0.40806 0.0372,0.74908 0.10247,1.0118 l 0.10247,0.40061 -19.39186,19.39004 H 518.6969 l -0.14535,-0.27761 c -0.0727,-0.1528 -0.38009,-0.50871 -0.67078,-0.79941 -0.40061,-0.40061 -0.63353,-0.58321 -0.98945,-0.77143 -0.26272,-0.13227 -0.68386,-0.29814 -0.93912,-0.37264 -0.33539,-0.0932 -0.61863,-0.123 -1.06957,-0.123 -0.37827,0 -0.77143,0.0373 -1.01925,0.095 -0.22547,0.0578 -0.61863,0.20312 -0.8739,0.32794 -0.2609,0.123 -0.61863,0.34847 -0.79941,0.48637 -0.18259,0.14535 -0.46584,0.43041 -0.63353,0.63353 -0.16769,0.20494 -0.42296,0.60374 -0.56086,0.8888 -0.14535,0.32049 -0.28324,0.71928 -0.34284,1.01925 -0.0727,0.34847 -0.0932,0.66151 -0.0727,1.08447 0.0224,0.44349 0.0727,0.70621 0.21239,1.09192 0.0932,0.27579 0.2609,0.65406 0.36337,0.83665 0.1081,0.18077 0.36337,0.50871 0.57394,0.72673 0.20494,0.21984 0.54596,0.51798 0.7658,0.66333 0.22547,0.14535 0.55159,0.32794 0.74163,0.40806 0.19004,0.0727 0.56086,0.18077 0.8292,0.24037 0.35774,0.0727 0.64098,0.0857 1.04904,0.0578 0.30559,-0.0149 0.73418,-0.0876 0.96147,-0.16025 0.22547,-0.0652 0.55159,-0.19749 0.72673,-0.28324 0.17514,-0.0876 0.48074,-0.28506 0.68386,-0.43786 0.19749,-0.14535 0.45839,-0.39316 0.59066,-0.53851 0.123,-0.1528 0.32049,-0.42859 0.43604,-0.61118 l 0.21802,-0.33539 h 35.51358 l 20.53228,-20.53228 0.48819,0.095 c 0.26272,0.0578 0.69876,0.0932 0.96892,0.0932 0.26835,0 0.66896,-0.0354 0.90188,-0.0876 0.23292,-0.0503 0.65588,-0.21057 0.94657,-0.34847 0.28324,-0.1379 0.67641,-0.38571 0.8739,-0.54596 0.18822,-0.1528 0.48637,-0.46584 0.64661,-0.68386 0.16769,-0.21802 0.38571,-0.56831 0.48074,-0.77888 0.10247,-0.20494 0.22547,-0.54596 0.28324,-0.75653 0.0727,-0.27017 0.10247,-0.59066 0.10247,-1.10682 0,-0.59811 -0.0298,-0.80868 -0.1379,-1.16459 -0.0727,-0.24037 -0.22547,-0.61118 -0.33539,-0.81613 -0.1081,-0.21057 -0.32794,-0.54596 -0.49382,-0.74163 -0.16769,-0.20494 -0.47329,-0.49563 -0.68568,-0.65588 -0.21057,-0.16025 -0.55341,-0.37082 -0.75653,-0.47329 -0.20312,-0.0932 -0.56831,-0.23292 -0.81431,-0.29069 -0.29996,-0.0801 -0.62608,-0.1081 -1.05649,-0.1081 z m 1.90805,22.28571 c 0.16588,0.0149 0.50871,0.0876 0.76398,0.17514 l 0.45094,0.14535 0.16769,0.51053 c 0.1081,0.33357 0.16769,0.63353 0.16769,0.859 0,0.24037 -0.0373,0.44349 -0.13227,0.63916 -0.0727,0.16025 -0.22547,0.39316 -0.34102,0.51053 -0.10992,0.11555 -0.34284,0.27579 -0.50308,0.34847 -0.22547,0.095 -0.40806,0.13227 -0.70621,0.13227 -0.32612,-0.007 -0.47329,-0.0373 -0.69876,-0.16025 -0.16025,-0.0801 -0.37827,-0.23292 -0.47892,-0.34284 -0.10247,-0.1081 -0.24782,-0.32794 -0.32049,-0.48819 -0.095,-0.21802 -0.13227,-0.39134 -0.13227,-0.69876 0.007,-0.31867 0.0372,-0.46584 0.16025,-0.69876 0.0801,-0.16588 0.25527,-0.39134 0.38571,-0.51616 0.13972,-0.11555 0.31304,-0.24782 0.40061,-0.27579 0.0876,-0.0373 0.24037,-0.0876 0.33539,-0.11737 0.095,-0.0224 0.31304,-0.0354 0.48074,-0.0224 z m 14.14845,-31.29124 c 0.16769,0.0149 0.39316,0.067 0.51798,0.11737 0.11555,0.0503 0.33357,0.19567 0.48074,0.33539 0.14535,0.13045 0.31867,0.34102 0.38571,0.47329 0.10065,0.18822 0.123,0.34102 0.123,0.73418 0,0.43786 -0.0149,0.53106 -0.16769,0.80123 -0.095,0.17514 -0.26835,0.38571 -0.37827,0.48074 -0.11555,0.0876 -0.40806,0.2609 -0.64843,0.37827 l -0.44349,0.21802 -0.53851,-0.27761 c -0.34284,-0.17332 -0.60374,-0.35592 -0.736,-0.50871 -0.1081,-0.13045 -0.23855,-0.34847 -0.28324,-0.50126 -0.0503,-0.14717 -0.095,-0.41551 -0.095,-0.59066 0,-0.18259 0.0298,-0.42114 0.067,-0.53106 0.0429,-0.10992 0.14535,-0.30559 0.23292,-0.43604 0.0857,-0.13227 0.29069,-0.32049 0.44349,-0.42296 0.16025,-0.10247 0.38571,-0.21057 0.51616,-0.24037 0.12482,-0.0298 0.36337,-0.0429 0.52361,-0.0298 z m 0.0596,-2.61988 c -0.32794,-0.0205 -0.68568,0 -0.93912,0.0521 -0.22547,0.0429 -0.58321,0.14535 -0.79378,0.22547 -0.21057,0.0801 -0.56086,0.25345 -0.77143,0.38571 -0.21057,0.13045 -0.57576,0.45094 -0.80868,0.69876 -0.28324,0.29814 -0.52361,0.62608 -0.67641,0.93168 -0.1379,0.25345 -0.29814,0.66896 -0.35592,0.91678 -0.0801,0.30559 -0.11737,0.64098 -0.11737,1.06957 0,0.42296 0.0372,0.75653 0.10992,1.06212 0.0652,0.24037 0.20312,0.61863 0.32049,0.83847 0.1081,0.21802 0.25345,0.47892 0.31867,0.57394 0.067,0.095 0.28506,0.34284 0.48819,0.54596 0.19749,0.20494 0.53851,0.47329 0.75653,0.61118 l 0.39316,0.24037 v 12.47696 l -5.42981,5.42981 -5.43726,5.42981 -0.34847,-0.095 c -0.23292,-0.0652 -0.57576,-0.095 -1.01925,-0.095 -0.45094,0 -0.80123,0.0298 -1.04904,0.095 -0.21057,0.0578 -0.58884,0.20312 -0.8441,0.32794 -0.2609,0.13045 -0.62608,0.35592 -0.81431,0.50871 -0.19749,0.16025 -0.48074,0.44349 -0.63353,0.63353 -0.15279,0.19004 -0.38571,0.56086 -0.50871,0.81431 -0.12482,0.25527 -0.27761,0.63353 -0.32794,0.84592 -0.0727,0.25345 -0.10247,0.59629 -0.10247,1.04722 0,0.45093 0.0298,0.79378 0.10247,1.04904 0.0503,0.21057 0.20312,0.58884 0.32794,0.8441 0.123,0.2609 0.35592,0.62608 0.50871,0.81431 0.1528,0.19749 0.43604,0.47329 0.62608,0.62608 0.18822,0.1528 0.51616,0.36337 0.72855,0.48074 0.21057,0.10992 0.59629,0.26272 0.85155,0.33539 0.35592,0.10065 0.61118,0.13045 1.1348,0.13045 0.45094,-0.007 0.79378,-0.0373 1.04722,-0.10992 0.21239,-0.0503 0.56086,-0.18822 0.78633,-0.29069 0.22547,-0.10247 0.56831,-0.31304 0.77143,-0.45839 0.19749,-0.14535 0.50308,-0.44349 0.68568,-0.66151 0.18077,-0.21984 0.42859,-0.60555 0.55159,-0.86645 0.13227,-0.25527 0.27761,-0.64843 0.32794,-0.8739 0.0652,-0.26272 0.10247,-0.63353 0.10247,-1.04904 0,-0.40624 -0.0373,-0.76398 -0.095,-0.98945 l -0.095,-0.34847 5.96832,-5.97577 5.97759,-5.96832 v -14.1074 l 0.41369,-0.2609 c 0.22547,-0.14717 0.58321,-0.44531 0.80123,-0.67078 0.21057,-0.22547 0.47329,-0.56086 0.58139,-0.74163 0.10992,-0.18259 0.27761,-0.56086 0.38009,-0.8441 l 0.18077,-0.51053 v -1.68821 l -0.18077,-0.50871 c -0.10247,-0.28506 -0.27017,-0.66333 -0.38009,-0.85155 -0.1081,-0.18259 -0.42114,-0.55341 -0.69131,-0.83102 -0.41369,-0.42114 -0.58884,-0.54596 -1.04722,-0.77143 -0.30559,-0.1528 -0.71366,-0.31304 -0.9037,-0.36337 -0.18822,-0.0447 -0.58139,-0.095 -0.87208,-0.11737 v 0.007 z M 464.04854,344.47949 c 0.0429,0 0.2609,0.095 0.48637,0.20312 0.22547,0.11737 0.51053,0.30741 0.64098,0.42296 0.13045,0.11737 0.30559,0.34284 0.39316,0.50871 0.11737,0.23292 0.14535,0.37264 0.14535,0.69876 0,0.29251 -0.028,0.48819 -0.11555,0.67823 -0.067,0.14535 -0.20494,0.35592 -0.30559,0.47329 -0.10247,0.11555 -0.33539,0.28324 -0.51053,0.37082 -0.24782,0.123 -0.40061,0.16025 -0.70621,0.16025 -0.26835,0 -0.48074,-0.0373 -0.65406,-0.11737 -0.14535,-0.0652 -0.36519,-0.20312 -0.48819,-0.31304 -0.11737,-0.10065 -0.28324,-0.32049 -0.35592,-0.47329 -0.0801,-0.1528 -0.16025,-0.41369 -0.18259,-0.58884 -0.0224,-0.21802 -0.007,-0.41551 0.0652,-0.64843 0.0652,-0.24037 0.17514,-0.42114 0.35592,-0.61863 0.15462,-0.16588 0.45276,-0.37827 0.71366,-0.51616 0.24782,-0.13045 0.48074,-0.24037 0.51798,-0.24037 z M 432.13121,235.40827 c 0.25345,0.0149 0.47329,0.0652 0.67641,0.16769 0.16025,0.0876 0.37827,0.24782 0.47329,0.36337 0.10247,0.10992 0.23292,0.29069 0.28324,0.39316 0.0596,0.10992 0.10992,0.37082 0.12482,0.62608 0.0205,0.37082 -0.007,0.51616 -0.14535,0.93168 l -0.16769,0.48819 -0.49563,0.16769 c -0.32049,0.1081 -0.61118,0.17332 -0.8441,0.17332 -0.24037,0 -0.44349,-0.0354 -0.64098,-0.123 -0.16025,-0.0727 -0.38571,-0.22547 -0.50871,-0.34284 -0.12482,-0.11555 -0.27761,-0.32049 -0.34284,-0.45094 -0.0727,-0.1379 -0.13045,-0.39316 -0.1528,-0.61863 -0.0149,-0.21057 0.007,-0.47329 0.0447,-0.58884 0.0354,-0.10992 0.14535,-0.32049 0.23292,-0.46584 0.0932,-0.1528 0.27579,-0.34284 0.40624,-0.42296 0.12482,-0.0876 0.33539,-0.19567 0.45094,-0.24037 0.13972,-0.0503 0.36519,-0.0727 0.60555,-0.0578 z m 0.0876,-2.61988 c -0.41551,-0.0149 -0.77888,0.007 -1.0267,0.0578 -0.21802,0.0429 -0.57576,0.16025 -0.79378,0.25527 -0.22547,0.0932 -0.55341,0.2609 -0.736,0.38571 -0.18077,0.11555 -0.52361,0.42859 -0.76398,0.68386 -0.31304,0.32794 -0.50871,0.60374 -0.67641,0.93912 -0.123,0.26835 -0.28324,0.69876 -0.35592,0.97455 -0.10247,0.40806 -0.11737,0.60374 -0.095,1.16459 0.0224,0.51798 0.0652,0.77888 0.18822,1.13662 0.0876,0.2609 0.25527,0.63916 0.38571,0.859 0.12482,0.21057 0.36519,0.53106 0.53288,0.71184 0.16025,0.18259 0.45839,0.45276 0.66151,0.59066 0.19749,0.14535 0.53851,0.34102 0.74908,0.43604 0.21239,0.095 0.56086,0.21802 0.77888,0.27017 0.22729,0.0503 0.63353,0.0932 0.97637,0.0876 0.32794,0 0.75653,-0.0373 0.98945,-0.095 l 0.40061,-0.095 7.44595,7.44595 7.4534,7.44595 v 25.75897 l 6.89999,6.90744 6.90744,6.90744 v 46.86882 l -0.33539,0.18822 c -0.18077,0.10247 -0.55159,0.40806 -0.81431,0.67823 -0.37827,0.38571 -0.53106,0.58884 -0.74163,1.02488 -0.14717,0.29996 -0.30741,0.70621 -0.36519,0.9186 -0.0652,0.25345 -0.095,0.60374 -0.095,1.04722 0,0.45094 0.0298,0.79378 0.10247,1.04904 0.0578,0.21057 0.20494,0.58884 0.32794,0.8441 0.123,0.2609 0.35592,0.62608 0.51616,0.82176 0.16769,0.19749 0.44531,0.47329 0.63353,0.61863 0.18259,0.14535 0.45094,0.32794 0.59629,0.40806 0.14717,0.0876 0.45276,0.21802 0.68568,0.30559 0.23292,0.0801 0.63916,0.17514 0.91678,0.21057 0.34102,0.0372 0.64661,0.0447 0.95965,0 0.25527,-0.028 0.67078,-0.123 0.91115,-0.21057 0.24782,-0.0801 0.56649,-0.21802 0.71928,-0.29814 0.14717,-0.0876 0.43041,-0.29069 0.63353,-0.45094 0.20494,-0.16025 0.49563,-0.45839 0.66333,-0.67078 0.16025,-0.21057 0.37827,-0.56649 0.48637,-0.79378 0.10992,-0.22547 0.24037,-0.58884 0.29996,-0.81431 0.0578,-0.25527 0.10065,-0.64098 0.10065,-1.04904 0,-0.48637 -0.028,-0.74908 -0.13045,-1.09755 -0.0727,-0.24782 -0.19567,-0.59066 -0.27579,-0.75835 -0.0876,-0.16025 -0.27017,-0.45839 -0.40806,-0.65406 -0.1379,-0.20494 -0.40806,-0.49563 -0.59066,-0.66333 -0.18822,-0.16769 -0.47329,-0.38571 -0.63916,-0.47892 l -0.31304,-0.17514 v -48.44721 l -13.8671,-13.86703 v -25.75897 l -15.98383,-15.98383 0.095,-0.40806 c 0.0503,-0.23292 0.095,-0.66896 0.095,-0.98945 0,-0.37827 -0.0373,-0.72855 -0.10992,-1.01925 -0.0652,-0.24037 -0.20312,-0.61863 -0.31304,-0.83665 -0.11555,-0.21802 -0.32794,-0.56831 -0.48074,-0.77143 -0.1528,-0.19749 -0.43604,-0.49563 -0.63353,-0.65588 -0.19567,-0.16025 -0.52361,-0.37827 -0.73418,-0.48637 -0.21057,-0.10992 -0.56086,-0.25527 -0.78633,-0.32049 -0.27579,-0.0876 -0.61118,-0.1379 -1.04722,-0.1528 z m 42.84961,13.69006 c 0.16769,0.0149 0.51616,0.10247 0.77143,0.18259 l 0.45839,0.1528 0.17514,0.55341 c 0.10065,0.30559 0.18077,0.64843 0.18077,0.77143 0,0.123 -0.0429,0.35592 -0.0876,0.51616 -0.0578,0.19004 -0.18822,0.40806 -0.35592,0.59066 -0.14535,0.16025 -0.37082,0.34847 -0.50871,0.40624 -0.13227,0.067 -0.38009,0.13972 -0.54033,0.16025 -0.21057,0.0298 -0.39879,0.007 -0.62426,-0.0578 -0.17514,-0.0503 -0.43786,-0.17514 -0.57576,-0.28324 -0.1379,-0.10247 -0.32049,-0.30559 -0.40806,-0.45094 -0.095,-0.13972 -0.18822,-0.39316 -0.21802,-0.56831 -0.0429,-0.19749 -0.0429,-0.40806 0,-0.61118 0.0298,-0.16769 0.123,-0.42296 0.21057,-0.56086 0.0876,-0.1379 0.26272,-0.33539 0.37827,-0.42859 0.11737,-0.095 0.35774,-0.22729 0.52543,-0.28506 0.21057,-0.0801 0.40624,-0.10065 0.61863,-0.0876 z m -0.13227,-19.65838 c 0.19749,0 0.47329,0.0429 0.61863,0.0858 0.14717,0.0521 0.37264,0.18259 0.49563,0.29251 0.123,0.10065 0.29814,0.32612 0.38571,0.48637 0.10992,0.19749 0.16769,0.41551 0.19004,0.66333 0.028,0.31304 0,0.45094 -0.16025,0.91678 l -0.19004,0.54596 -0.49563,0.16769 c -0.41369,0.1379 -0.56649,0.16769 -0.90933,0.14535 -0.2609,-0.0149 -0.49382,-0.0652 -0.64661,-0.14535 -0.13972,-0.0727 -0.33539,-0.21802 -0.45276,-0.33539 -0.1081,-0.11555 -0.2609,-0.33539 -0.32612,-0.48074 -0.095,-0.20312 -0.13227,-0.38571 -0.13227,-0.68386 0,-0.30559 0.0372,-0.48074 0.1379,-0.69131 0.0745,-0.16025 0.22729,-0.37827 0.33539,-0.48819 0.10992,-0.1081 0.33539,-0.2609 0.50308,-0.34102 0.20312,-0.095 0.40061,-0.1379 0.64661,-0.1379 z m -0.007,-2.6217 c -0.37827,0 -0.72673,0.0447 -1.0118,0.11737 -0.2311,0.0652 -0.56649,0.17514 -0.73418,0.25527 -0.16769,0.0783 -0.46584,0.246 -0.65588,0.37827 -0.18822,0.123 -0.51616,0.41369 -0.72673,0.63916 -0.21802,0.24037 -0.48074,0.613 -0.61863,0.86645 -0.13227,0.25527 -0.29069,0.67078 -0.36519,0.92423 -0.0932,0.34284 -0.13045,0.61863 -0.13045,1.09937 0,0.48819 0.0372,0.75653 0.13045,1.10682 0.0745,0.25527 0.24037,0.66896 0.37264,0.93168 0.18077,0.34847 0.37082,0.59629 0.74163,0.9671 0.27017,0.27017 0.66896,0.59066 0.8739,0.71366 0.21057,0.11737 0.58884,0.28506 0.8441,0.37082 0.33539,0.10992 0.64098,0.16025 1.08447,0.18259 0.44349,0.0223 0.74908,0 1.12735,-0.0727 l 0.51053,-0.10247 1.1348,1.12917 1.12917,1.12735 v 6.93724 l -2.30121,2.29939 -0.34847,-0.10065 c -0.24037,-0.0652 -0.57576,-0.095 -1.0267,-0.095 -0.45839,0 -0.78633,0.0298 -1.04722,0.10247 -0.20494,0.0578 -0.56086,0.18822 -0.78633,0.29069 -0.22547,0.1081 -0.56831,0.31304 -0.77143,0.46584 -0.19749,0.1528 -0.48819,0.42859 -0.64843,0.61863 -0.16025,0.19567 -0.37082,0.49563 -0.47329,0.66896 -0.095,0.17514 -0.24037,0.50308 -0.32049,0.736 -0.0801,0.23292 -0.17514,0.64098 -0.20312,0.90933 -0.0447,0.33539 -0.0447,0.63353 0,0.982 0.0354,0.27017 0.13045,0.68568 0.21057,0.9186 0.0801,0.23292 0.21802,0.53851 0.29814,0.68386 0.0801,0.1379 0.27017,0.41369 0.41551,0.60374 0.1528,0.19004 0.45094,0.48074 0.66896,0.65588 0.22547,0.17332 0.59066,0.39879 0.81613,0.50871 0.23292,0.10992 0.58884,0.24782 0.79378,0.30559 0.2609,0.0652 0.59629,0.10247 1.04722,0.10247 0.45093,0 0.80123,-0.0298 1.05649,-0.10247 0.20312,-0.0503 0.62426,-0.21802 0.93168,-0.37082 0.45839,-0.22547 0.63171,-0.35774 1.04722,-0.77143 0.42859,-0.43041 0.54596,-0.59066 0.80123,-1.11427 0.20312,-0.40806 0.33357,-0.76398 0.40061,-1.09937 0.0652,-0.35592 0.0858,-0.65406 0.0652,-1.04722 -0.0224,-0.30559 -0.0801,-0.69131 -0.12482,-0.85155 l -0.095,-0.29069 3.37823,-3.37823 v -10.1981 l -1.68076,-1.68076 -1.67513,-1.68076 0.0801,-0.29814 c 0.0578,-0.19004 0.095,-0.57576 0.095,-1.03415 0,-0.51798 -0.0224,-0.83665 -0.095,-1.10682 -0.0578,-0.21057 -0.20312,-0.58884 -0.33357,-0.8441 -0.12482,-0.25527 -0.36519,-0.63353 -0.53288,-0.8292 -0.16025,-0.20494 -0.45839,-0.48819 -0.65406,-0.63353 -0.19749,-0.1528 -0.56831,-0.37082 -0.82357,-0.49563 -0.2609,-0.123 -0.65406,-0.26835 -0.87208,-0.31304 -0.22547,-0.0503 -0.67823,-0.0876 -0.99872,-0.0876 z m 13.13102,125.35501 c 0.007,0 0.22547,0.10065 0.48074,0.22547 0.25527,0.13045 0.55341,0.31304 0.66333,0.41551 0.11555,0.10065 0.27579,0.32612 0.36337,0.50871 0.13045,0.25527 0.16025,0.40806 0.16025,0.70621 0,0.26835 -0.0372,0.47329 -0.13045,0.67641 -0.0727,0.16025 -0.21239,0.37827 -0.31304,0.48819 -0.10247,0.10247 -0.31304,0.25527 -0.46021,0.32794 -0.1528,0.0801 -0.41369,0.16025 -0.58884,0.18077 -0.21802,0.0224 -0.42114,0.007 -0.65406,-0.0652 -0.27017,-0.0801 -0.40806,-0.16769 -0.67823,-0.42859 -0.25345,-0.26272 -0.35592,-0.41551 -0.42859,-0.64843 -0.0521,-0.17514 -0.0876,-0.40806 -0.0876,-0.52361 0,-0.11737 0.0354,-0.35029 0.0876,-0.51053 0.0503,-0.17332 0.18077,-0.40061 0.32794,-0.56649 0.15843,-0.18259 0.39879,-0.35774 0.74163,-0.53288 0.27579,-0.1379 0.50871,-0.25345 0.51616,-0.25345 z m 91.9675,-123.81215 c 0.16769,0.0149 0.40061,0.067 0.50871,0.11737 0.11737,0.0429 0.30559,0.16769 0.43041,0.26272 0.13045,0.10065 0.29814,0.32612 0.40624,0.53851 0.13972,0.27579 0.17514,0.42859 0.17514,0.71184 0,0.19749 -0.0354,0.48074 -0.0876,0.62608 -0.0503,0.14717 -0.18077,0.37264 -0.29814,0.50308 -0.1081,0.13045 -0.34102,0.30559 -0.51616,0.38571 -0.19004,0.095 -0.45094,0.16769 -0.65588,0.18259 -0.26835,0.0205 -0.43604,-0.007 -0.88698,-0.16025 l -0.55341,-0.19749 -0.16025,-0.49382 c -0.13045,-0.40061 -0.16025,-0.57576 -0.14535,-0.9037 0.0149,-0.26835 0.0652,-0.48819 0.14535,-0.64098 0.0727,-0.13045 0.17514,-0.28324 0.23292,-0.34847 0.0503,-0.0652 0.20312,-0.19749 0.32049,-0.29069 0.123,-0.0876 0.34847,-0.20494 0.49382,-0.24037 0.16025,-0.0447 0.41551,-0.0652 0.59066,-0.0522 z m -0.1379,-2.64223 c -0.16025,0 -0.45276,0.0298 -0.64098,0.0522 -0.19004,0.028 -0.48074,0.095 -0.64098,0.1528 -0.16025,0.0503 -0.50126,0.19567 -0.75653,0.32794 -0.35774,0.18077 -0.59066,0.36337 -0.96147,0.74163 -0.27579,0.27017 -0.58884,0.64843 -0.69131,0.8292 -0.1081,0.18259 -0.28324,0.56086 -0.37827,0.8441 l -0.18259,0.51053 v 0.8441 c 0,0.60374 0.0298,0.92423 0.095,1.11427 l 0.0876,0.26835 -15.62046,15.62791 -15.62791,15.62791 H 503.7831 l -17.62916,17.62916 v 69.88872 l -0.26272,0.1528 c -0.14535,0.0801 -0.42114,0.28506 -0.61863,0.44531 -0.19567,0.16769 -0.47329,0.45839 -0.61863,0.65406 -0.14535,0.19749 -0.33357,0.50308 -0.42859,0.67823 -0.0876,0.18077 -0.21802,0.50871 -0.28506,0.73418 -0.0727,0.22547 -0.14535,0.64843 -0.16025,0.96147 -0.028,0.40806 -0.006,0.68386 0.067,1.04722 0.0503,0.27017 0.1528,0.62608 0.22547,0.78633 0.0652,0.16025 0.21057,0.45094 0.32049,0.64098 0.11555,0.18822 0.41369,0.56086 0.67641,0.81431 0.34102,0.34284 0.59629,0.53851 0.93912,0.70621 0.25527,0.13972 0.64661,0.29814 0.8739,0.37082 0.21802,0.067 0.63916,0.13972 0.93168,0.16025 0.35592,0.0223 0.66896,0 0.9969,-0.0578 0.2609,-0.0503 0.63916,-0.16025 0.83665,-0.24037 0.18822,-0.0727 0.50126,-0.22547 0.68386,-0.33357 0.17514,-0.10992 0.51616,-0.38009 0.74345,-0.60555 0.22547,-0.22547 0.53106,-0.59629 0.66151,-0.8292 0.1379,-0.22547 0.31304,-0.60374 0.39316,-0.8292 0.0727,-0.22547 0.16769,-0.63353 0.20312,-0.9037 0.0447,-0.37082 0.0447,-0.62608 0,-0.9969 -0.0354,-0.27579 -0.14535,-0.70621 -0.23292,-0.95965 -0.0932,-0.24782 -0.28324,-0.63353 -0.42859,-0.85155 -0.1379,-0.22729 -0.40061,-0.54596 -0.56831,-0.71366 -0.17514,-0.17514 -0.48819,-0.43041 -0.70621,-0.56831 l -0.40061,-0.26272 v -68.31788 l 15.41734,-15.41552 h 40.73099 l 32.34774,-32.34592 0.37827,0.10065 c 0.25345,0.0652 0.58884,0.10247 1.04722,0.10247 0.45094,0 0.79378,-0.0373 1.04904,-0.10992 0.21057,-0.0503 0.56649,-0.18822 0.79941,-0.29814 0.22547,-0.1081 0.58321,-0.33357 0.78633,-0.49382 0.20494,-0.16025 0.49563,-0.44531 0.64843,-0.62608 0.1528,-0.18259 0.39316,-0.56086 0.53106,-0.83847 0.1379,-0.28324 0.29814,-0.71184 0.35774,-0.9522 0.0727,-0.35029 0.0858,-0.61118 0.0652,-1.15714 -0.0224,-0.51053 -0.0652,-0.81613 -0.16025,-1.08447 -0.0652,-0.21239 -0.21802,-0.56086 -0.33539,-0.77888 -0.11555,-0.22729 -0.39316,-0.59811 -0.64098,-0.859 -0.23292,-0.24782 -0.59629,-0.56086 -0.80686,-0.69876 -0.21239,-0.13227 -0.56086,-0.30559 -0.77143,-0.38571 -0.21239,-0.0801 -0.58321,-0.18259 -0.82357,-0.22547 -0.24037,-0.0447 -0.56649,-0.0801 -0.72673,-0.0745 z m -132.32768,10.51114 c 0.16769,0.0149 0.40061,0.0652 0.51616,0.11737 0.10992,0.0429 0.29814,0.16025 0.42296,0.25345 0.11555,0.095 0.29069,0.31304 0.37827,0.48074 0.13045,0.23292 0.17514,0.40806 0.19567,0.7211 0.0223,0.36337 0.007,0.46584 -0.11555,0.73418 -0.0801,0.17514 -0.21802,0.40061 -0.30559,0.50308 -0.0801,0.10247 -0.29069,0.25527 -0.45839,0.33539 -0.17514,0.0801 -0.44349,0.16588 -0.60374,0.18077 -0.19004,0.0224 -0.40061,0.007 -0.61863,-0.0578 -0.17514,-0.0503 -0.43786,-0.18259 -0.57576,-0.28324 -0.16025,-0.12482 -0.32049,-0.32794 -0.44349,-0.56086 -0.1528,-0.29814 -0.19004,-0.43041 -0.18259,-0.72855 0,-0.22547 0.0578,-0.53851 0.16025,-0.85155 l 0.16025,-0.49382 0.29069,-0.10992 c 0.1528,-0.0578 0.41551,-0.14535 0.57576,-0.19004 0.17514,-0.0429 0.42114,-0.0652 0.60374,-0.0503 z m -9.81239,-18.41548 c 0.16025,0.0223 0.43041,0.10247 0.59811,0.18259 0.17332,0.0801 0.39316,0.25527 0.50871,0.39316 0.11737,0.1379 0.24782,0.36337 0.29814,0.50871 0.0521,0.13972 0.095,0.42296 0.095,0.62608 0,0.27761 -0.0354,0.44531 -0.1528,0.67823 -0.0876,0.17332 -0.24782,0.39134 -0.35592,0.49382 -0.11737,0.095 -0.42296,0.28506 -0.68568,0.41551 l -0.47892,0.24037 -0.48819,-0.24782 c -0.26272,-0.1379 -0.57576,-0.34284 -0.68386,-0.44349 -0.10992,-0.10992 -0.24782,-0.31304 -0.32049,-0.44531 -0.0652,-0.1379 -0.1379,-0.40624 -0.1528,-0.60374 -0.0224,-0.24782 0,-0.45094 0.0727,-0.64843 0.0503,-0.16588 0.20312,-0.42114 0.33539,-0.56649 0.123,-0.14535 0.33357,-0.32049 0.45839,-0.38571 0.123,-0.0596 0.32612,-0.1379 0.44349,-0.16769 0.123,-0.0298 0.34847,-0.0447 0.50871,-0.0298 z m -0.21802,-2.64223 c -0.10247,0 -0.27579,0.0149 -0.39316,0.0298 -0.1081,0.0149 -0.36337,0.0652 -0.56649,0.10992 -0.19749,0.0429 -0.53288,0.15843 -0.74345,0.25345 -0.21802,0.095 -0.55341,0.29251 -0.74908,0.43041 -0.19749,0.14535 -0.48074,0.39316 -0.63353,0.55341 -0.14535,0.16025 -0.36337,0.43604 -0.47329,0.60374 -0.10992,0.17514 -0.27017,0.47329 -0.34847,0.66896 -0.0801,0.19004 -0.19004,0.56831 -0.24782,0.83665 -0.0652,0.35774 -0.0876,0.65588 -0.0652,1.07884 0.0205,0.44349 0.0727,0.71184 0.20312,1.09755 0.095,0.27761 0.26272,0.65588 0.37082,0.83847 0.10992,0.18077 0.40806,0.54596 0.66333,0.80686 0.25345,0.26272 0.61863,0.56086 0.79941,0.66333 l 0.33539,0.18822 v 5.49503 l 7.65652,7.65834 -0.10065,0.43604 c -0.0521,0.24782 -0.095,0.68386 -0.095,0.97637 0,0.28324 0.0429,0.71184 0.095,0.93912 0.0503,0.23292 0.21057,0.66896 0.35592,0.97455 0.22547,0.46584 0.33539,0.61863 0.79378,1.07702 0.29069,0.29069 0.68386,0.61118 0.86645,0.7211 0.17332,0.1081 0.51616,0.2609 0.74908,0.34102 0.23292,0.0801 0.64843,0.17514 0.93168,0.21239 0.37827,0.0429 0.64098,0.0429 1.0118,-0.007 0.27017,-0.0373 0.67641,-0.13227 0.90933,-0.21057 0.22547,-0.0801 0.56086,-0.23474 0.74345,-0.33539 0.18077,-0.10992 0.56649,-0.43041 0.859,-0.7211 0.43604,-0.42859 0.58139,-0.61863 0.77888,-1.01925 0.13045,-0.26835 0.29069,-0.69876 0.35592,-0.95402 0.0727,-0.30559 0.11737,-0.65406 0.11737,-1.02488 0,-0.37264 -0.0447,-0.7211 -0.11737,-1.0267 -0.0652,-0.25527 -0.22547,-0.67641 -0.35592,-0.94657 -0.17514,-0.33539 -0.37827,-0.63353 -0.67823,-0.94657 -0.25345,-0.26835 -0.61118,-0.56649 -0.85155,-0.71928 -0.23292,-0.13972 -0.60374,-0.32049 -0.8292,-0.40061 -0.22546,-0.0801 -0.61863,-0.17514 -0.8739,-0.21802 -0.26835,-0.0373 -0.64098,-0.0521 -0.87953,-0.0298 -0.23292,0.0223 -0.56831,0.0727 -0.75835,0.123 l -0.33357,0.0876 -6.5012,-6.49938 v -3.97452 l 0.35774,-0.22547 c 0.20312,-0.123 0.52361,-0.38571 0.71366,-0.57576 0.19567,-0.19567 0.45839,-0.50871 0.58884,-0.70439 0.123,-0.19004 0.31304,-0.57576 0.41551,-0.85155 0.11555,-0.31304 0.21802,-0.70621 0.25345,-1.0267 0.0372,-0.34284 0.0372,-0.67078 0,-0.95402 -0.028,-0.24037 -0.10065,-0.57576 -0.1528,-0.74908 -0.0503,-0.18259 -0.20312,-0.53106 -0.33357,-0.78633 -0.16025,-0.31304 -0.38571,-0.61863 -0.67823,-0.92423 -0.23292,-0.24782 -0.61863,-0.56831 -0.8441,-0.70621 -0.22547,-0.1379 -0.59629,-0.32049 -0.82176,-0.40061 -0.23292,-0.0801 -0.61863,-0.17514 -0.86645,-0.21057 -0.24782,-0.0373 -0.53106,-0.0596 -0.63353,-0.0521 z m 101.80042,33.91294 c 0.095,-0.007 0.43604,0.0727 0.76398,0.17332 l 0.59629,0.19004 0.16025,0.49382 c 0.11737,0.35774 0.16025,0.613 0.16025,0.88135 0,0.29069 -0.0429,0.45094 -0.1528,0.67641 -0.0876,0.16025 -0.2609,0.39316 -0.39316,0.51053 -0.123,0.11555 -0.33357,0.25527 -0.45094,0.31304 -0.1379,0.0578 -0.37827,0.095 -0.65406,0.095 -0.36519,0.006 -0.48819,-0.0224 -0.736,-0.14717 -0.16025,-0.0857 -0.37082,-0.23855 -0.47329,-0.34847 -0.10247,-0.10992 -0.24782,-0.32794 -0.32049,-0.48819 -0.095,-0.20312 -0.13045,-0.40061 -0.13045,-0.66896 0,-0.27017 0.0354,-0.45839 0.13045,-0.67078 0.0727,-0.15843 0.21802,-0.37827 0.32049,-0.48637 0.10247,-0.10247 0.26272,-0.23292 0.35774,-0.28506 0.10065,-0.0503 0.28324,-0.123 0.40624,-0.16588 0.13227,-0.0373 0.31304,-0.0727 0.41551,-0.0727 z m 24.15088,-41.11108 c 0.14535,0.0224 0.38571,0.0876 0.53851,0.1528 0.16769,0.0652 0.38571,0.23292 0.53851,0.40806 0.16769,0.18077 0.29814,0.39316 0.35029,0.58139 0.0503,0.16025 0.0857,0.40806 0.0857,0.54596 0,0.13972 -0.0503,0.38571 -0.11555,0.56086 -0.0578,0.16769 -0.19004,0.40061 -0.28324,0.51053 -0.095,0.11555 -0.30741,0.28324 -0.47329,0.37082 -0.20494,0.11555 -0.41551,0.17332 -0.66333,0.19567 -0.29069,0.0223 -0.45839,-0.007 -0.90933,-0.1528 l -0.56086,-0.18259 -0.16025,-0.50871 c -0.10065,-0.29814 -0.16769,-0.62608 -0.16769,-0.80123 0,-0.16588 0.0298,-0.40624 0.067,-0.53106 0.0354,-0.123 0.14535,-0.34102 0.23855,-0.47329 0.10247,-0.13045 0.29996,-0.32049 0.44531,-0.42114 0.1528,-0.095 0.36337,-0.19004 0.47892,-0.21239 0.11737,-0.0131 0.24037,-0.0429 0.27017,-0.0503 0.0372,-0.0149 0.17514,-0.007 0.32049,0.007 z m 0.0578,-2.62733 c -0.24037,-0.0149 -0.51616,-0.0149 -0.61118,0 -0.095,0.0149 -0.32049,0.0503 -0.49563,0.0876 -0.17332,0.0354 -0.48637,0.13045 -0.69876,0.21057 -0.21057,0.0876 -0.53851,0.25527 -0.73418,0.37827 -0.19749,0.12482 -0.55341,0.43041 -0.78633,0.67641 -0.29069,0.29996 -0.51616,0.60555 -0.68386,0.92605 -0.13045,0.2609 -0.29814,0.68386 -0.36519,0.93168 -0.0783,0.29814 -0.123,0.65406 -0.123,1.03978 0,0.38572 0.0298,0.736 0.10247,1.0118 l 0.10065,0.43041 -3.82735,3.8199 -3.82172,3.82917 v 17.13352 l -5.43726,5.42981 -5.42981,5.43726 -0.35029,-0.10065 c -0.23292,-0.0652 -0.57394,-0.095 -1.01743,-0.095 -0.52543,0 -0.77888,0.0298 -1.13662,0.13045 -0.25345,0.0727 -0.64098,0.21802 -0.85155,0.33539 -0.21802,0.10992 -0.54596,0.32794 -0.73418,0.48074 -0.18259,0.14535 -0.45839,0.42859 -0.61118,0.61118 -0.15462,0.18822 -0.37264,0.51616 -0.48074,0.73418 -0.10992,0.21239 -0.26272,0.59811 -0.33539,0.85155 -0.10247,0.36519 -0.13045,0.60555 -0.13045,1.12917 0,0.44349 0.0354,0.80123 0.10065,1.04722 0.0596,0.21239 0.20494,0.59066 0.32794,0.85155 0.12482,0.25527 0.37082,0.63353 0.54596,0.84592 0.17514,0.21057 0.48074,0.50871 0.68386,0.66896 0.20494,0.1528 0.55341,0.36337 0.77888,0.46584 0.22547,0.1081 0.58321,0.24037 0.78633,0.29814 0.26272,0.0652 0.59811,0.10247 1.05649,0.10247 0.51616,0 0.77143,-0.0298 1.12735,-0.13227 0.25527,-0.0727 0.64098,-0.22547 0.85155,-0.33357 0.21802,-0.10992 0.54596,-0.32794 0.736,-0.48074 0.18077,-0.1528 0.45839,-0.43041 0.61118,-0.61863 0.1528,-0.18259 0.37082,-0.51616 0.48074,-0.72855 0.1081,-0.21057 0.2609,-0.59629 0.33357,-0.85155 0.10247,-0.35592 0.13227,-0.61118 0.13227,-1.1348 0,-0.44349 -0.0298,-0.78633 -0.095,-1.01925 l -0.10247,-0.34847 5.97577,-5.97014 5.96832,-5.97577 v -17.1913 l 3.28321,-3.27576 3.27576,-3.27576 0.32049,0.0876 c 0.17332,0.0503 0.55904,0.10247 0.8441,0.123 0.38571,0.0223 0.66151,0.007 1.01925,-0.0652 0.26835,-0.0578 0.64661,-0.16769 0.83665,-0.24037 0.19567,-0.0801 0.50871,-0.246 0.70621,-0.37827 0.19567,-0.123 0.51616,-0.39316 0.70621,-0.59629 0.19567,-0.19749 0.45839,-0.50871 0.57394,-0.68386 0.11737,-0.17514 0.28506,-0.51798 0.37827,-0.75653 0.095,-0.24037 0.19749,-0.64098 0.24037,-0.8888 0.0447,-0.27017 0.0596,-0.66896 0.0372,-0.96892 -0.0149,-0.27579 -0.0876,-0.68386 -0.16025,-0.90933 -0.0652,-0.22547 -0.21057,-0.58139 -0.32794,-0.79378 -0.1081,-0.21057 -0.32049,-0.53851 -0.47329,-0.72673 -0.1528,-0.19004 -0.42859,-0.47329 -0.62608,-0.62608 -0.18822,-0.1528 -0.55341,-0.38571 -0.81431,-0.51053 -0.25527,-0.123 -0.63353,-0.2609 -0.8441,-0.31304 -0.20494,-0.0429 -0.57576,-0.0932 -0.81613,-0.11555 z m -100.21286,72.35018 c 0.0298,-0.007 0.28324,0.11737 0.56831,0.26272 0.32612,0.17332 0.59629,0.35592 0.71928,0.50126 0.10992,0.13045 0.24037,0.35774 0.29251,0.50308 0.0503,0.14535 0.0858,0.41369 0.0858,0.59629 0,0.1826 -0.0354,0.44349 -0.0858,0.58321 -0.0447,0.1379 -0.17514,0.36337 -0.29251,0.49382 -0.11555,0.1528 -0.34102,0.32049 -0.53851,0.41551 -0.26835,0.1379 -0.40806,0.16769 -0.74163,0.16025 -0.29814,0 -0.48074,-0.0372 -0.67641,-0.13227 -0.14717,-0.0727 -0.36519,-0.22547 -0.48074,-0.33357 -0.11737,-0.11737 -0.27017,-0.31304 -0.34284,-0.45094 -0.10247,-0.19749 -0.13045,-0.33539 -0.13045,-0.736 0,-0.40806 0.028,-0.54596 0.13045,-0.74163 0.0727,-0.13972 0.21802,-0.33539 0.32794,-0.44531 0.10247,-0.10065 0.40061,-0.29814 0.65406,-0.43604 0.25527,-0.13045 0.48074,-0.24037 0.51053,-0.24037 z m -8.44285,-72.75824 c 0.16025,0.0223 0.41369,0.0876 0.56649,0.1528 0.1528,0.0652 0.39316,0.24037 0.53288,0.39316 0.15843,0.16769 0.29069,0.38571 0.35592,0.58321 0.0727,0.21802 0.095,0.41369 0.0727,0.67641 -0.0149,0.24782 -0.0801,0.45839 -0.19004,0.66151 -0.0932,0.16769 -0.2609,0.37827 -0.37082,0.46584 -0.11555,0.095 -0.40806,0.26272 -0.64661,0.38571 l -0.43786,0.21984 -0.48074,-0.24037 c -0.2609,-0.13227 -0.56649,-0.32049 -0.67641,-0.42296 -0.10992,-0.095 -0.26835,-0.31304 -0.34847,-0.47329 -0.11737,-0.23292 -0.1528,-0.39316 -0.1528,-0.69131 0,-0.21057 0.028,-0.47329 0.0652,-0.58139 0.0354,-0.10992 0.14535,-0.30559 0.23292,-0.44531 0.0876,-0.13045 0.29069,-0.32049 0.44349,-0.41369 0.1528,-0.10247 0.38571,-0.21239 0.51616,-0.24037 0.12482,-0.0298 0.35774,-0.0447 0.51798,-0.0298 z m 0.11555,-2.61988 c -0.25527,-0.0149 -0.61118,-0.007 -0.78633,0.0149 -0.17332,0.028 -0.47329,0.0932 -0.66896,0.1528 -0.19004,0.0503 -0.56086,0.20312 -0.81613,0.33357 -0.35592,0.19004 -0.58884,0.37264 -0.98945,0.77143 -0.40806,0.40061 -0.58884,0.64098 -0.77888,1.00617 -0.13045,0.2609 -0.29814,0.67641 -0.35592,0.92423 -0.0801,0.31304 -0.11737,0.63916 -0.11737,1.06957 0,0.34102 0.0372,0.77888 0.0876,0.982 0.0503,0.20494 0.14535,0.51053 0.21057,0.67078 0.0745,0.16588 0.21984,0.44349 0.32794,0.61863 0.10992,0.17332 0.29814,0.43604 0.41551,0.57394 0.11555,0.1379 0.35592,0.36519 0.53106,0.50308 0.17514,0.13789 0.42859,0.31304 0.56831,0.39316 l 0.24782,0.1379 v 18.41548 l 8.56585,8.56585 v 38.25083 l -0.33357,0.18077 c -0.18259,0.10992 -0.54596,0.40806 -0.80123,0.66333 -0.25527,0.2609 -0.55341,0.62608 -0.66333,0.80686 -0.1081,0.19004 -0.27579,0.56831 -0.37827,0.84592 l -0.18077,0.50871 v 1.69566 l 0.18077,0.51053 c 0.10247,0.27579 0.27017,0.66151 0.37827,0.8441 0.10992,0.18077 0.41551,0.55904 0.69131,0.8292 0.41551,0.42296 0.58321,0.54596 1.04904,0.77888 0.30559,0.14535 0.70621,0.30559 0.89443,0.35592 0.19749,0.0447 0.54596,0.10247 0.79378,0.12482 0.29069,0.0223 0.61863,0.007 0.96892,-0.0578 0.29069,-0.0522 0.70621,-0.16769 0.93168,-0.25527 0.21802,-0.095 0.55904,-0.27017 0.74908,-0.40061 0.19749,-0.13045 0.50308,-0.40061 0.69131,-0.58884 0.19004,-0.19004 0.39316,-0.42296 0.45839,-0.51798 0.0578,-0.095 0.20494,-0.34847 0.32049,-0.56649 0.10992,-0.21984 0.25527,-0.59811 0.31304,-0.84592 0.0801,-0.29814 0.11737,-0.63171 0.11737,-1.05467 0,-0.42859 -0.0373,-0.76398 -0.11737,-1.07702 -0.0652,-0.24782 -0.22547,-0.66333 -0.36337,-0.92423 -0.16769,-0.32794 -0.38571,-0.62608 -0.69876,-0.94657 -0.24782,-0.25527 -0.61863,-0.56831 -0.83102,-0.69876 l -0.37827,-0.23292 v -19.92855 l -0.007,-19.93037 -4.27829,-4.28574 -4.28756,-4.28011 0.007,-8.39253 v -8.39253 l 0.41369,-0.26272 c 0.22547,-0.14535 0.58321,-0.45094 0.79378,-0.67641 0.21802,-0.22547 0.48074,-0.56086 0.59066,-0.74163 0.10065,-0.18259 0.26835,-0.56086 0.36337,-0.83847 0.1379,-0.38571 0.18822,-0.64661 0.21057,-1.09937 0.0149,-0.36337 0,-0.74908 -0.0429,-0.9969 -0.0447,-0.21802 -0.13972,-0.56649 -0.21239,-0.77143 -0.0801,-0.20312 -0.23292,-0.52361 -0.34847,-0.71366 -0.11737,-0.18822 -0.34284,-0.48637 -0.50308,-0.66151 -0.16588,-0.18259 -0.45839,-0.43604 -0.65406,-0.57576 -0.19749,-0.1379 -0.49563,-0.32612 -0.66333,-0.41369 -0.17332,-0.0801 -0.50126,-0.20494 -0.73418,-0.26272 -0.23292,-0.0578 -0.63353,-0.11555 -0.88135,-0.1379 z m 21.70614,123.30907 c 0.27579,0.1379 0.59629,0.34847 0.71184,0.47329 0.12482,0.123 0.27017,0.34102 0.33539,0.48637 0.0801,0.18259 0.11737,0.38571 0.12482,0.67078 0,0.30559 -0.0373,0.47892 -0.13972,0.69876 -0.0801,0.16769 -0.2609,0.39879 -0.41369,0.53851 -0.14717,0.13045 -0.39316,0.27579 -0.53851,0.32612 -0.1528,0.0522 -0.40806,0.095 -0.56831,0.095 -0.16769,0 -0.43041,-0.0429 -0.58321,-0.095 -0.17332,-0.0578 -0.38571,-0.20312 -0.58139,-0.39134 -0.20494,-0.20494 -0.33539,-0.39316 -0.40061,-0.59066 -0.0578,-0.1528 -0.10247,-0.42114 -0.10247,-0.58139 0,-0.16769 0.0447,-0.42296 0.095,-0.57576 0.0503,-0.1528 0.20312,-0.39316 0.33539,-0.53851 0.1528,-0.16025 0.42859,-0.35592 0.73418,-0.51616 l 0.49563,-0.25527 0.49563,0.25527 z M 536.7695,193.72326 c 0.13045,0 0.37082,0.0354 0.53106,0.0801 0.19004,0.0578 0.40061,0.18822 0.59066,0.34847 0.15843,0.14535 0.34847,0.38571 0.42114,0.53851 0.095,0.20494 0.13045,0.39316 0.1379,0.69131 0,0.32794 -0.028,0.46584 -0.16025,0.736 -0.0876,0.18259 -0.25345,0.41551 -0.36337,0.50871 -0.11555,0.10247 -0.41551,0.28506 -0.66896,0.41551 l -0.46584,0.23292 -0.45839,-0.23292 c -0.25527,-0.13045 -0.56086,-0.31304 -0.67078,-0.41551 -0.11555,-0.0932 -0.27579,-0.32612 -0.37082,-0.50871 -0.13045,-0.27017 -0.16025,-0.40806 -0.1528,-0.736 0,-0.29814 0.0372,-0.48637 0.1379,-0.69131 0.0727,-0.1528 0.26272,-0.39316 0.42296,-0.53851 0.16769,-0.14535 0.40806,-0.29814 0.56086,-0.34102 0.14535,-0.0447 0.37827,-0.0876 0.50871,-0.0876 z m 0.19567,-2.59935 c -0.33357,-0.0149 -0.73418,0 -0.88698,0.0298 -0.1528,0.0298 -0.41551,0.095 -0.58321,0.14535 -0.16588,0.0578 -0.47892,0.19004 -0.69131,0.30559 -0.21057,0.10992 -0.53851,0.32049 -0.72673,0.47329 -0.19004,0.1528 -0.46584,0.42859 -0.61863,0.61863 -0.16025,0.19749 -0.38571,0.56086 -0.51798,0.81613 -0.123,0.2609 -0.26835,0.63916 -0.32794,0.8441 -0.0652,0.25345 -0.0932,0.60374 -0.0932,1.05467 0,0.45093 0.028,0.78633 0.10065,1.04904 0.0596,0.20312 0.19004,0.55904 0.29996,0.79196 0.1081,0.22547 0.34102,0.59811 0.51616,0.81613 0.17514,0.22547 0.45839,0.50871 0.62608,0.64098 0.17514,0.13045 0.42114,0.30559 0.56086,0.39316 l 0.246,0.1528 v 33.9689 l -6.10621,5.88819 -6.09877,5.88819 h -25.29495 l -23.05151,23.05151 v 52.70669 l -0.33357,0.21057 c -0.18259,0.11555 -0.47329,0.32794 -0.64098,0.47329 -0.16769,0.14535 -0.42296,0.42114 -0.56086,0.61863 -0.1379,0.19567 -0.32794,0.50126 -0.41551,0.68386 -0.0857,0.17514 -0.21057,0.47329 -0.27579,0.66896 -0.0652,0.20494 -0.123,0.60555 -0.1379,0.99872 -0.0298,0.48637 -0.0149,0.75653 0.0652,1.105 0.0503,0.24782 0.21057,0.69131 0.34847,0.98382 0.13972,0.29069 0.38753,0.68386 0.54596,0.87953 0.16025,0.19749 0.46021,0.48074 0.66333,0.63353 0.20312,0.15279 0.57576,0.37827 0.8292,0.50308 0.26272,0.11555 0.65588,0.25345 0.8888,0.30559 0.23292,0.0503 0.64661,0.095 0.93168,0.095 0.31304,0 0.70621,-0.0447 1.00435,-0.11737 0.27579,-0.0652 0.71366,-0.23292 1.0118,-0.38571 0.39316,-0.20312 0.64098,-0.38571 0.97455,-0.71366 0.24037,-0.24782 0.55341,-0.62608 0.68386,-0.85155 0.13227,-0.22547 0.31304,-0.61863 0.40061,-0.8739 l 0.16769,-0.46584 v -0.87208 l -0.007,-0.8739 -0.14535,-0.45839 c -0.0876,-0.24782 -0.26272,-0.63353 -0.39316,-0.85155 -0.1379,-0.22547 -0.39316,-0.56831 -0.57394,-0.76398 -0.18259,-0.19749 -0.53288,-0.48819 -0.78633,-0.64843 l -0.45276,-0.29814 v -51.11914 l 10.41612,-10.41612 10.41612,-10.42175 h 25.29313 l 7.23538,-6.98011 7.24283,-6.97449 v -35.5639 l 0.39316,-0.246 c 0.21802,-0.13972 0.56086,-0.42296 0.76398,-0.63353 0.20312,-0.20494 0.47329,-0.55341 0.60374,-0.77143 0.12482,-0.21802 0.29251,-0.57576 0.37082,-0.79378 0.0745,-0.21802 0.16769,-0.56831 0.19749,-0.77143 0.0354,-0.21057 0.0652,-0.51616 0.0652,-0.68386 0,-0.16025 -0.0354,-0.49563 -0.0876,-0.736 -0.0429,-0.24782 -0.14535,-0.60374 -0.22547,-0.80123 -0.0801,-0.18822 -0.23292,-0.50126 -0.34102,-0.68386 -0.10247,-0.18077 -0.40061,-0.54596 -0.66333,-0.79941 -0.33539,-0.34284 -0.58884,-0.53288 -0.93168,-0.70621 -0.25527,-0.13227 -0.64843,-0.29814 -0.8739,-0.37264 -0.26835,-0.0801 -0.61118,-0.13045 -1.01925,-0.14535 z M 514.9478,228.0648 c 0.17514,0.0131 0.44349,0.0801 0.58321,0.1379 0.14535,0.0652 0.35592,0.21057 0.47892,0.32794 0.11737,0.11555 0.27017,0.32612 0.34284,0.45839 0.10247,0.20312 0.13045,0.34102 0.13045,0.74163 0,0.40061 -0.028,0.54596 -0.123,0.72855 -0.0727,0.13045 -0.22547,0.33357 -0.34284,0.45094 -0.123,0.123 -0.34102,0.27579 -0.48637,0.34847 -0.20494,0.095 -0.38009,0.13227 -0.67823,0.13227 -0.33357,0 -0.48074,-0.0298 -0.74163,-0.16025 -0.18259,-0.0876 -0.41551,-0.26272 -0.51053,-0.37827 -0.10065,-0.11737 -0.28324,-0.41551 -0.41369,-0.66333 l -0.23292,-0.45094 0.18077,-0.36337 c 0.10247,-0.20494 0.26272,-0.48074 0.35774,-0.61118 0.0876,-0.13972 0.24782,-0.30741 0.35592,-0.38009 0.10247,-0.0727 0.32049,-0.18077 0.48074,-0.23855 0.19567,-0.0745 0.39316,-0.095 0.61863,-0.0801 z m -43.03965,-34.34153 c 0.13227,0 0.36519,0.0354 0.53288,0.0801 0.16588,0.0503 0.39879,0.18822 0.55904,0.32794 0.1528,0.1379 0.35029,0.37827 0.43041,0.54596 0.123,0.23292 0.1528,0.37827 0.16025,0.70439 0,0.32794 -0.0298,0.46584 -0.16025,0.736 -0.0876,0.18259 -0.25527,0.41551 -0.36519,0.50871 -0.11555,0.10247 -0.41369,0.28506 -0.66896,0.41551 l -0.46584,0.23292 -0.46584,-0.23292 c -0.25527,-0.13045 -0.55341,-0.32049 -0.66896,-0.42114 -0.11737,-0.095 -0.27761,-0.30741 -0.35029,-0.46021 -0.0801,-0.1528 -0.16025,-0.42114 -0.18077,-0.59629 -0.0224,-0.21802 -0.007,-0.41551 0.0652,-0.64843 0.0727,-0.27579 0.16025,-0.40624 0.42859,-0.67641 0.24782,-0.24782 0.41551,-0.36337 0.62608,-0.42114 0.1528,-0.0521 0.39316,-0.095 0.52361,-0.095 z m 0.19749,-2.59935 c -0.33539,-0.0149 -0.736,0 -0.8888,0.0298 -0.1528,0.0298 -0.41369,0.095 -0.58139,0.14535 -0.16769,0.0578 -0.51798,0.21057 -0.77143,0.34284 -0.35774,0.18077 -0.59066,0.35592 -0.97637,0.74163 -0.41369,0.42296 -0.54596,0.60374 -0.77143,1.05467 -0.14535,0.29996 -0.30559,0.70058 -0.35592,0.8888 -0.0447,0.19749 -0.10247,0.54596 -0.12482,0.79378 -0.0131,0.24037 0,0.62608 0.0373,0.86645 0.0354,0.24037 0.13045,0.61863 0.20312,0.83665 0.0801,0.21802 0.24782,0.57576 0.37827,0.79378 0.12482,0.21802 0.38571,0.55341 0.56831,0.74163 0.19004,0.19749 0.53106,0.48074 0.76398,0.62608 l 0.42296,0.27761 v 9.75279 l 11.318,11.318 11.318,11.32545 h 18.35771 l 0.16769,0.29069 c 0.0932,0.16769 0.34102,0.48074 0.54596,0.70621 0.21057,0.21984 0.55904,0.51798 0.77888,0.66333 0.22547,0.14535 0.60374,0.34102 0.859,0.42859 0.246,0.095 0.66151,0.20494 0.91678,0.24037 0.26835,0.0373 0.63916,0.0522 0.87953,0.0298 0.23292,-0.0149 0.57576,-0.0727 0.75835,-0.12482 0.18822,-0.0429 0.58884,-0.20312 0.89443,-0.35592 0.46584,-0.22547 0.63353,-0.34847 1.04904,-0.77143 0.27579,-0.27579 0.58139,-0.64843 0.69131,-0.8292 0.1081,-0.19004 0.27579,-0.56831 0.37827,-0.8441 l 0.18077,-0.51798 v -0.8441 c 0,-0.75653 -0.0205,-0.8888 -0.15843,-1.30994 -0.0876,-0.25527 -0.25527,-0.63353 -0.37264,-0.8441 -0.123,-0.20494 -0.39316,-0.55341 -0.59629,-0.77143 -0.20313,-0.21802 -0.56831,-0.52361 -0.80123,-0.68386 -0.2609,-0.16769 -0.64661,-0.35029 -0.97455,-0.46021 -0.34284,-0.1081 -0.736,-0.19567 -1.03415,-0.21802 -0.28324,-0.0205 -0.66896,-0.007 -0.92423,0.0298 -0.24037,0.0354 -0.61863,0.13045 -0.83665,0.21057 -0.21802,0.0727 -0.54596,0.22547 -0.72855,0.32794 -0.18077,0.10992 -0.56649,0.42859 -0.859,0.7211 -0.28324,0.29069 -0.58884,0.64661 -0.66896,0.79941 l -0.1379,0.27761 H 494.16768 L 484.01245,217.65613 473.85159,207.5009 v -8.23791 l 0.21984,-0.13227 c 0.123,-0.0727 0.37827,-0.25527 0.56649,-0.40061 0.18259,-0.14535 0.48074,-0.44349 0.65588,-0.66151 0.17514,-0.22547 0.40061,-0.59066 0.50871,-0.81613 0.10992,-0.23292 0.24037,-0.57394 0.29069,-0.77143 0.0521,-0.19567 0.10992,-0.57394 0.12482,-0.8441 0.0223,-0.32049 0.007,-0.65406 -0.0503,-0.95965 -0.0447,-0.26272 -0.1528,-0.63353 -0.23292,-0.83102 -0.0801,-0.20312 -0.23292,-0.51616 -0.34284,-0.69876 -0.10247,-0.18077 -0.40061,-0.54596 -0.66333,-0.79941 -0.33357,-0.34284 -0.58884,-0.53288 -0.93168,-0.70621 -0.25345,-0.13227 -0.64661,-0.29814 -0.87208,-0.37264 -0.27017,-0.0801 -0.61118,-0.13045 -1.01925,-0.14535 z m 41.61234,3.85152 c 0.1379,0.0149 0.47329,0.095 0.73418,0.18077 l 0.48819,0.16025 0.16025,0.46584 c 0.10992,0.34284 0.1528,0.58321 0.1528,0.88135 0,0.29814 -0.0298,0.47329 -0.13045,0.68386 -0.0727,0.14535 -0.27017,0.39316 -0.43041,0.53851 -0.18077,0.16025 -0.40061,0.29069 -0.58884,0.35029 -0.16025,0.0429 -0.39316,0.0876 -0.51053,0.0876 -0.11555,0 -0.34847,-0.0447 -0.51616,-0.095 -0.16769,-0.0578 -0.41551,-0.20494 -0.56086,-0.32794 -0.14535,-0.13045 -0.31304,-0.33539 -0.37827,-0.45839 -0.0578,-0.123 -0.1379,-0.35592 -0.17514,-0.51616 -0.0429,-0.21239 -0.0429,-0.38009 0,-0.613 0.0373,-0.17332 0.1528,-0.44349 0.25527,-0.59629 0.10247,-0.1528 0.29814,-0.34847 0.43041,-0.44349 0.13045,-0.095 0.37082,-0.21057 0.52361,-0.24782 0.1528,-0.0429 0.40061,-0.0652 0.54596,-0.0503 z m 11.07763,-11.07945 c 0.18259,0.007 0.44349,0.0727 0.59066,0.13972 0.14535,0.0652 0.37082,0.22547 0.50126,0.35592 0.13045,0.1379 0.29069,0.38571 0.35774,0.56086 0.0652,0.17514 0.11555,0.45094 0.11555,0.60374 0,0.16025 -0.0503,0.42859 -0.11555,0.60374 -0.0801,0.21802 -0.21239,0.40806 -0.40061,0.58321 -0.16025,0.14535 -0.38571,0.31304 -0.51053,0.36337 -0.14535,0.0652 -0.37827,0.10247 -0.63353,0.10247 -0.30559,0 -0.53106,-0.0447 -0.87208,-0.16769 l -0.46584,-0.16769 -0.16025,-0.46584 c -0.11737,-0.34284 -0.16025,-0.58139 -0.16025,-0.88135 0,-0.26835 0.0354,-0.47892 0.1081,-0.63916 0.0596,-0.12482 0.17514,-0.31304 0.26272,-0.42296 0.095,-0.10247 0.28324,-0.25527 0.42296,-0.34284 0.14535,-0.0857 0.34847,-0.17332 0.44349,-0.20312 0.10247,-0.0224 0.33539,-0.0354 0.51616,-0.0224 z m 0.0801,-2.61988 c -0.32049,-0.0149 -0.70621,0 -0.859,0.0298 -0.14535,0.0205 -0.42114,0.095 -0.60374,0.14535 -0.19004,0.0503 -0.48074,0.16769 -0.66151,0.26272 -0.17514,0.0858 -0.48819,0.29069 -0.69876,0.44349 -0.20494,0.1528 -0.52543,0.47329 -0.70621,0.70621 -0.19004,0.23292 -0.42296,0.59629 -0.51798,0.79941 -0.10065,0.20494 -0.23292,0.58321 -0.29814,0.83102 -0.0801,0.31304 -0.11555,0.63916 -0.11555,1.04722 0,0.33539 0.0354,0.77143 0.0857,0.98945 l 0.095,0.39316 -5.63293,5.63475 -0.37827,-0.10247 c -0.23292,-0.0578 -0.60555,-0.095 -0.98382,-0.095 -0.39316,0 -0.75653,0.0373 -1.01925,0.10247 -0.22547,0.0503 -0.61863,0.20312 -0.87953,0.32794 -0.25527,0.123 -0.61863,0.35592 -0.80868,0.50871 -0.18822,0.1528 -0.47329,0.43786 -0.62608,0.62608 -0.1528,0.19004 -0.38571,0.55341 -0.50871,0.80868 -0.13045,0.2609 -0.27761,0.64098 -0.33539,0.85155 -0.0652,0.24782 -0.095,0.59629 -0.10247,1.04722 0,0.51798 0.0298,0.77143 0.13227,1.12917 0.0727,0.25527 0.22547,0.64098 0.33357,0.85155 0.11737,0.21802 0.32794,0.54596 0.48074,0.73418 0.1528,0.18259 0.43041,0.46584 0.61863,0.61118 0.18259,0.15462 0.51053,0.37264 0.72855,0.48074 0.21057,0.10992 0.58139,0.26272 0.82176,0.33539 0.36519,0.11555 0.55341,0.1379 1.19439,0.1379 l 0.75653,-0.007 0.52361,-0.18077 c 0.29251,-0.095 0.70058,-0.27761 0.9037,-0.39316 0.21057,-0.12482 0.58884,-0.43786 0.85155,-0.69876 0.38571,-0.38571 0.52361,-0.57576 0.74163,-1.0267 0.14535,-0.29814 0.31304,-0.7211 0.37264,-0.92423 0.0652,-0.26272 0.10065,-0.59066 0.0932,-1.04904 0,-0.44349 -0.0354,-0.79196 -0.0932,-1.01925 l -0.10247,-0.34847 2.81737,-2.81737 2.8081,-2.81555 0.38009,0.10065 c 0.246,0.0652 0.59629,0.10247 1.01743,0.10247 0.48819,0 0.7509,-0.0298 1.10682,-0.13045 0.25527,-0.0727 0.66333,-0.23292 0.91678,-0.36519 0.25527,-0.1379 0.62608,-0.40061 0.859,-0.61118 0.22547,-0.21057 0.52543,-0.56086 0.67078,-0.77888 0.1528,-0.22547 0.33357,-0.56086 0.40624,-0.74163 0.0727,-0.18259 0.18259,-0.54596 0.24037,-0.80123 0.0727,-0.34284 0.095,-0.61118 0.0727,-1.07702 -0.028,-0.48074 -0.0727,-0.72855 -0.21057,-1.12917 -0.095,-0.27579 -0.26272,-0.65406 -0.37082,-0.83665 -0.10992,-0.18077 -0.36337,-0.50871 -0.56831,-0.72673 -0.20312,-0.21984 -0.54596,-0.51798 -0.75653,-0.65588 -0.21057,-0.14535 -0.53106,-0.32049 -0.70621,-0.38571 -0.17514,-0.0727 -0.45094,-0.16769 -0.61118,-0.21057 -0.16025,-0.0447 -0.55341,-0.095 -0.8739,-0.10992 z m -5.7354,29.63846 c 0.35592,-0.006 0.49563,0.0223 0.736,0.14717 0.16588,0.0783 0.38571,0.23855 0.48637,0.35592 0.10247,0.11555 0.24037,0.33539 0.30559,0.48074 0.0876,0.18822 0.12482,0.37827 0.12482,0.66896 0,0.30559 -0.0372,0.48074 -0.13227,0.68386 -0.0727,0.1528 -0.23855,0.37827 -0.37082,0.51053 -0.13045,0.13045 -0.36337,0.28324 -0.55341,0.34847 -0.17332,0.0652 -0.44349,0.12482 -0.60374,0.12482 -0.1528,0 -0.42859,-0.0596 -0.60374,-0.12482 -0.21057,-0.0801 -0.40061,-0.20312 -0.58321,-0.40061 -0.14535,-0.16025 -0.36337,-0.47892 -0.47892,-0.71928 l -0.21239,-0.43041 0.27761,-0.53106 c 0.18822,-0.37082 0.34847,-0.60374 0.51616,-0.73418 0.13045,-0.10992 0.33539,-0.24037 0.44349,-0.28506 0.11737,-0.0503 0.39316,-0.095 0.64843,-0.095 z m -15.94095,-27.03911 c 0.13227,-0.007 0.37264,0.0354 0.53106,0.0801 0.19004,0.0578 0.40806,0.18822 0.59066,0.34847 0.16025,0.14535 0.34847,0.38571 0.42114,0.53851 0.10247,0.21802 0.13972,0.37827 0.13972,0.71366 0,0.36337 -0.0298,0.49563 -0.1528,0.736 -0.0801,0.15843 -0.24037,0.37082 -0.35029,0.47147 -0.10247,0.10247 -0.32049,0.24782 -0.48074,0.32049 -0.19567,0.0801 -0.41369,0.12482 -0.63916,0.13227 -0.23292,0 -0.51798,-0.0596 -0.85155,-0.16769 l -0.50308,-0.16769 -0.16769,-0.50308 c -0.1081,-0.32612 -0.16769,-0.61863 -0.16769,-0.85155 0,-0.23292 0.0447,-0.44349 0.13972,-0.65406 0.0801,-0.19004 0.246,-0.40806 0.42114,-0.56831 0.16769,-0.14535 0.40806,-0.29814 0.56086,-0.34102 0.1528,-0.0447 0.37827,-0.0876 0.50871,-0.0876 z m 0.17514,-2.59935 c -0.36337,-0.0149 -0.72855,0.007 -0.97455,0.0578 -0.21239,0.0447 -0.54596,0.14717 -0.74345,0.22729 -0.19567,0.0727 -0.50126,0.22547 -0.67641,0.33357 -0.18259,0.10992 -0.47329,0.32794 -0.64098,0.48074 -0.18077,0.1528 -0.43604,0.44349 -0.57394,0.64098 -0.13972,0.19567 -0.32049,0.49382 -0.40806,0.66151 -0.0801,0.16769 -0.21057,0.51053 -0.28506,0.75653 -0.0932,0.35774 -0.123,0.60555 -0.123,1.12172 0,0.43604 0.0372,0.79378 0.10247,1.0267 l 0.095,0.34847 -6.35585,6.3484 c -3.49378,3.49378 -6.34658,6.38201 -6.34658,6.41181 0,0.0298 3.31119,3.37078 7.35838,7.41616 l 7.35275,7.3602 h 14.12047 l 0.21057,0.34847 c 0.12482,0.19004 0.36337,0.51053 0.53851,0.69876 0.18259,0.19004 0.50308,0.46584 0.71366,0.60374 0.21802,0.14535 0.52361,0.32049 0.68386,0.38571 0.1528,0.067 0.49563,0.17514 0.74908,0.23292 0.26272,0.067 0.67823,0.11737 0.94657,0.11737 0.26272,0 0.66333,-0.0447 0.89625,-0.0876 0.22547,-0.0503 0.59629,-0.16769 0.81431,-0.25527 0.21802,-0.0932 0.56831,-0.29069 0.77143,-0.43604 0.21239,-0.14535 0.53851,-0.44349 0.736,-0.66333 0.24037,-0.25345 0.45094,-0.57394 0.61863,-0.91678 0.14535,-0.29069 0.30559,-0.69876 0.35592,-0.90188 0.0652,-0.25527 0.10247,-0.60374 0.10247,-1.05649 0,-0.45094 -0.0373,-0.78451 -0.10247,-1.03233 -0.0578,-0.20494 -0.16769,-0.51798 -0.24037,-0.68386 -0.0801,-0.17514 -0.23292,-0.45839 -0.34847,-0.63353 -0.11737,-0.18259 -0.35774,-0.47329 -0.53851,-0.64843 -0.17514,-0.18259 -0.49563,-0.44349 -0.70621,-0.57394 -0.21802,-0.13972 -0.52361,-0.30741 -0.69131,-0.38009 -0.16769,-0.0652 -0.48074,-0.16588 -0.69876,-0.21802 -0.22547,-0.0503 -0.64843,-0.0876 -0.97637,-0.0876 -0.39316,0 -0.73418,0.0447 -1.03233,0.11737 -0.24782,0.0652 -0.62608,0.21057 -0.8441,0.32049 -0.21984,0.11555 -0.48074,0.2609 -0.57576,0.32794 -0.095,0.0578 -0.34284,0.27579 -0.54596,0.47892 -0.20312,0.20494 -0.47329,0.53851 -0.61118,0.75835 l -0.24037,0.39134 h -12.4677 l -5.49685,-5.48758 -5.49503,-5.49503 10.0602,-10.05838 0.37827,0.10065 c 0.24037,0.0652 0.58884,0.10247 0.98945,0.10247 0.36337,-0.007 0.77143,-0.0447 1.00435,-0.10247 0.21802,-0.0503 0.58884,-0.18077 0.81613,-0.29069 0.23292,-0.10992 0.58139,-0.31304 0.77888,-0.46584 0.20312,-0.14535 0.50871,-0.43604 0.68386,-0.65588 0.17332,-0.21057 0.41369,-0.55904 0.52361,-0.77143 0.10992,-0.21802 0.25527,-0.58884 0.32794,-0.8292 0.0652,-0.23292 0.13045,-0.65588 0.1528,-0.92423 0.0205,-0.32794 0,-0.66333 -0.0521,-0.96892 -0.0503,-0.2609 -0.1528,-0.63171 -0.23292,-0.8292 -0.0801,-0.20312 -0.23292,-0.51616 -0.34102,-0.69876 -0.10992,-0.18259 -0.41551,-0.54596 -0.67078,-0.80686 -0.39134,-0.38753 -0.58139,-0.52543 -1.02488,-0.74345 -0.29814,-0.14535 -0.69876,-0.31304 -0.8888,-0.35592 -0.19567,-0.0522 -0.61118,-0.10992 -0.93168,-0.11737 z M 187.68202,491.3059 c 5.10371,0 9.70992,-1.19442 13.82233,-3.58135 4.11987,-2.47453 7.3304,-5.80062 9.62979,-10.00061 2.38693,-4.19999 3.58135,-8.88819 3.58135,-14.0776 0,-5.18199 -1.19442,-9.87764 -3.58135,-14.07018 -2.29939,-4.19811 -5.50993,-7.4888 -9.62979,-9.87573 -4.11242,-2.38884 -8.71862,-3.58138 -13.82233,-3.58138 -5.10932,0 -9.71739,1.19254 -13.82981,3.58138 -4.11987,2.38693 -7.3658,5.67762 -9.75276,9.87573 -2.38696,4.19254 -3.58135,8.88819 -3.58135,14.07018 0,5.18941 1.19439,9.87761 3.58135,14.0776 2.38696,4.19999 5.6329,7.52608 9.75276,10.00061 4.11242,2.38693 8.72049,3.58135 13.82981,3.58135 z m 30.73783,-90.2495 c 1.14967,0 2.06084,0.32794 2.71487,0.98382 0.66336,0.66151 0.99133,1.56521 0.99133,2.72235 v 59.62724 c -0.0876,6.3391 -1.64536,12.09685 -4.69565,17.28629 -3.04284,5.18199 -7.19813,9.25898 -12.46767,12.22173 -5.18386,2.88072 -10.94718,4.31551 -17.28072,4.31551 -6.50683,0 -12.38757,-1.47764 -17.6571,-4.44036 -5.26956,-3.05032 -9.4267,-7.20558 -12.46954,-12.4677 -2.96275,-5.26953 -4.44596,-11.15215 -4.44596,-17.65895 0,-6.41926 1.48321,-12.26457 4.44596,-17.52668 3.04284,-5.26956 7.19998,-9.38198 12.46954,-12.3447 5.26953,-3.05029 11.15028,-4.5708 17.6571,-4.5708 5.83787,0 11.10743,1.27269 15.80305,3.82917 4.76648,2.46709 8.51553,5.88074 11.23043,10.24846 v -38.5192 c 0,-1.15714 0.32794,-2.06084 0.98945,-2.72235 0.74345,-0.65588 1.64533,-0.98382 2.7149,-0.98382 z m 37.11421,14.68878 c -1.64536,0 -2.99815,-0.53106 -4.06772,-1.60063 -1.07142,-1.15714 -1.60993,-2.55466 -1.60993,-4.19999 0,-1.81302 0.57579,-3.21054 1.73293,-4.19999 1.1497,-0.982 2.51178,-1.47764 4.06954,-1.47764 1.56524,0 2.88263,0.49563 3.95217,1.47764 1.1497,0.98945 1.73105,2.38696 1.73105,4.19999 0,1.64533 -0.58136,3.04284 -1.73105,4.19999 -1.06954,1.06957 -2.42421,1.60063 -4.07699,1.60063 z m 0.12482,81.73212 c -1.07142,0 -1.97327,-0.33354 -2.71487,-0.98942 -0.65591,-0.74163 -0.98385,-1.64536 -0.98385,-2.7149 v -60.12103 c 0,-1.15896 0.32794,-2.06084 0.98385,-2.72235 0.7416,-0.65588 1.64345,-0.98382 2.71487,-0.98382 1.15714,0 2.05902,0.32794 2.72238,0.98382 0.65403,0.66151 0.98197,1.56339 0.98197,2.72235 v 60.12103 c 0,1.06954 -0.32794,1.97327 -0.98197,2.7149 -0.66336,0.65588 -1.56524,0.98942 -2.72238,0.98942 z m 64.32102,-6.17141 c 5.18199,0 9.83473,-1.15714 13.94715,-3.45838 4.11987,-2.38693 7.32858,-5.64035 9.62979,-9.75276 2.30684,-4.19999 3.45654,-8.97391 3.45654,-14.32357 0,-5.34966 -1.1497,-10.12546 -3.45654,-14.318 -2.30121,-4.19999 -5.50993,-7.4534 -9.62979,-9.75276 -4.11242,-2.38884 -8.76516,-3.58138 -13.94715,-3.58138 -5.26956,0 -9.95773,1.19254 -14.07578,3.58138 -4.11242,2.29936 -7.32295,5.55278 -9.62979,9.75276 -2.30121,4.19254 -3.45836,8.96831 -3.45836,14.318 0,5.34969 1.15714,10.12358 3.45836,14.32357 2.30684,4.11242 5.51738,7.36583 9.62979,9.75276 4.11805,2.30124 8.80622,3.45838 14.07578,3.45838 z m 0,-62.10175 c 6.66707,0 12.59251,1.47764 17.7745,4.44781 5.26956,2.96087 9.34655,7.07329 12.2217,12.34472 2.97017,5.18196 4.44781,11.10555 4.44781,17.7745 v 24.20118 c 0,6.5795 -1.47764,12.54782 -4.44781,17.89747 -2.96272,5.42981 -7.03226,9.67452 -12.2217,12.71739 -5.18199,3.12857 -10.94718,4.69377 -17.27887,4.69377 -6.50683,0 -12.22915,-1.23727 -17.16332,-3.70435 -4.85587,-2.38693 -8.93104,-5.67762 -12.2217,-9.87761 -0.66151,-0.82173 -0.98945,-1.64533 -0.98945,-2.46709 0,-0.98942 0.41551,-1.7683 1.23727,-2.35154 0.65588,-0.48821 1.39751,-0.73415 2.22109,-0.73415 1.31739,0 2.38696,0.53103 3.20872,1.60061 2.7149,3.29069 6.04844,5.88819 10.00061,7.78134 4.03229,1.8913 8.60492,2.8379 13.70678,2.8379 5.01429,0 9.54222,-1.23727 13.57451,-3.70435 4.03229,-2.46708 7.20558,-5.88819 9.50679,-10.24843 2.30684,-4.28011 3.45654,-9.09128 3.45654,-14.44097 v -5.43726 c -2.38696,4.85402 -5.96087,8.68322 -10.73661,11.48569 -4.6938,2.79503 -10.12361,4.19254 -16.29687,4.19254 -6.66707,0 -12.63539,-1.43479 -17.90495,-4.31551 -5.18199,-2.96275 -9.25898,-7.03974 -12.2217,-12.22173 -2.96272,-5.26956 -4.44036,-11.23788 -4.44036,-17.90492 0,-6.58138 1.52233,-12.51242 4.56517,-17.7745 3.04847,-5.27144 7.20558,-9.38385 12.4677,-12.34472 5.26956,-2.97017 11.11488,-4.44781 17.53413,-4.44781 z m 64.24271,-13.45897 c -1.64533,0 -3.00742,-0.53106 -4.07699,-1.60063 -1.06957,-1.15714 -1.60063,-2.55466 -1.60063,-4.19999 0,-1.81302 0.57576,-3.21054 1.72545,-4.19999 1.1497,-0.982 2.50996,-1.47764 4.07517,-1.47764 1.56521,0 2.8826,0.49563 3.95217,1.47764 1.1497,0.98945 1.72545,2.38696 1.72545,4.19999 0,1.64533 -0.57576,3.04284 -1.72545,4.19999 -1.06957,1.06957 -2.42984,1.60063 -4.07517,1.60063 z m 0.123,81.73212 c -1.06957,0 -1.9789,-0.33354 -2.7149,-0.98942 -0.66151,-0.74163 -0.98945,-1.64536 -0.98945,-2.7149 v -60.12103 c 0,-1.15896 0.32794,-2.06084 0.98945,-2.72235 0.736,-0.65588 1.64533,-0.98382 2.7149,-0.98382 1.1497,0 2.05339,0.32794 2.7149,0.98382 0.65588,0.66151 0.98945,1.56339 0.98945,2.72235 v 60.12103 c 0,1.06954 -0.33357,1.97327 -0.98945,2.7149 -0.66151,0.65588 -1.56521,0.98942 -2.7149,0.98942 z m 63.94457,-7.53165 c 1.15714,0 2.05902,0.37079 2.7149,1.11242 0.74163,0.65588 1.11245,1.56521 1.11245,2.7149 0,1.06954 -0.37082,1.97327 -1.11245,2.7149 -0.65588,0.65588 -1.55776,0.98942 -2.7149,0.98942 h -2.83972 c -4.52793,0 -8.56022,-1.0323 -12.09688,-3.08569 -3.53666,-2.05902 -6.29626,-4.8615 -8.27516,-8.4 -1.97327,-3.61675 -2.96272,-7.69189 -2.96272,-12.21985 v -34.68997 h -9.62979 c -0.98382,0 -1.80558,-0.29257 -2.46709,-0.86648 -0.57576,-0.65588 -0.86645,-1.47764 -0.86645,-2.46706 0,-0.9913 0.29069,-1.77018 0.86645,-2.34412 0.66151,-0.66333 1.48327,-0.99127 2.46709,-0.99127 h 9.62979 v -20.12422 c 0,-1.1497 0.33357,-2.05339 0.98945,-2.7149 0.74163,-0.74345 1.64533,-1.11427 2.7149,-1.11427 1.15714,0 2.05902,0.37082 2.7149,1.11427 0.74163,0.66151 1.11427,1.56521 1.11427,2.7149 v 20.12422 h 16.29687 c 0.98945,0 1.76833,0.32794 2.34409,0.99127 0.66151,0.57394 0.98945,1.35282 0.98945,2.34412 0,0.98942 -0.32794,1.81118 -0.98945,2.46706 -0.57576,0.57391 -1.35464,0.86648 -2.34409,0.86648 h -16.29687 v 34.68997 c 0,4.77393 1.48508,8.68322 4.44599,11.72606 2.96272,2.96275 6.79189,4.44783 11.48007,4.44783 h 2.7149 z m 55.18686,1.36024 c 5.10187,0 9.71737,-1.19442 13.82978,-3.58135 4.11242,-2.38696 7.32113,-5.68507 9.62979,-9.87761 2.38696,-4.20002 3.58135,-8.88634 3.58135,-14.07575 0,-5.18386 -1.19439,-9.87764 -3.58135,-14.07018 -2.30866,-4.19999 -5.51738,-7.49065 -9.62979,-9.87761 -4.11242,-2.47453 -8.72792,-3.70435 -13.82978,-3.70435 -5.10186,0 -9.70992,1.22982 -13.82233,3.70435 -4.11987,2.38696 -7.36583,5.67762 -9.75461,9.87761 -2.38696,4.19254 -3.57953,8.88631 -3.57953,14.07018 0,5.18941 1.19257,9.87573 3.57953,14.07575 2.38878,4.19254 5.63475,7.49065 9.75461,9.87761 4.11242,2.38693 8.72047,3.58135 13.82233,3.58135 z m 0,-62.10175 c 6.41926,0 12.26457,1.52051 17.53413,4.5708 5.26211,2.96272 9.38198,7.07514 12.3447,12.3447 3.04284,5.26211 4.5708,11.15028 4.5708,17.65153 v 30.0018 c 0,1.06954 -0.33539,1.97327 -0.98945,2.7149 -0.66333,0.65588 -1.56521,0.98942 -2.7149,0.98942 -1.06957,0 -1.98072,-0.33354 -2.7149,-0.98942 -0.66333,-0.74163 -0.98945,-1.64536 -0.98945,-2.7149 v -9.62979 c -2.71672,4.36023 -6.46395,7.81862 -11.2397,10.37327 -4.68635,2.46706 -9.95773,3.69688 -15.80123,3.69688 -6.49938,0 -12.38939,-1.47764 -17.6515,-4.44036 -5.26956,-3.05032 -9.42485,-7.20558 -12.4677,-12.4677 -2.96272,-5.26953 -4.44781,-11.11488 -4.44781,-17.53411 0,-6.50126 1.48508,-12.38942 4.44781,-17.65153 3.04284,-5.26956 7.19813,-9.38198 12.4677,-12.3447 5.26211,-3.05029 11.15212,-4.5708 17.6515,-4.5708 z m 71.77442,68.27316 c -4.6938,0 -8.5584,-1.8913 -11.60124,-5.68322 -2.97017,-3.78632 -4.44781,-8.68319 -4.44781,-14.68878 v -72.34273 c 0,-1.15714 0.32794,-2.06084 0.98945,-2.72235 0.736,-0.65588 1.64533,-0.98382 2.7149,-0.98382 1.15152,0 2.05339,0.32794 2.7149,0.98382 0.65588,0.66151 0.99127,1.56521 0.99127,2.72235 v 72.34273 c 0,3.78448 0.77888,6.91489 2.34227,9.38198 1.64533,2.38696 3.7416,3.58135 6.29626,3.58135 h 3.08754 c 0.90188,0 1.64351,0.32794 2.21927,0.98945 0.57576,0.65588 0.86645,1.56521 0.86645,2.7149 0,1.06954 -0.32794,1.97327 -0.98945,2.7149 -0.65588,0.65588 -1.56521,0.98942 -2.7149,0.98942 z m 96.77867,-67.53153 c 1.06957,0 1.89133,0.32794 2.46709,0.98382 0.58321,0.66151 0.86645,1.48327 0.86645,2.47453 0,0.57394 -0.12482,1.19257 -0.37082,1.84845 l -19.87822,59.87503 c -0.24782,0.74163 -0.69876,1.31739 -1.35464,1.73105 -0.57394,0.40809 -1.31739,0.61863 -2.21927,0.61863 -0.83102,0 -1.56521,-0.21054 -2.22854,-0.61863 -0.65406,-0.41366 -1.06957,-0.98942 -1.22982,-1.73105 l -16.79068,-52.21851 -16.29869,52.21851 c -0.57394,1.56524 -1.73108,2.34969 -3.45654,2.34969 -0.82176,0 -1.56521,-0.21054 -2.21927,-0.61863 -0.58321,-0.41366 -0.99127,-0.98942 -1.23909,-1.73105 l -20.00122,-59.87503 c -0.16025,-0.98945 -0.24782,-1.64533 -0.24782,-1.97327 0,-2.22672 1.03415,-3.33354 3.08754,-3.33354 0.74163,0 1.40314,0.20494 1.9789,0.61863 0.65588,0.32794 1.1497,0.859 1.47764,1.60245 l 17.41114,52.59495 16.04905,-51.85332 c 0.24782,-0.90933 0.69876,-1.60808 1.35464,-2.10372 0.66151,-0.57394 1.44039,-0.859 2.34972,-0.859 1.81302,0 3.04284,0.98382 3.70617,2.96272 l 16.17205,50.86387 17.15587,-51.6055 c 0.66333,-1.48508 1.81302,-2.22109 3.45836,-2.22109 z m 50.39803,61.36012 c 5.10187,0 9.70992,-1.19442 13.82233,-3.58135 4.11987,-2.38696 7.32858,-5.68507 9.62979,-9.87761 2.38696,-4.20002 3.58135,-8.88634 3.58135,-14.07575 0,-5.18386 -1.19439,-9.87764 -3.58135,-14.07018 -2.30121,-4.19999 -5.50993,-7.49065 -9.62979,-9.87761 -4.11242,-2.47453 -8.72047,-3.70435 -13.82233,-3.70435 -5.10932,0 -9.71737,1.22982 -13.82978,3.70435 -4.11987,2.38696 -7.36583,5.67762 -9.75461,9.87761 -2.38696,4.19254 -3.57953,8.88631 -3.57953,14.07018 0,5.18941 1.19257,9.87573 3.57953,14.07575 2.38878,4.19254 5.63475,7.49065 9.75461,9.87761 4.11242,2.38693 8.72047,3.58135 13.82978,3.58135 z m 0,6.90744 c -6.50683,0 -12.38939,-1.47764 -17.65895,-4.44036 -5.26956,-3.05032 -9.42485,-7.20558 -12.4677,-12.4677 -2.96272,-5.26953 -4.44781,-11.11488 -4.44781,-17.53411 0,-6.50126 1.48508,-12.38942 4.44781,-17.65153 3.04284,-5.26956 7.19813,-9.38198 12.4677,-12.3447 5.26956,-3.05029 11.15212,-4.5708 17.65895,-4.5708 6.41926,0 12.25712,1.52051 17.52668,4.5708 5.26956,2.96272 9.38198,7.07514 12.3447,12.3447 3.05035,5.26211 4.5708,11.15028 4.5708,17.65153 0,6.41923 -1.52045,12.26457 -4.5708,17.53411 -2.96272,5.26211 -7.07514,9.41737 -12.3447,12.4677 -5.26956,2.96272 -11.10743,4.44036 -17.52668,4.44036 z m 71.76697,-0.73603 c -4.68635,0 -8.5584,-1.8913 -11.60124,-5.68322 -2.96266,-3.78632 -4.44786,-8.68319 -4.44786,-14.68878 v -72.34273 c 0,-1.15714 0.328,-2.06084 0.98945,-2.72235 0.74357,-0.65588 1.64533,-0.98382 2.71496,-0.98382 1.15152,0 2.0609,0.32794 2.71485,0.98382 0.66339,0.66151 0.99138,1.56521 0.99138,2.72235 v 72.34273 c 0,3.78448 0.77882,6.91489 2.34215,9.38198 1.64533,2.38696 3.74911,3.58135 6.29631,3.58135 h 3.08754 c 0.90938,0 1.64351,0.32794 2.22672,0.98945 0.57388,0.65588 0.859,1.56521 0.859,2.7149 0,1.06954 -0.328,1.97327 -0.98388,2.7149 -0.66145,0.65588 -1.56333,0.98942 -2.72042,0.98942 z m 75.83088,-5.43726 c 0.57388,0.66336 0.86457,1.40496 0.86457,2.22857 0,0.90188 -0.45094,1.76833 -1.36021,2.59006 -0.8217,0.65591 -1.56526,0.9913 -2.21921,0.9913 -0.99138,0 -1.85596,-0.49563 -2.5919,-1.48508 l -26.79317,-32.71855 -11.47819,10.49624 v 19.6304 c 0,1.06954 -0.3355,1.97327 -0.98945,2.7149 -0.66339,0.65588 -1.56526,0.98942 -2.71496,0.98942 -1.07145,0 -1.98072,-0.33354 -2.71485,-0.98942 -0.66339,-0.74163 -0.99138,-1.64536 -0.99138,-2.7149 v -89.01041 c 0,-1.15714 0.328,-2.06084 0.99138,-2.72235 0.73413,-0.65588 1.6434,-0.98382 2.71485,-0.98382 1.1497,0 2.05157,0.32794 2.71496,0.98382 0.65395,0.66151 0.98945,1.56521 0.98945,2.72235 v 60.36885 l 38.27136,-34.813 c 0.8217,-0.66333 1.60052,-0.99127 2.34409,-0.99127 0.8217,0 1.60052,0.40806 2.34409,1.23727 0.74152,0.736 1.11239,1.52233 1.11239,2.34409 0,0.82357 -0.41364,1.60245 -1.23727,2.34409 l -26.17448,23.83039 26.91793,32.95707 z m -542.5417,85.88611 c -2.03258,0 -3.8559,-0.46402 -5.46904,-1.39205 -1.61405,-0.92622 -2.88419,-2.19635 -3.81132,-3.81041 -0.92713,-1.61406 -1.39114,-3.42463 -1.39114,-5.43174 0,-2.03258 0.46402,-3.8559 1.39114,-5.46813 0.92713,-1.61405 2.19726,-2.88419 3.81132,-3.81223 1.61314,-0.92622 3.43646,-1.39023 5.46904,-1.39023 2.03258,0 3.84953,0.46402 5.44994,1.39023 1.60132,0.92804 2.86508,2.19817 3.79221,3.81223 0.92804,1.61223 1.39114,3.43555 1.39114,5.46813 l -0.9526,1.52489 c 0,1.72869 -0.4258,3.27724 -1.2765,4.64928 -0.85161,1.37204 -2.00074,2.45839 -3.4492,3.25904 -1.44846,0.80065 -3.10073,1.20099 -4.95498,1.20099 z m 0,-2.13448 c 1.60132,0 3.02976,-0.37485 4.28807,-1.12456 1.2574,-0.74971 2.24821,-1.76509 2.97244,-3.04978 0.72423,-1.28287 1.08635,-2.72406 1.08635,-4.32537 0,-1.62497 -0.36212,-3.08072 -1.08635,-4.36359 -0.72423,-1.28287 -1.71505,-2.30007 -2.97244,-3.04978 -1.25831,-0.74789 -2.68675,-1.12274 -4.28807,-1.12274 -1.57584,0 -2.99792,0.37485 -4.26806,1.12274 -1.27105,0.74971 -2.2746,1.76691 -3.01157,3.04978 -0.73697,1.28287 -1.10454,2.73862 -1.10454,4.36359 0,1.60132 0.36757,3.0425 1.10454,4.32537 0.73697,1.28469 1.74052,2.30007 3.01157,3.04978 1.27014,0.74971 2.69221,1.12456 4.26806,1.12456 z m 9.49053,1.9052 c -0.33118,0 -0.60413,-0.10736 -0.81977,-0.3239 -0.21654,-0.21472 -0.3239,-0.48949 -0.3239,-0.81886 v -6.97483 l 0.72423,-2.28734 h 1.56219 v 9.26216 c 0,0.32936 -0.1019,0.60413 -0.3048,0.81886 -0.2038,0.21654 -0.48312,0.3239 -0.83796,0.3239 z m 8.00385,8.91824 c -0.33118,0 -0.60413,-0.10918 -0.81977,-0.3239 -0.21654,-0.21654 -0.3239,-0.48949 -0.3239,-0.81886 v -18.40968 c 0.051,-2.00529 0.53953,-3.79221 1.46757,-5.35349 0.92713,-1.5631 2.19089,-2.8023 3.79221,-3.71578 1.60041,-0.9153 3.39188,-1.37204 5.37351,-1.37204 2.03258,0 3.85499,0.46402 5.46904,1.39023 1.61314,0.92804 2.88328,2.19817 3.81132,3.81223 0.92713,1.61223 1.39114,3.43555 1.39114,5.46813 0,2.0071 -0.46402,3.81768 -1.39114,5.43174 -0.92804,1.61405 -2.19817,2.88419 -3.81132,3.81041 -1.61405,0.92804 -3.43646,1.39205 -5.46904,1.39205 -1.82969,0 -3.47468,-0.39487 -4.93588,-1.18279 -1.4612,-0.7861 -2.59759,-1.84151 -3.41099,-3.1626 v 11.8916 c 0,0.32936 -0.1019,0.60231 -0.3048,0.81886 -0.2038,0.21472 -0.48312,0.3239 -0.83796,0.3239 z m 9.48962,-10.82345 c 1.60041,0 3.02976,-0.37485 4.28807,-1.12456 1.2574,-0.74971 2.25458,-1.76509 2.99155,-3.04978 0.73697,-1.28287 1.10545,-2.72406 1.10545,-4.32537 0,-1.62497 -0.36848,-3.08072 -1.10545,-4.36359 -0.73697,-1.28287 -1.73415,-2.30007 -2.99155,-3.04978 -1.25831,-0.74789 -2.68766,-1.12274 -4.28807,-1.12274 -1.57584,0 -2.99792,0.37485 -4.26806,1.12274 -1.27105,0.74971 -2.26823,1.76691 -2.99246,3.04978 -0.72423,1.28287 -1.08635,2.73862 -1.08635,4.36359 0,1.60132 0.36212,3.0425 1.08635,4.32537 0.72423,1.28469 1.72142,2.30007 2.99246,3.04978 1.27014,0.74971 2.69221,1.12456 4.26806,1.12456 z M 372,586.6151 c -0.33118,0 -0.60413,-0.10918 -0.81977,-0.3239 -0.21654,-0.21654 -0.3239,-0.48949 -0.3239,-0.81886 v -18.40968 c 0.051,-2.00529 0.53953,-3.79221 1.46757,-5.35349 0.92713,-1.5631 2.19089,-2.8023 3.79221,-3.71578 1.60041,-0.9153 3.39188,-1.37204 5.37351,-1.37204 2.03258,0 3.85499,0.46402 5.46904,1.39023 1.61314,0.92804 2.88328,2.19817 3.81132,3.81223 0.92713,1.61223 1.39114,3.43555 1.39114,5.46813 0,2.0071 -0.46402,3.81768 -1.39114,5.43174 -0.92804,1.61405 -2.19817,2.88419 -3.81132,3.81041 -1.61405,0.92804 -3.43646,1.39205 -5.46904,1.39205 -1.82969,0 -3.47468,-0.39487 -4.93588,-1.18279 -1.4612,-0.7861 -2.59759,-1.84151 -3.41099,-3.1626 v 11.8916 c 0,0.32936 -0.1019,0.60231 -0.3048,0.81886 -0.2038,0.21472 -0.48312,0.3239 -0.83796,0.3239 z m 9.48962,-10.82345 c 1.60041,0 3.02976,-0.37485 4.28807,-1.12456 1.2574,-0.74971 2.25458,-1.76509 2.99155,-3.04978 0.73697,-1.28287 1.10545,-2.72406 1.10545,-4.32537 0,-1.62497 -0.36848,-3.08072 -1.10545,-4.36359 -0.73697,-1.28287 -1.73415,-2.30007 -2.99155,-3.04978 -1.25831,-0.74789 -2.68766,-1.12274 -4.28807,-1.12274 -1.57584,0 -2.99792,0.37485 -4.26806,1.12274 -1.27105,0.74971 -2.26823,1.76691 -2.99246,3.04978 -0.72423,1.28287 -1.08635,2.73862 -1.08635,4.36359 0,1.60132 0.36212,3.0425 1.08635,4.32537 0.72423,1.28469 1.72142,2.30007 2.99246,3.04978 1.27014,0.74971 2.69221,1.12456 4.26806,1.12456 z m 20.58147,1.9052 c -0.96625,0 -1.82332,-0.26749 -2.57302,-0.80066 -0.7497,-0.53317 -1.33382,-1.27014 -1.75326,-2.21091 -0.41853,-0.93895 -0.6287,-2.03258 -0.6287,-3.27724 v -22.33291 c 0,-0.35666 0.10827,-0.63507 0.3239,-0.83887 0.21563,-0.2038 0.48949,-0.30571 0.81977,-0.30571 0.35575,0 0.63507,0.1019 0.83796,0.30571 0.2038,0.2038 0.30571,0.48221 0.30571,0.83887 v 22.33291 c 0,1.17005 0.24748,2.12902 0.74243,2.87691 0.49586,0.74971 1.1373,1.12456 1.92522,1.12456 h 0.9526 c 0.27932,0 0.50769,0.1019 0.68602,0.30571 0.17742,0.2038 0.26658,0.48221 0.26658,0.83887 0,0.32936 -0.1019,0.60413 -0.3048,0.81886 -0.2038,0.21654 -0.48312,0.3239 -0.83796,0.3239 z m 7.96564,-25.22984 c -0.48312,0 -0.89619,-0.17287 -1.2392,-0.51497 -0.34301,-0.34392 -0.51406,-0.7679 -0.51406,-1.27741 0,-0.58412 0.18379,-1.02266 0.55227,-1.31381 0.36848,-0.29297 0.78155,-0.43854 1.23829,-0.43854 0.43217,0 0.8325,0.14557 1.20099,0.43854 0.36757,0.29115 0.55227,0.72969 0.55227,1.31381 0,0.50951 -0.17105,0.93349 -0.51406,1.27741 -0.34301,0.3421 -0.76881,0.51497 -1.2765,0.51497 z m 0.0373,25.22984 c -0.33027,0 -0.60322,-0.10736 -0.81886,-0.3239 -0.21654,-0.21472 -0.3239,-0.48949 -0.3239,-0.81886 v -18.56072 c 0,-0.35666 0.10736,-0.63507 0.3239,-0.83887 0.21563,-0.2038 0.48858,-0.30571 0.81886,-0.30571 0.35575,0 0.63507,0.1019 0.83887,0.30571 0.20289,0.2038 0.3048,0.48221 0.3048,0.83887 v 18.56072 c 0,0.32936 -0.1019,0.60413 -0.3048,0.81886 -0.2038,0.21654 -0.48312,0.3239 -0.83887,0.3239 z m 17.98934,0.22928 c -1.98163,0 -3.754,-0.4713 -5.31619,-1.41025 -1.5631,-0.94077 -2.79594,-2.21091 -3.69759,-3.81223 -0.90165,-1.5995 -1.35293,-3.40462 -1.35293,-5.41172 0,-2.03258 0.41944,-3.84862 1.25831,-5.44994 0.83796,-1.60132 1.99437,-2.86417 3.46831,-3.79221 1.47303,-0.92622 3.1626,-1.39023 5.06871,-1.39023 1.62588,0 3.11165,0.31116 4.45912,0.93349 1.34656,0.62233 2.51571,1.56856 3.50652,2.8387 0.20289,0.25475 0.27932,0.52043 0.22837,0.80066 -0.051,0.28023 -0.21654,0.50769 -0.49586,0.68602 -0.22837,0.17833 -0.48221,0.24748 -0.76154,0.20926 -0.28023,-0.0382 -0.52134,-0.18379 -0.72423,-0.43854 -1.62679,-1.93068 -3.69668,-2.89693 -6.21238,-2.89693 -1.49941,0 -2.81413,0.36939 -3.94506,1.10636 -1.13093,0.73697 -2.0071,1.73961 -2.62943,3.01157 -0.62324,1.27014 -0.93349,2.73134 -0.93349,4.38178 0,1.60132 0.34301,3.0425 1.02903,4.32537 0.68602,1.28469 1.63225,2.30007 2.8387,3.04978 1.20645,0.74971 2.61124,1.12456 4.21165,1.12456 1.04177,0 2.02621,-0.15285 2.95425,-0.45856 0.92713,-0.30389 1.73415,-0.77336 2.42017,-1.41025 0.22837,-0.20198 0.48221,-0.31662 0.76154,-0.3421 0.27933,-0.0255 0.52043,0.0637 0.72423,0.26749 0.25385,0.22746 0.38759,0.48949 0.40033,0.78064 0.0127,0.29297 -0.0955,0.54044 -0.3239,0.74243 -1.85516,1.70322 -4.16706,2.55483 -6.93661,2.55483 z m 22.9052,0 c -2.03258,0 -3.8559,-0.46402 -5.46904,-1.39205 -1.61405,-0.92622 -2.88419,-2.19635 -3.81132,-3.81041 -0.92713,-1.61406 -1.39114,-3.42463 -1.39114,-5.43174 0,-2.03258 0.46402,-3.8559 1.39114,-5.46813 0.92713,-1.61405 2.19726,-2.88419 3.81132,-3.81223 1.61314,-0.92622 3.43646,-1.39023 5.46904,-1.39023 2.03258,0 3.84953,0.46402 5.44994,1.39023 1.60132,0.92804 2.86508,2.19817 3.79221,3.81223 0.92804,1.61223 1.39114,3.43555 1.39114,5.46813 l -0.9526,1.52489 c 0,1.72869 -0.4258,3.27724 -1.2765,4.64928 -0.85161,1.37204 -2.00074,2.45839 -3.4492,3.25904 -1.44846,0.80065 -3.10073,1.20099 -4.95498,1.20099 z m 0,-2.13448 c 1.60132,0 3.02976,-0.37485 4.28807,-1.12456 1.2574,-0.74971 2.24821,-1.76509 2.97244,-3.04978 0.72423,-1.28287 1.08635,-2.72406 1.08635,-4.32537 0,-1.62497 -0.36212,-3.08072 -1.08635,-4.36359 -0.72423,-1.28287 -1.71505,-2.30007 -2.97244,-3.04978 -1.25831,-0.74789 -2.68675,-1.12274 -4.28807,-1.12274 -1.57584,0 -2.99792,0.37485 -4.26806,1.12274 -1.27105,0.74971 -2.2746,1.76691 -3.01157,3.04978 -0.73697,1.28287 -1.10454,2.73862 -1.10454,4.36359 0,1.60132 0.36757,3.0425 1.10454,4.32537 0.73697,1.28469 1.74052,2.30007 3.01157,3.04978 1.27014,0.74971 2.69221,1.12456 4.26806,1.12456 z m 9.49053,1.9052 c -0.33118,0 -0.60413,-0.10736 -0.81977,-0.3239 -0.21654,-0.21472 -0.3239,-0.48949 -0.3239,-0.81886 v -6.97483 l 0.72423,-2.28734 h 1.56219 v 9.26216 c 0,0.32936 -0.1019,0.60413 -0.3048,0.81886 -0.2038,0.21654 -0.48312,0.3239 -0.83796,0.3239 z m 5.22066,-18.02755 c -0.3048,0 -0.55318,-0.0946 -0.74334,-0.28569 -0.19016,-0.19107 -0.28569,-0.43854 -0.28569,-0.74243 0,-0.30571 0.0955,-0.55318 0.28569,-0.74425 0.19016,-0.18925 0.43854,-0.28569 0.74334,-0.28569 h 10.32849 c 0.30571,0 0.55318,0.0964 0.74243,0.28569 0.19289,0.19107 0.28751,0.43854 0.28751,0.74425 0,0.30389 -0.0946,0.55136 -0.28751,0.74243 -0.18925,0.19107 -0.43672,0.28569 -0.74243,0.28569 z m 10.17564,18.02755 c -1.39751,-0.0255 -2.64217,-0.34938 -3.73398,-0.97171 -1.09363,-0.62233 -1.94433,-1.48668 -2.55483,-2.59122 -0.60959,-1.10636 -0.91439,-2.35648 -0.91439,-3.754 v -18.98106 c 0,-0.35484 0.10827,-0.64053 0.3239,-0.85707 0.21563,-0.21472 0.48949,-0.3239 0.81977,-0.3239 0.35575,0 0.64144,0.10918 0.85707,0.3239 0.21563,0.21654 0.3239,0.50223 0.3239,0.85707 v 18.98106 c 0,1.47394 0.45674,2.67311 1.37386,3.60114 0.91348,0.92804 2.09627,1.39023 3.54473,1.39023 h 0.83705 c 0.35666,0 0.64053,0.10918 0.85889,0.3239 0.21472,0.21654 0.3239,0.50223 0.3239,0.85889 0,0.32936 -0.10918,0.60413 -0.3239,0.81886 -0.21836,0.21654 -0.50223,0.3239 -0.85889,0.3239 h -0.87708 z m 8.68896,-25.22984 c -0.48221,0 -0.89528,-0.17287 -1.23738,-0.51497 -0.34392,-0.34392 -0.51497,-0.7679 -0.51497,-1.27741 0,-0.58412 0.18379,-1.02266 0.55318,-1.31381 0.36757,-0.29297 0.78064,-0.43854 1.23738,-0.43854 0.43308,0 0.83159,0.14557 1.20099,0.43854 0.36757,0.29115 0.55318,0.72969 0.55318,1.31381 0,0.50951 -0.17287,0.93349 -0.51497,1.27741 -0.34392,0.3421 -0.76972,0.51497 -1.27741,0.51497 z m 0.0382,25.22984 c -0.32936,0 -0.60413,-0.10736 -0.81886,-0.3239 -0.21654,-0.21472 -0.3239,-0.48949 -0.3239,-0.81886 v -18.56072 c 0,-0.35666 0.10736,-0.63507 0.3239,-0.83887 0.21472,-0.2038 0.48949,-0.30571 0.81886,-0.30571 0.35666,0 0.63507,0.1019 0.83887,0.30571 0.2038,0.20381 0.30571,0.48221 0.30571,0.83887 v 18.56072 c 0,0.32936 -0.1019,0.60413 -0.30571,0.81886 -0.2038,0.21654 -0.48221,0.3239 -0.83887,0.3239 z m 18.29504,0.22928 c -2.03258,0 -3.8559,-0.46402 -5.46813,-1.39205 -1.61405,-0.92622 -2.88419,-2.19635 -3.81223,-3.81041 -0.92804,-1.61406 -1.39023,-3.42463 -1.39023,-5.43174 0,-2.03258 0.4622,-3.8559 1.39023,-5.46813 0.92804,-1.61405 2.19817,-2.88419 3.81223,-3.81223 1.61223,-0.92622 3.43555,-1.39023 5.46813,-1.39023 2.03258,0 3.85044,0.46402 5.44994,1.39023 1.60132,0.92804 2.86326,2.19817 3.7913,3.81223 0.92804,1.61223 1.39387,3.43555 1.39387,5.46813 0,2.0071 -0.46584,3.81768 -1.39387,5.43174 -0.92803,1.61406 -2.18998,2.88419 -3.7913,3.81041 -1.5995,0.92804 -3.41736,1.39205 -5.44994,1.39205 z m 0,-2.13448 c 1.60132,0 3.02976,-0.37485 4.28716,-1.12456 1.25922,-0.74971 2.24912,-1.76509 2.97335,-3.04978 0.72423,-1.28287 1.08544,-2.7368 1.08544,-4.36359 0,-1.5995 -0.36121,-3.0425 -1.08544,-4.32537 -0.72423,-1.28287 -1.71414,-2.30007 -2.97335,-3.04978 -1.2574,-0.74789 -2.68584,-1.12274 -4.28716,-1.12274 -1.57584,0 -2.99883,0.37485 -4.26896,1.12274 -1.27014,0.74971 -2.27278,1.76691 -3.00975,3.04978 -0.73697,1.28287 -1.10636,2.73862 -1.10636,4.36359 0,1.60132 0.36939,3.0425 1.10636,4.32537 0.73697,1.28469 1.73961,2.30007 3.00975,3.04978 1.27014,0.74971 2.69312,1.12456 4.26896,1.12456 z m 17.49166,1.9052 c -0.32754,0 -0.60049,-0.10736 -0.81886,-0.3239 -0.21472,-0.21472 -0.3239,-0.48949 -0.3239,-0.81886 v -18.56072 c 0,-0.35666 0.10918,-0.63507 0.3239,-0.83887 0.21836,-0.2038 0.49131,-0.30571 0.81886,-0.30571 0.35666,0 0.63689,0.1019 0.84069,0.30571 0.2038,0.20381 0.30571,0.48221 0.30571,0.83887 v 18.56072 c 0,0.32936 -0.1019,0.60413 -0.30571,0.81886 -0.2038,0.21654 -0.48403,0.3239 -0.84069,0.3239 z m 16.88661,0 c -0.33118,0 -0.60413,-0.10736 -0.82249,-0.3239 -0.21472,-0.21472 -0.3239,-0.48949 -0.3239,-0.81886 v -10.25207 c 0,-1.67774 -0.3239,-3.06252 -0.97171,-4.15433 -0.64781,-1.09363 -1.52125,-1.91248 -2.62762,-2.45839 -1.10637,-0.54591 -2.3583,-0.82067 -3.75582,-0.82067 -1.37204,0 -2.60214,0.26203 -3.69395,0.78246 -1.09545,0.52043 -1.95797,1.23738 -2.59486,2.15268 -0.63325,0.9153 -0.94987,1.94342 -0.94987,3.08799 h -1.90702 c 0.1019,-1.57584 0.57138,-2.99337 1.40843,-4.25077 0.84069,-1.2574 1.9325,-2.2473 3.27906,-2.97153 1.34656,-0.72423 2.83142,-1.08635 4.45821,-1.08635 1.8306,0 3.47559,0.37485 4.93497,1.12456 1.46302,0.74971 2.61306,1.84151 3.45011,3.27725 0.84069,1.43572 1.25922,3.20808 1.25922,5.31709 v 10.25207 c 0,0.32936 -0.10918,0.60413 -0.3239,0.81886 -0.21836,0.21654 -0.49131,0.3239 -0.81886,0.3239 z m 25.87946,0.22928 c -1.32109,0 -2.70768,-0.24202 -4.15614,-0.72423 -1.44846,-0.48221 -2.65673,-1.29561 -3.62116,-2.44019 -0.2038,-0.25294 -0.28387,-0.52589 -0.24748,-0.81886 0.04,-0.29115 0.19653,-0.54044 0.47676,-0.74243 0.25475,-0.17833 0.52771,-0.24202 0.81886,-0.19107 0.29115,0.0509 0.52771,0.19107 0.70604,0.41853 0.73515,0.86435 1.63043,1.46848 2.68584,1.81058 1.05541,0.34392 2.20545,0.51497 3.45011,0.51497 2.13266,0 3.64663,-0.38213 4.53464,-1.14458 0.89164,-0.76063 1.33564,-1.65045 1.33564,-2.66765 0,-0.9899 -0.47676,-1.80876 -1.43027,-2.45839 -0.95351,-0.64781 -2.42017,-1.11 -4.40362,-1.39023 -2.54027,-0.35484 -4.41818,-1.04086 -5.63736,-2.05806 -1.22282,-1.01538 -1.8306,-2.19817 -1.8306,-3.54473 0,-1.27014 0.31662,-2.34375 0.95351,-3.22083 0.63325,-0.87527 1.50305,-1.53581 2.60942,-1.98163 1.10636,-0.444 2.36922,-0.666 3.79221,-0.666 1.72869,0 3.18808,0.31116 4.38178,0.93349 1.1937,0.62233 2.16178,1.45392 2.89693,2.4966 0.2038,0.25294 0.27295,0.52771 0.21108,0.81886 -0.0655,0.29297 -0.26203,0.52771 -0.58958,0.70422 -0.25475,0.12738 -0.52407,0.16559 -0.80066,0.11464 -0.28023,-0.0509 -0.52407,-0.20198 -0.72423,-0.45674 -0.63689,-0.8134 -1.40479,-1.42845 -2.30735,-1.84879 -0.90256,-0.41853 -1.95069,-0.62779 -3.1444,-0.62779 -1.60132,0 -2.84598,0.3421 -3.73398,1.02812 -0.89164,0.68602 -1.33564,1.51215 -1.33564,2.47658 0,0.66236 0.18561,1.2392 0.55318,1.73415 0.36757,0.49677 0.97171,0.9153 1.8124,1.25922 0.83705,0.3421 1.95433,0.61505 3.35185,0.81886 1.90702,0.25475 3.41008,0.68602 4.51644,1.29561 1.10636,0.60959 1.89247,1.31563 2.36194,2.11447 0.47312,0.80066 0.70604,1.65955 0.70604,2.57302 0,1.19553 -0.38213,2.23638 -1.14276,3.12621 -0.76063,0.88983 -1.76509,1.56856 -3.00975,2.03804 -1.24466,0.4713 -2.59122,0.70604 -4.03969,0.70604 z m 22.56037,-0.0382 c -2.00892,0 -3.79221,-0.45128 -5.35349,-1.35384 -1.56492,-0.90074 -2.79139,-2.15268 -3.67939,-3.754 -0.888,-1.60132 -1.332,-3.43009 -1.332,-5.48815 0,-2.08353 0.41853,-3.91959 1.25558,-5.50635 0.84069,-1.58858 1.99437,-2.84052 3.46831,-3.754 1.47394,-0.9153 3.1626,-1.37204 5.06962,-1.37204 1.88155,0 3.54473,0.43672 4.9932,1.31381 1.44847,0.87709 2.57666,2.08353 3.39188,3.62116 0.81158,1.53763 1.21918,3.30999 1.21918,5.3171 0,0.32936 -0.1019,0.58958 -0.30571,0.78064 -0.20381,0.19106 -0.46948,0.28569 -0.80066,0.28569 h -16.77015 v -1.98163 h 17.38157 l -1.67774,1.2574 c 0.0509,-1.65045 -0.22928,-3.11165 -0.83705,-4.38178 -0.61141,-1.27014 -1.48122,-2.26914 -2.61306,-2.99337 -1.1282,-0.72423 -2.45657,-1.08635 -3.98146,-1.08635 -1.44846,0 -2.7368,0.36212 -3.86864,1.08635 -1.13184,0.72423 -2.01984,1.72324 -2.66765,2.99337 -0.64781,1.27013 -0.97171,2.74407 -0.97171,4.42 0,1.65227 0.3421,3.11347 1.02994,4.3836 0.6842,1.27014 1.63771,2.26732 2.85689,2.99155 1.21918,0.72423 2.6167,1.08635 4.19254,1.08635 0.9899,0 1.98709,-0.17105 2.99155,-0.51497 1.00446,-0.3421 1.79784,-0.79338 2.38378,-1.35202 0.20016,-0.2038 0.45128,-0.31116 0.74243,-0.32389 0.29115,-0.0127 0.53862,0.0691 0.74243,0.24747 0.28023,0.22746 0.4258,0.48221 0.43672,0.76245 0.0146,0.27841 -0.10554,0.53317 -0.3603,0.76063 -0.81522,0.73879 -1.87427,1.34838 -3.1808,1.8306 -1.31017,0.48221 -2.56211,0.72423 -3.75582,0.72423 z m 22.44755,0.0382 c -1.98345,0 -3.75218,-0.4713 -5.3171,-1.41025 -1.56128,-0.94077 -2.79503,-2.21091 -3.69759,-3.81223 -0.90256,-1.5995 -1.3502,-3.40462 -1.3502,-5.41172 0,-2.03258 0.41853,-3.84862 1.25558,-5.44994 0.84069,-1.60132 1.99437,-2.86417 3.46831,-3.79221 1.47394,-0.92622 3.1626,-1.39023 5.06962,-1.39023 1.62679,0 3.11165,0.31116 4.45821,0.93349 1.34656,0.62233 2.5148,1.56856 3.50834,2.8387 0.20016,0.25475 0.27659,0.52043 0.22928,0.80066 -0.0546,0.28023 -0.21836,0.50769 -0.49859,0.68602 -0.22564,0.17833 -0.4804,0.24748 -0.76063,0.20926 -0.28023,-0.0382 -0.52043,-0.18379 -0.72423,-0.43854 -1.62679,-1.93068 -3.69759,-2.89693 -6.21238,-2.89693 -1.49941,0 -2.81322,0.36939 -3.94506,1.10636 -1.13184,0.73697 -2.00892,1.73961 -2.63125,3.01157 -0.62233,1.27014 -0.93168,2.73134 -0.93168,4.38178 0,1.60132 0.3421,3.0425 1.02994,4.32537 0.6842,1.28469 1.63043,2.30007 2.8387,3.04978 1.20463,0.74971 2.60942,1.12456 4.21074,1.12456 1.04086,0 2.02712,-0.15285 2.95516,-0.45856 0.9244,-0.30389 1.73233,-0.77336 2.42017,-1.41025 0.22564,-0.20198 0.4804,-0.31662 0.76063,-0.3421 0.28023,-0.0255 0.52043,0.0637 0.72423,0.26749 0.25475,0.22746 0.38577,0.48949 0.40033,0.78064 0.0109,0.29297 -0.0946,0.54044 -0.3239,0.74243 -1.85607,1.70322 -4.16706,2.55483 -6.93661,2.55483 z m 22.64044,0.0382 c -1.8306,0 -3.46831,-0.37485 -4.91677,-1.12456 -1.44846,-0.74971 -2.5985,-1.84879 -3.45011,-3.29726 -0.85161,-1.44847 -1.27741,-3.21355 -1.27741,-5.29708 v -10.25207 c 0,-0.33118 0.10918,-0.60413 0.3239,-0.82067 0.21472,-0.21472 0.48767,-0.3239 0.81886,-0.3239 0.33119,0 0.60413,0.10918 0.81886,0.3239 0.21836,0.21654 0.3239,0.48949 0.3239,0.82067 v 10.25207 c 0,1.65227 0.3239,3.02976 0.97171,4.13431 0.64781,1.10636 1.52489,1.9325 2.63125,2.4784 1.10636,0.5459 2.35466,0.81886 3.75582,0.81886 1.37204,0 2.60214,-0.26749 3.69395,-0.80066 1.09181,-0.53317 1.95797,-1.25012 2.59122,-2.15268 0.63689,-0.90256 0.95351,-1.92522 0.95351,-3.06798 h 1.90702 c -0.1019,1.57584 -0.57138,2.99155 -1.41207,4.24895 -0.83705,1.2574 -1.92158,2.24912 -3.25722,2.97335 -1.33564,0.72423 -2.82778,1.08635 -4.47641,1.08635 z m 8.38144,-0.26749 c -0.32754,0 -0.60049,-0.10736 -0.81886,-0.3239 -0.21472,-0.21472 -0.3239,-0.48949 -0.3239,-0.81886 v -18.56072 c 0,-0.35666 0.10918,-0.63507 0.3239,-0.83887 0.21836,-0.2038 0.49131,-0.30571 0.81886,-0.30571 0.35666,0 0.63689,0.1019 0.84069,0.30571 0.2038,0.20381 0.30571,0.48221 0.30571,0.83887 v 18.56072 c 0,0.32936 -0.1019,0.60413 -0.30571,0.81886 -0.2038,0.21654 -0.48403,0.3239 -0.84069,0.3239 z m 9.14934,0 c -0.33118,0 -0.60413,-0.10736 -0.81886,-0.3239 -0.21836,-0.21472 -0.3239,-0.48949 -0.3239,-0.81886 v -18.56072 c 0,-0.35666 0.10554,-0.63507 0.3239,-0.83887 0.21472,-0.2038 0.48767,-0.30571 0.81886,-0.30571 0.35666,0 0.63325,0.1019 0.83705,0.30571 0.2038,0.20381 0.30571,0.48221 0.30571,0.83887 v 18.56072 c 0,0.32936 -0.1019,0.60413 -0.30571,0.81886 -0.2038,0.21654 -0.4804,0.3239 -0.83705,0.3239 z m -0.38213,-12.72865 c 0.15285,-1.62679 0.59685,-3.0698 1.33564,-4.32719 0.73515,-1.2574 1.68866,-2.24184 2.85689,-2.95334 1.16823,-0.7115 2.46384,-1.06633 3.88683,-1.06633 0.96807,0 1.71778,0.11282 2.24912,0.3421 0.53499,0.22928 0.73879,0.63507 0.61141,1.21918 -0.0764,0.38213 -0.25475,0.60959 -0.53499,0.68602 -0.28024,0.0764 -0.61505,0.0837 -1.0081,0.02 -0.39669,-0.0637 -0.83341,-0.0965 -1.31745,-0.0965 -1.27014,0 -2.39834,0.26749 -3.39188,0.80066 -0.9899,0.53499 -1.76509,1.26468 -2.32555,2.19271 -0.55682,0.92804 -0.83705,1.98709 -0.83705,3.18262 h -1.52489 z M 665.73243,552.467 c -0.48403,0 -0.89528,-0.17287 -1.23738,-0.51497 -0.34574,-0.34392 -0.51679,-0.7679 -0.51679,-1.27741 0,-0.58412 0.18561,-1.02266 0.55318,-1.31381 0.36757,-0.29297 0.78246,-0.43854 1.23738,-0.43854 0.43308,0 0.83341,0.14557 1.20099,0.43854 0.36757,0.29115 0.55318,0.72969 0.55318,1.31381 0,0.50951 -0.17105,0.93349 -0.51315,1.27741 -0.34574,0.3421 -0.77154,0.51497 -1.27741,0.51497 z m 0.0364,25.22984 c -0.32754,0 -0.60413,-0.10736 -0.81886,-0.3239 -0.21472,-0.21472 -0.3239,-0.48949 -0.3239,-0.81886 v -18.56072 c 0,-0.35666 0.10918,-0.63507 0.3239,-0.83887 0.21472,-0.2038 0.49131,-0.30571 0.81886,-0.30571 0.35666,0 0.63689,0.1019 0.84069,0.30571 0.2038,0.20381 0.30571,0.48221 0.30571,0.83887 v 18.56072 c 0,0.32936 -0.1019,0.60413 -0.30571,0.81886 -0.2038,0.21654 -0.48403,0.3239 -0.84069,0.3239 z m 7.12586,-18.02755 c -0.30207,0 -0.54954,-0.0946 -0.74243,-0.28569 -0.18925,-0.19107 -0.28387,-0.43854 -0.28387,-0.74243 0,-0.30571 0.0946,-0.55318 0.28387,-0.74425 0.19289,-0.18925 0.44036,-0.28569 0.74243,-0.28569 h 10.32849 c 0.30571,0 0.55318,0.0964 0.74607,0.28569 0.18925,0.19107 0.28387,0.43854 0.28387,0.74425 0,0.30389 -0.0946,0.55136 -0.28387,0.74243 -0.19289,0.19107 -0.44036,0.28569 -0.74607,0.28569 z m 10.17928,18.02755 c -1.39751,-0.0255 -2.64581,-0.34938 -3.73762,-0.97171 -1.09181,-0.62233 -1.94342,-1.48668 -2.55119,-2.59122 -0.61141,-1.10636 -0.91712,-2.35648 -0.91712,-3.754 v -18.98106 c 0,-0.35484 0.10918,-0.64053 0.3239,-0.85707 0.21836,-0.21472 0.49131,-0.3239 0.81886,-0.3239 0.35666,0 0.64417,0.10918 0.85889,0.3239 0.21472,0.21654 0.3239,0.50223 0.3239,0.85707 v 18.98106 c 0,1.47394 0.45856,2.67311 1.37204,3.60114 0.91348,0.92803 2.09627,1.39023 3.54473,1.39023 h 0.83705 c 0.35666,0 0.64417,0.10918 0.85889,0.3239 0.21472,0.21654 0.3239,0.50223 0.3239,0.85889 0,0.32936 -0.10918,0.60413 -0.3239,0.81886 -0.21472,0.21654 -0.50223,0.3239 -0.85889,0.3239 h -0.87345 z m 14.32815,-0.49495 c -0.33118,0.15103 -0.62233,0.18925 -0.87708,0.11464 -0.25112,-0.0764 -0.45492,-0.28023 -0.60777,-0.61141 l -8.34868,-18.29322 c -0.14921,-0.32936 -0.18925,-0.62233 -0.11282,-0.87708 0.0764,-0.25294 0.28023,-0.45674 0.61141,-0.60959 0.32754,-0.15285 0.62233,-0.19107 0.87345,-0.11464 0.25475,0.0764 0.45856,0.28023 0.61141,0.60959 l 8.34504,18.29504 c 0.15285,0.33118 0.19289,0.62233 0.11646,0.87708 -0.0764,0.25294 -0.28023,0.45674 -0.61141,0.60959 z m -4.03969,9.52783 c -0.15285,0 -0.33118,-0.0382 -0.53135,-0.11464 -0.68784,-0.28023 -0.87708,-0.74971 -0.57138,-1.41025 l 12.80326,-27.74645 c 0.30571,-0.63325 0.77518,-0.82431 1.41207,-0.57138 0.6842,0.28023 0.87708,0.74971 0.57138,1.41025 l -12.80689,27.74645 c -0.22928,0.45674 -0.52043,0.68602 -0.87708,0.68602 z" /></g></svg>