<svg xmlns="http://www.w3.org/2000/svg" width="100" height="100"
  xmlns:xlink="http://www.w3.org/1999/xlink" version="1.1" viewBox="0 0 164 205" enable-background="new 0 0 164 164" xml:space="preserve">
  <g>
    <g>
      <path d="M157.7,53.1C157.2,27,135.8,5.7,109.2,5.7C90.8-0.9,69.8-0.8,50.6,7.3c-2.4-1.3-5.1-2-7.9-2c-9.3,0-16.8,7.5-16.8,16.8    c0,0.5,0,0.9,0.1,1.4C9.9,39,1,59.7,1,82c0,14.1,3.7,27.9,10.6,40.1v2.4H2c-0.6,0-1,0.4-1,1c0,8.1,6.6,14.7,14.7,14.7h10    C40.9,154.9,60.8,163,82,163C139,163,177.8,105.6,157.7,53.1z M128.6,96.3V63.7c2.5,3.3-1.1,3.1,2,9.8c3.3,7.2,3,8.2,5.8,8    c3.3-0.2,4.8-2.7,5.8-5.9c0.9-2.9,1.3-1.5,2-5c0.9-4.7,3.9-5.5,2.4-9.6c-1.9-5.5,0.1-2.9,2-7.4c0.8-2,1.3-4.1,1.5-6.4    c0-0.7-0.6-1.2-1.3-1c0.7-0.7,1.5-1.5,2.4-2.2c1.5-1.2,1.7-2.9,0.9-4.3c0.3,0,0.5,0,1.4,0.1C160.6,61.9,150.3,86.4,128.6,96.3z     M119.1,46.3h-10.4c1.1-2.1,3.4-1.8,3.2-4.6c0.2-0.3,1.1-1.5,1.5-2c2.4,0.8,4.2-1.5,9-2.2c0.4,2.1,1,2.4,3.5,2.3    c0.2,0.1,2,1.5,4,0.1c0.8-0.6,1.7-0.8,2.7-0.7c0.8,0.1,0.2-0.1,3.3,0c1.5,0,1.1,0.1,1.4,0c-0.4,0.6-0.1,1.6,0.4,2.1    c2.4,2.4,0.9,2.9,4.8,6c3,2.4,1.9,3.1,5.4,1.6c-1.1,7.6-4.4,5.7-4.1,9.5c0.2,3.1,2,4.3,0.7,6.4c-0.6,1-1.2,2.2-1.8,3.7    c-0.6,1.6-0.5,3.1-1.3,4.3c-1.4,1.9-1.3,6.6-5.1,6.9c-1.2,0.1-0.3,0.7-3.8-6.8c-3.2-7,2.1-5.8-3.8-12v-4.9    C128.6,50.5,124.3,46.3,119.1,46.3z M126.6,55.8v42.1c0,0,0,0,0,0v26.6h-113V55.8c0-4.1,3.4-7.5,7.5-7.5h98    C123.2,48.3,126.6,51.6,126.6,55.8z M117.1,36.9c2.3-3.8,3.1-4.4,6.8-2.2c-0.4,0.2-0.6,0.3-0.8,0.6    C120.3,35.8,120.1,35.6,117.1,36.9z M124.4,37c1.3,0.4,1.8,0.6,2.4-1.3c0.2-0.5,0.2-0.7,0.4-0.8c1.8,2,3.5,1.6,4,0.3    c1.8,1.5,3.2,0.4,5.3,0.6c-0.2,0.4-0.4,0.8-0.5,1.2l-0.1,0c-3-0.1-2.8,0.1-3.2,0c-3.9-0.3-3.8,2.1-5.5,1.1    c-1.3-0.8-1.2-0.2-2.7-0.5C124.5,37.6,124.5,37.4,124.4,37z M133.3,16.4c1,0.4,1.3-0.7,1.5-1c8.2,5.4,14.5,13.3,17.9,22.4    c-0.5,0-1.4,0.1-1.8,0c-4.8-0.6-5.2-1.1-5.7-0.4c-0.5,0.6-0.1,1.1,0,1.4c0.4,1,0.6,2.2,1.8,2.5c1.1,0.3,2-0.4,2.7-1.2    c1,0.7,1.3,1.7,0.3,2.4c-3.3,2.6-3.6,4.3-5,3.1c-3.4-2.9-1.3-2.8-5.6-6.2c-0.6-0.5-0.8-0.8-1.4-0.7c0.6-0.9-0.5-0.9,0.4-2    c1-1.1,0.5-2.6-1.1-2.8c-0.9-0.1-1.9-0.2-2.9,0c-1.3,0.3-2.1-0.1-2.5-1.3c-0.4-1.1-1.5-0.5-1.7-0.5c-1.7,0.4-1.3,0.3-1.7,1.1    c-1-1.9-2.9-2.3-4.1-2.8c-0.5-0.2-1-0.1-1.3,0c-0.9,0.2-1.1,0.4-1.1,1.3c-3.3-1.3-5.6,2.4-7.1,5.1c-0.5,0.3-2.6,0.4-3.1,0.4    c0-0.1,0,0.2-0.5-2.5c0.8-0.1,1.7,0,2.7-0.2c0.6-0.1,1.9-0.9,2-1.5c0.1-0.7-0.9-1.9-1.5-2.2c0.6-0.1,1.6-0.4,1.9-1.5    c3.2-2.6,3.4-2.8,3.5-3c1.2,0.6,3.5-0.1,4.8-0.6c0.6-0.2,1.1-1,1-2.1c0.2-0.1,0,0,2.6-2.1c0.8-0.6,0.2-1.9-0.7-1.8    c-1.2,0.1-2.2,0.9-2.6,0.4c-0.2-0.3-0.2-0.4,0-0.6c0.4-0.4,0.5-0.9,0.7-1.2c0.4-0.8-0.3-1.6-1.1-1.4c-0.5,0.1-0.9,0.4-1,0.4    c-3.1,1.2-1.8,4-1.8,5.7c-1.2-0.8-2.5-1.7-4.3-0.9c0,0,0,0,0,0c0,0-0.2-0.4-0.2-0.4c0-0.2,0.5-0.8,0.8-0.9c1.3-0.4,2-1.3,2-2.4    c0-0.4,0.1-0.5,0.6-1c2.2-2.3,2.1-1.2,2.8-2c0.5,0,1.2-0.1,1.5,0c0.9,0.4,1.5,0.3,2.7,0.3c-0.6,0.4-0.6,1.3-0.1,1.7    c1.5,1.1,2.9,2.6,3.7,0.8C132.1,18,132.9,17.2,133.3,16.4z M123.6,21.6c0.1,0.1,0.3,0.2,0.4,0.3c-0.2,0.1-0.3,0.3-0.4,0.6    C123.6,22.1,123.6,21.9,123.6,21.6z M131.8,13.5c-0.4,0-0.8,0.2-1,0.6c-1-0.6-4.7-0.4-5.2-0.6c-1-0.4-2.1-0.2-2.9-0.2    c-0.3,0-0.7,0.1-0.9,0.6c-1.2,0.4-2,1.2-2.8,2.1c-1.9,2.1-0.5,2.6-1.6,2.9c-1.2,0.3-2.4,1.9-2.2,3.1c0.1,0.5,0.3,0.9,0.5,1.2    c0.5,0.7,0.9,1.2,1.9,1c-0.1,0.5,0,0.9,0.2,1.3c-3.4,2.8-3.3,2.6-3.3,3.2c-0.2,0.1-1,0.2-1.6,0.6c-0.3,0.2-1.7,0.3-0.9,1.9    c0.5,1,0.8,1,1.7,1.4c-1.2,0.2-5-0.4-4.2,2.7c0.4,1.6,0.1,3.7,2,4c-2.7,3.5-0.2,2.8-2.6,4.3c-1.1,0.7-1.7,1.8-2.2,3h-43    C69,14.3,104.4-1.8,131.8,13.5z M42.7,7.3c8.1,0,14.8,6.6,14.8,14.8c0,8.1-6.6,14.8-14.8,14.8c-8.1,0-14.8-6.6-14.8-14.8    C27.9,14,34.5,7.3,42.7,7.3z M3,82c0-21.3,8.3-41.1,23.4-56.1c1.7,7.4,8.4,12.9,16.3,12.9c9.3,0,16.8-7.5,16.8-16.8    c0-5.5-2.7-10.4-6.8-13.5C69.1,2.1,87,1.3,103.7,6C83.6,8.4,65.2,23.6,61.5,46.3H21.1c-5.2,0-9.5,4.3-9.5,9.5v62.1    C6,106.8,3,94.5,3,82z M15.7,138.2C9,138.2,3.5,133,3,126.5h9.6h115h9.6c-0.5,6.6-6,11.7-12.7,11.7    C123.4,138.2,16.9,138.2,15.7,138.2z M82,161c-19.9,0-38.8-7.4-53.4-20.8c16.5,0,95.2,0,106.7,0C121.3,153.1,102.5,161,82,161z     M137.4,138.2h-5.6c4.4-2.6,7.4-7.3,7.4-12.7c0-0.6-0.4-1-1-1h-9.6v-26c16.3-7.1,27.2-22.3,28.9-39.8    C166,86.2,158.9,117,137.4,138.2z"/>
    </g>
    <g>
      <path d="M54.4,147.3h24.2c0.6,0,1-0.4,1-1c0-0.6-0.4-1-1-1H54.4c-0.6,0-1,0.4-1,1C53.4,146.8,53.9,147.3,54.4,147.3z"/>
    </g>
    <g>
      <path d="M82.6,147.3h4c0.6,0,1-0.4,1-1c0-0.6-0.4-1-1-1h-4c-0.6,0-1,0.4-1,1C81.6,146.8,82,147.3,82.6,147.3z"/>
    </g>
    <g>
      <path d="M90,147.3h2.6c0.6,0,1-0.4,1-1c0-0.6-0.4-1-1-1H90c-0.6,0-1,0.4-1,1C89,146.8,89.4,147.3,90,147.3z"/>
    </g>
    <g>
      <path d="M84.3,151.2c0,0.6,0.4,1,1,1h24.2c0.6,0,1-0.4,1-1c0-0.6-0.4-1-1-1H85.3C84.7,150.2,84.3,150.6,84.3,151.2z"/>
    </g>
    <g>
      <path d="M76.4,151.2c0,0.6,0.4,1,1,1h4c0.6,0,1-0.4,1-1c0-0.6-0.4-1-1-1h-4C76.9,150.2,76.4,150.6,76.4,151.2z"/>
    </g>
    <g>
      <path d="M74,150.2h-2.6c-0.6,0-1,0.4-1,1c0,0.6,0.4,1,1,1H74c0.6,0,1-0.4,1-1C75,150.6,74.6,150.2,74,150.2z"/>
    </g>
    <g>
      <path d="M119.1,54.6h-98c-0.6,0-1.1,0.5-1.1,1.1v61.4c0,0.6,0.4,1,1,1h98.3c0.6,0,1-0.4,1-1V55.8    C120.2,55.1,119.7,54.6,119.1,54.6z M118.2,116.1H21.9V56.6h96.3V116.1z"/>
    </g>
    <g>
      <path d="M24.9,90.1h29.5c0.6,0,1-0.4,1-1V59.6c0-0.6-0.4-1-1-1H24.9c-0.6,0-1,0.4-1,1v29.5C23.9,89.7,24.4,90.1,24.9,90.1z     M25.9,60.6h27.5v27.5H25.9V60.6z"/>
    </g>
    <g>
      <path d="M60,61.8h12.7c0.6,0,1-0.4,1-1c0-0.6-0.4-1-1-1H60c-0.6,0-1,0.4-1,1C59,61.4,59.5,61.8,60,61.8z"/>
    </g>
    <g>
      <path d="M69.9,69c0,0.6,0.4,1,1,1h11.1c0.6,0,1-0.4,1-1c0-0.6-0.4-1-1-1H70.9C70.3,68,69.9,68.5,69.9,69z"/>
    </g>
    <g>
      <path d="M85,70h11.1c0.6,0,1-0.4,1-1c0-0.6-0.4-1-1-1H85c-0.6,0-1,0.4-1,1C84,69.6,84.5,70,85,70z"/>
    </g>
    <g>
      <path d="M99.2,70.4h15c0.6,0,1-0.4,1-1c0-0.6-0.4-1-1-1h-15c-0.6,0-1,0.4-1,1C98.2,69.9,98.6,70.4,99.2,70.4z"/>
    </g>
    <g>
      <path d="M89.5,77.3c0-0.6-0.4-1-1-1H70.9c-0.6,0-1,0.4-1,1c0,0.6,0.4,1,1,1h17.6C89,78.3,89.5,77.8,89.5,77.3z"/>
    </g>
    <g>
      <path d="M114.1,76.3H92.5c-0.6,0-1,0.4-1,1c0,0.6,0.4,1,1,1h21.7c0.6,0,1-0.4,1-1C115.1,76.7,114.7,76.3,114.1,76.3z"/>
    </g>
    <g>
      <path d="M60,86.5h12.7c0.6,0,1-0.4,1-1c0-0.6-0.4-1-1-1H60c-0.6,0-1,0.4-1,1C59,86.1,59.5,86.5,60,86.5z"/>
    </g>
    <g>
      <path d="M69.9,93.8c0,0.6,0.4,1,1,1h17.6c0.6,0,1-0.4,1-1c0-0.6-0.4-1-1-1H70.9C70.3,92.8,69.9,93.2,69.9,93.8z"/>
    </g>
    <g>
      <path d="M102.2,94.8c0.6,0,1-0.4,1-1c0-0.6-0.4-1-1-1h-10c-0.6,0-1,0.4-1,1c0,0.6,0.4,1,1,1H102.2z"/>
    </g>
    <g>
      <path d="M114.1,92.8h-8.4c-0.6,0-1,0.4-1,1c0,0.6,0.4,1,1,1h8.4c0.6,0,1-0.4,1-1C115.1,93.2,114.7,92.8,114.1,92.8z"/>
    </g>
    <g>
      <path d="M26.1,103h34.6c0.6,0,1-0.4,1-1c0-0.6-0.4-1-1-1H26.1c-0.6,0-1,0.4-1,1C25.1,102.6,25.5,103,26.1,103z"/>
    </g>
    <g>
      <path d="M64.8,102c0,0.6,0.4,1,1,1h16.5c0.6,0,1-0.4,1-1c0-0.6-0.4-1-1-1H65.8C65.2,101,64.8,101.5,64.8,102z"/>
    </g>
    <g>
      <path d="M114.1,101H86c-0.6,0-1,0.4-1,1c0,0.6,0.4,1,1,1h28.2c0.6,0,1-0.4,1-1C115.1,101.5,114.7,101,114.1,101z"/>
    </g>
    <g>
      <path d="M67.9,109.4H26.1c-0.6,0-1,0.4-1,1c0,0.6,0.4,1,1,1h41.8c0.6,0,1-0.4,1-1C68.9,109.8,68.4,109.4,67.9,109.4z"/>
    </g>
    <g>
      <path d="M114.1,109.4H72.4c-0.6,0-1,0.4-1,1c0,0.6,0.4,1,1,1h41.8c0.6,0,1-0.4,1-1C115.1,109.8,114.7,109.4,114.1,109.4z"/>
    </g>
    <g>
      <polygon points="38.2,23.5 34,21.6 34,21.4 38.2,19.5 38.2,18.1 32.6,20.8 32.6,22.3 38.2,24.9   "/>
    </g>
    <g>
      <polygon points="45.9,16.5 44.7,16.5 39.5,27.7 40.7,27.7   "/>
    </g>
    <g>
      <polygon points="52.8,20.8 47.1,18.1 47.1,19.5 51.3,21.4 51.3,21.6 47.1,23.5 47.1,24.9 52.8,22.3   "/>
    </g>
    <g>
      <path d="M49.9,71.8l-1.7-0.5c-0.1-0.2-0.2-0.4-0.3-0.6l0.9-1.6c0.2-0.4,0.1-0.9-0.2-1.2l-2.4-2.4c-0.3-0.3-0.8-0.4-1.2-0.2    l-1.6,0.9c-0.2-0.1-0.4-0.2-0.6-0.3l-0.5-1.7c-0.1-0.4-0.5-0.7-1-0.7H38c-0.4,0-0.8,0.3-1,0.7l-0.5,1.7c-0.2,0.1-0.4,0.2-0.6,0.3    l-1.6-0.9c-0.4-0.2-0.9-0.1-1.2,0.2l-2.4,2.4c-0.3,0.3-0.4,0.8-0.2,1.2l0.9,1.6c-0.1,0.2-0.2,0.4-0.3,0.6l-1.7,0.5    c-0.4,0.1-0.7,0.5-0.7,1V76c0,0.4,0.3,0.8,0.7,1l1.7,0.5c0.1,0.2,0.2,0.4,0.3,0.6l-0.9,1.6c-0.2,0.4-0.1,0.9,0.2,1.2l2.4,2.4    c0.3,0.3,0.8,0.4,1.2,0.2l1.6-0.9c0.2,0.1,0.4,0.2,0.6,0.3l0.5,1.7c0.1,0.4,0.5,0.7,1,0.7h3.3c0.4,0,0.8-0.3,1-0.7l0.5-1.7    c0.2-0.1,0.4-0.2,0.6-0.3l1.6,0.9c0.4,0.2,0.9,0.1,1.2-0.2l2.4-2.4c0.3-0.3,0.4-0.8,0.2-1.2l-0.9-1.6c0.1-0.2,0.2-0.4,0.3-0.6    l1.7-0.5c0.4-0.1,0.7-0.5,0.7-1v-3.3C50.6,72.3,50.3,71.9,49.9,71.8z M48.6,75.3l-1.5,0.4c-0.3,0.1-0.6,0.3-0.7,0.7    c-0.1,0.4-0.3,0.9-0.5,1.3c-0.2,0.3-0.2,0.7,0,0.9l0.7,1.4l-1.3,1.3l-1.4-0.7c-0.3-0.2-0.7-0.2-0.9,0c-0.4,0.2-0.8,0.4-1.3,0.5    c-0.3,0.1-0.6,0.4-0.7,0.7l-0.4,1.5h-1.8l-0.4-1.5c-0.1-0.3-0.3-0.6-0.7-0.7c-0.4-0.1-0.9-0.3-1.3-0.5c-0.3-0.2-0.6-0.2-0.9,0    l-1.4,0.7L32.8,80l0.7-1.4c0.2-0.3,0.2-0.7,0-1c-0.2-0.4-0.4-0.8-0.5-1.3c-0.1-0.3-0.4-0.6-0.7-0.7l-1.5-0.4v-1.8l1.5-0.4    c0.3-0.1,0.6-0.3,0.7-0.7c0.1-0.4,0.3-0.9,0.5-1.3c0.2-0.3,0.2-0.7,0-0.9l-0.7-1.4l1.3-1.3l1.4,0.7c0.3,0.2,0.7,0.2,1,0    c0.4-0.2,0.8-0.4,1.3-0.5c0.3-0.1,0.6-0.4,0.7-0.7l0.4-1.5h1.8l0.4,1.5c0.1,0.3,0.3,0.6,0.7,0.7c0.4,0.1,0.9,0.3,1.3,0.5    c0.3,0.2,0.7,0.2,1,0l1.4-0.7l1.3,1.3l-0.7,1.4c-0.2,0.3-0.2,0.6,0,0.9c0.2,0.4,0.4,0.8,0.5,1.3c0.1,0.3,0.4,0.6,0.7,0.7l1.5,0.4    V75.3z"/>
    </g>
    <g>
      <path d="M39.7,69.5c-2.7,0-4.9,2.2-4.9,4.9c0,2.7,2.2,4.9,4.9,4.9c2.7,0,4.9-2.2,4.9-4.9C44.5,71.7,42.4,69.5,39.7,69.5z     M39.7,77.2c-1.6,0-2.9-1.3-2.9-2.9c0-1.6,1.3-2.9,2.9-2.9c1.6,0,2.9,1.3,2.9,2.9C42.5,76,41.3,77.2,39.7,77.2z"/>
    </g>
  </g>
</svg>