<svg xmlns="http://www.w3.org/2000/svg" xmlns:xlink="http://www.w3.org/1999/xlink" version="1.1" x="0px" y="0px" viewBox="0 0 100 125" style="enable-background:new 0 0 100 100;" xml:space="preserve"><style type="text/css">
	.st0{fill:none;}
</style><g><path class="st0" d="M50,25c-14,0-25.3,11.3-25.3,25.3S36,75.6,50,75.6s25.3-11.3,25.3-25.3S64,25,50,25z M42.6,44.2   c0,0.8,0,1.5-0.1,2.1c-0.6,2.5-2.7,3.6-5.4,4v0.6c0.5,0.1,1.1,0.3,1.5,0.4c2.1,0.6,3.5,1.6,4,3.8c0,0.5,0,1.2,0,1.9   c0,2.1-0.3,4.9,0.5,6.2c0.7,1.1,2.1,1.4,3.9,1.4c0,1.5,0,3.1,0,4.7c-5.3,0.1-9.1-0.9-10.4-4.9c-0.3-0.8-0.2-1.7-0.4-2.7v-1.5   c0-1.9,0.1-4-0.6-5.2c-0.7-1.2-2.2-1.6-4.2-1.6v-5.7c2,0,3.7-0.5,4.3-1.9c0.4-1.2,0.4-3.1,0.4-4.9v-1.6c0.1-1,0.1-2,0.4-2.8   c1.3-4,5.2-4.8,10.4-4.8c0,1.5,0,3.1,0,4.7l0.2,0.2c-1.8-0.1-3.2,0.2-3.9,1.3C42.3,39.2,42.6,42.1,42.6,44.2z M68.6,53.2   c-2.1,0-3.8,0.5-4.4,1.9c-0.9,2-0.1,5.8-0.6,8.2c-0.7,3-2.3,4.5-5.2,5.3c-0.7,0.2-1.4,0.2-2.2,0.3c-0.6,0.1-1.4,0-2.1,0.1   c-0.4,0-0.8,0-1.2,0v-4.7c1.7,0.1,3.2-0.2,3.9-1.3c0.9-1.4,0.6-4.1,0.6-6.3c0-0.7,0-1.5,0.1-2.1c0.5-2.1,1.9-3,3.9-3.6   c0.4-0.2,1-0.4,1.5-0.4V50c-0.5-0.1-1-0.3-1.5-0.4c-2-0.6-3.5-1.5-4-3.6c-0.1-0.6-0.1-1.3-0.1-2c0-2,0.3-4.9-0.5-6.2   c-0.7-1.2-2.1-1.5-4-1.5v-4.7c5.2,0,9.3,0.9,10.5,4.8c0.5,1.5,0.5,3.4,0.5,5.4c0,1.7,0,3.2,0.6,4.2l-0.1-0.1   c0.8,1.2,2.3,1.6,4.3,1.6V53.2z"/><path d="M96.4,44h-9.7C84,28.3,71.5,16,55.8,13.6V3.5c0-1.6-1.3-3-3-3h-5.9c-1.6,0-3,1.3-3,3v10.1C28.3,16.2,16,28.4,13.3,44h-10   c-1.7,0-3,1.4-3,3v5.9c0,1.7,1.4,3,3,3h9.9C15.6,71.8,28,84.4,43.9,87v9.5c0,1.6,1.3,3,3,3h5.9c1.6,0,3-1.3,3-3v-9.4   c16-2.5,28.6-15.1,31-31.2h9.6c1.6,0,3-1.3,3-3V47C99.4,45.4,98.1,44,96.4,44z M50,75.6c-14,0-25.3-11.3-25.3-25.3S36,25,50,25   s25.3,11.3,25.3,25.3S64,75.6,50,75.6z"/><path d="M47.1,36.6l-0.2-0.2c0-1.6,0-3.2,0-4.7c-5.2,0-9.1,0.8-10.4,4.8c-0.3,0.8-0.3,1.8-0.4,2.8v1.6c0,1.8,0,3.7-0.4,4.9   c-0.6,1.4-2.3,1.9-4.3,1.9v5.7c2,0,3.5,0.4,4.2,1.6c0.7,1.2,0.6,3.3,0.6,5.2v1.5c0.2,1,0.1,1.9,0.4,2.7c1.3,4,5.1,5,10.4,4.9   c0-1.6,0-3.2,0-4.7c-1.8,0-3.2-0.3-3.9-1.4c-0.8-1.3-0.5-4.1-0.5-6.2c0-0.7,0-1.4,0-1.9c-0.5-2.2-1.9-3.2-4-3.8   c-0.4-0.1-1-0.3-1.5-0.4v-0.6c2.7-0.4,4.8-1.5,5.4-4c0.1-0.6,0.1-1.3,0.1-2.1c0-2.1-0.3-5,0.6-6.3C43.9,36.8,45.3,36.5,47.1,36.6z"/><path d="M64.3,45.9l0.1,0.1c-0.6-1-0.6-2.5-0.6-4.2c0-2,0-3.9-0.5-5.4c-1.2-3.9-5.3-4.8-10.5-4.8v4.7c1.9,0,3.3,0.3,4,1.5   c0.8,1.3,0.5,4.2,0.5,6.2c0,0.7,0,1.4,0.1,2c0.5,2.1,2,3,4,3.6c0.5,0.1,1,0.3,1.5,0.4v0.6c-0.5,0-1.1,0.2-1.5,0.4   c-2,0.6-3.4,1.5-3.9,3.6c-0.1,0.6-0.1,1.4-0.1,2.1c0,2.2,0.3,4.9-0.6,6.3c-0.7,1.1-2.2,1.4-3.9,1.3V69c0.4,0,0.8,0,1.2,0   c0.7-0.1,1.5,0,2.1-0.1c0.8-0.1,1.5-0.1,2.2-0.3c2.9-0.8,4.5-2.3,5.2-5.3c0.5-2.4-0.3-6.2,0.6-8.2c0.6-1.4,2.3-1.9,4.4-1.9v-5.7   C66.6,47.5,65.1,47.1,64.3,45.9z"/></g><text x="0" y="115" fill="#000000" font-size="5px" font-weight="bold" font-family="'Helvetica Neue', Helvetica, Arial-Unicode, Arial, Sans-serif"></text><text x="0" y="120" fill="#000000" font-size="5px" font-weight="bold" font-family="'Helvetica Neue', Helvetica, Arial-Unicode, Arial, Sans-serif"></text></svg>